SplineFontDB: 3.0
FontName: HM_FTXroya_Bold
FullName: HM_FTXroya_Bold
FamilyName: HM_FTXroya_Bold
Weight: Bold
Copyright: Copyright (c) Hossein, 2013. All rights reserved.
Version: 0.1
ItalicAngle: 0
UnderlinePosition: -540
UnderlineWidth: 60
Ascent: 1638
Descent: 410
sfntRevision: 0x00010000
LayerCount: 2
Layer: 0 1 "Back"  1
Layer: 1 1 "Fore"  0
XUID: [1021 102 1371595031 6992056]
FSType: 0
OS2Version: 2
OS2_WeightWidthSlopeOnly: 0
OS2_UseTypoMetrics: 1
CreationTime: 1194658560
ModificationTime: 1360912916
PfmFamily: 17
TTFWeight: 400
TTFWidth: 5
LineGap: 0
VLineGap: 0
Panose: 2 0 5 3 8 0 0 2 0 3
OS2TypoAscent: 2100
OS2TypoAOffset: 0
OS2TypoDescent: -1000
OS2TypoDOffset: 0
OS2TypoLinegap: 0
OS2WinAscent: 2100
OS2WinAOffset: 0
OS2WinDescent: 1000
OS2WinDOffset: 0
HheadAscent: 2100
HheadAOffset: 0
HheadDescent: -1000
HheadDOffset: 0
OS2SubXSize: 1434
OS2SubYSize: 1331
OS2SubXOff: 0
OS2SubYOff: 293
OS2SupXSize: 1434
OS2SupYSize: 1331
OS2SupXOff: 0
OS2SupYOff: 928
OS2StrikeYSize: 102
OS2StrikeYPos: 512
OS2Vendor: 'pars'
OS2CodePages: 20000051.41000000
OS2UnicodeRanges: 00002003.80000000.00000008.00000000
Lookup: 4 0 1 "gsub_ligature_dfl_liga_arab_FAR_Lookup_01"  {"gsub_ligature_dfl_liga_arab_FAR_Lookup_01_Subtable_01"  } ['liga' ('arab' <'FAR ' > ) ]
Lookup: 4 0 1 "gsub_ligature_dfl_liga_arab_FAR_Lookup_02"  {"gsub_ligature_dfl_liga_arab_FAR_Lookup_02_Subtable_01"  } ['liga' ('arab' <'FAR ' > ) ]
Lookup: 3 0 0 "gsub_alternate_dfl_aalt_arab_FAR_Lookup_01"  {"gsub_alternate_dfl_aalt_arab_FAR_Lookup_01_Subtable_01"  } ['aalt' ('arab' <'FAR ' > ) ]
Lookup: 1 1 0 "gsub_single_rtl_fina_arab_FAR_Lookup_01"  {"gsub_single_rtl_fina_arab_FAR_Lookup_01_Subtable_01"  } ['fina' ('arab' <'FAR ' > ) ]
Lookup: 1 1 0 "gsub_single_rtl_init_arab_FAR_Lookup_01"  {"gsub_single_rtl_init_arab_FAR_Lookup_01_Subtable_01"  } ['init' ('arab' <'FAR ' > ) ]

StartChar: .notdef
Encoding: 65536 -1 0
Width: 1122
GlyphClass: 2
Flags: W
LayerCount: 2
Fore
SplineSet
624 299 m 0,0,1
 624 269 624 269 602 246.5 c 128,-1,2
 580 224 580 224 548 224 c 0,3,4
 518 224 518 224 496.5 246.5 c 128,-1,5
 475 269 475 269 475 299 c 0,6,7
 475 331 475 331 496.5 352.5 c 128,-1,8
 518 374 518 374 551 374 c 0,9,10
 581 374 581 374 602.5 352.5 c 128,-1,11
 624 331 624 331 624 299 c 0,0,1
732 780 m 0,12,13
 732 737 732 737 708.5 710 c 128,-1,14
 685 683 685 683 648 683 c 0,15,16
 616 683 616 683 597 701.5 c 128,-1,17
 578 720 578 720 578 749 c 0,18,19
 578 770 578 770 588 785 c 128,-1,20
 598 800 598 800 610.5 810.5 c 128,-1,21
 623 821 623 821 633 829 c 128,-1,22
 643 837 643 837 643 843 c 0,23,24
 643 863 643 863 623.5 875 c 128,-1,25
 604 887 604 887 574 887 c 0,26,27
 536 887 536 887 512 866 c 128,-1,28
 488 845 488 845 488 813 c 0,29,30
 488 795 488 795 498.5 769 c 128,-1,31
 509 743 509 743 521.5 718 c 128,-1,32
 534 693 534 693 545.5 673 c 128,-1,33
 557 653 557 653 559 648 c 0,34,35
 570 619 570 619 576.5 583.5 c 128,-1,36
 583 548 583 548 583 513 c 0,37,38
 583 492 583 492 581.5 470.5 c 128,-1,39
 580 449 580 449 578 424 c 1,40,-1
 539 424 l 1,41,-1
 539 442 l 1,42,-1
 543 472 l 1,43,44
 543 505 543 505 498 544 c 0,45,46
 425 609 425 609 416 620 c 0,47,48
 371 673 371 673 371 740 c 0,49,50
 371 781 371 781 386 815.5 c 128,-1,51
 401 850 401 850 426.5 875.5 c 128,-1,52
 452 901 452 901 486.5 915 c 128,-1,53
 521 929 521 929 560 929 c 0,54,55
 595 929 595 929 626.5 918.5 c 128,-1,56
 658 908 658 908 681.5 888.5 c 128,-1,57
 705 869 705 869 718.5 841.5 c 128,-1,58
 732 814 732 814 732 780 c 0,12,13
132 31 m 1,59,-1
 992 31 l 1,60,-1
 992 1122 l 1,61,-1
 132 1122 l 1,62,-1
 132 31 l 1,59,-1
100 0 m 1,63,-1
 100 1154 l 1,64,-1
 1022 1154 l 1,65,-1
 1022 0 l 1,66,-1
 100 0 l 1,63,-1
EndSplineSet
EndChar

StartChar: exclam
Encoding: 33 33 4
Width: 599
VWidth: 1750
GlyphClass: 2
Flags: W
LayerCount: 2
Fore
SplineSet
101.401367188 1401.75 m 1,0,-1
 398.901367188 1401.75 l 1,1,2
 398.901367188 1057 l 2,3,4
 397.8671875 1032.64746094 397.8671875 1032.64746094 384.901367188 917 c 0,5,6
 379.651367188 864.5 379.651367188 864.5 370.026367188 760.375 c 0,7,8
 360.333007812 655.653320312 360.333007812 655.653320312 355.151367188 603.75 c 0,7,8
 352.3515625 577.150390625 352.3515625 577.150390625 347.87109375 523.950195312 c 0,9,10
 341.020507812 443.56640625 341.020507812 443.56640625 335.901367188 404.25 c 0,9,10
 335.318359375 398.416992188 335.318359375 398.416992188 334.540039062 386.75 c 0,11,12
 332.723632812 362.833007812 332.723632812 362.833007812 330.651367188 351.75 c 0,11,12
 329.751953125 335.755859375 329.751953125 335.755859375 328.901367188 334.25 c 0,13,14
 324.247070312 329.78125 324.247070312 329.78125 290.401367188 330.75 c 2,15,-1
 174.901367188 330.75 l 1,16,17
 166.078125 440.635742188 166.078125 440.635742188 140.344726562 660.40625 c 0,18,19
 109.954101562 920.71875 109.954101562 920.71875 101.401367188 1050 c 0,18,19
 98.6767578125 1094.953125 98.6767578125 1094.953125 101.248046875 1370.6015625 c 0,20,21
 101.392578125 1387.82324219 101.392578125 1387.82324219 101.401367188 1401.75 c 1,0,-1
113.651367188 231 m 1,20,-1
 383.151367188 231 l 1,21,-1
 383.151367188 -40.25 l 1,22,-1
 113.651367188 -40.25 l 1,23,-1
 113.651367188 231 l 1,20,-1
EndSplineSet
EndChar

StartChar: percent
Encoding: 37 37 8
Width: 1254
VWidth: 1750
GlyphClass: 2
Flags: W
LayerCount: 2
Fore
SplineSet
252.75 -112 m 1,0,1
 256.9765625 -91.3818359375 256.9765625 -91.3818359375 294.75 10.5 c 2,2,-1
 385.75 266 l 1,3,-1
 653.5 1018.5 l 2,4,5
 671.1953125 1066.76074219 671.1953125 1066.76074219 705.048828125 1163.11328125 c 0,6,7
 744.932617188 1276.52539062 744.932617188 1276.52539062 765.5 1331.75 c 0,6,7
 786.611328125 1388.33300781 786.611328125 1388.33300781 795.25 1415.75 c 0,8,9
 807.342773438 1450.18066406 807.342773438 1450.18066406 809.25 1452.5 c 0,10,11
 816.03125 1455.82519531 816.03125 1455.82519531 842.5 1445.5 c 0,12,13
 897.444335938 1422.45507812 897.444335938 1422.45507812 944 1405.25 c 1,14,-1
 800.5 1008 l 1,15,-1
 496 169.75 l 1,16,-1
 375.25 -162.75 l 1,17,-1
 252.75 -112 l 1,0,1
125 1226.75 m 1,18,-1
 240.5 1379 l 1,19,-1
 268.5 1415.75 l 1,20,-1
 280.75 1428 l 1,21,-1
 296.5 1421 l 1,22,-1
 333.25 1394.75 l 1,23,-1
 434.75 1326.5 l 1,24,-1
 489 1286.25 l 1,25,-1
 373.5 1137.5 l 1,26,-1
 345.5 1100.75 l 1,27,-1
 333.25 1088.5 l 1,28,-1
 315.75 1097.25 l 1,29,-1
 277.25 1123.5 l 1,30,-1
 125 1226.75 l 1,18,-1
919.5 234.5 m 1,31,-1
 984.25 190.75 l 1,32,-1
 1129.5 92.75 l 1,33,34
 1108.97753906 56.8349609375 1108.97753906 56.8349609375 1021.94335938 -49.0830078125 c 0,35,36
 993.069335938 -84.2216796875 993.069335938 -84.2216796875 975.5 -110.25 c 1,35,-1
 914.25 -70 l 1,36,-1
 816.25 -3.5 l 1,37,-1
 779.5 21 l 1,38,-1
 769 33.25 l 1,39,-1
 779.5 50.75 l 1,40,-1
 809.25 89.25 l 1,41,-1
 919.5 234.5 l 1,31,-1
EndSplineSet
EndChar

StartChar: parenleft
Encoding: 40 40 11
Width: 692
VWidth: 1750
GlyphClass: 2
Flags: W
LayerCount: 2
Fore
SplineSet
464.409179688 1480.5 m 1,0,-1
 518.659179688 1440.25 l 1,1,-1
 592.159179688 1393 l 1,2,-1
 592.159179688 1391.25 l 1,3,4
 538.946289062 1319.70605469 538.946289062 1319.70605469 471.409179688 1184.75 c 0,5,6
 258.7265625 756.751953125 258.7265625 756.751953125 352.409179688 351.75 c 0,7,8
 402.264648438 139.010742188 402.264648438 139.010742188 515.159179688 -57.75 c 0,9,10
 539.981445312 -104.45703125 539.981445312 -104.45703125 572.909179688 -154 c 0,11,12
 573.858398438 -155.8984375 573.858398438 -155.8984375 578.076171875 -161.590820312 c 0,13,14
 589.946289062 -180.0546875 589.946289062 -180.0546875 586.909179688 -185.5 c 0,13,14
 582.075195312 -191.7109375 582.075195312 -191.7109375 558.909179688 -204.75 c 1,15,16
 536.190429688 -220.041015625 536.190429688 -220.041015625 495.909179688 -250.25 c 0,17,18
 493.565429688 -251.421875 493.565429688 -251.421875 486.525390625 -257.2265625 c 0,19,20
 470.193359375 -269.38671875 470.193359375 -269.38671875 464.409179688 -269.5 c 1,19,20
 458.51171875 -266.483398438 458.51171875 -266.483398438 434.659179688 -234.5 c 0,21,22
 370.780273438 -153.3828125 370.780273438 -153.3828125 357.659179688 -134.75 c 0,23,24
 194.787109375 95.6005859375 194.787109375 95.6005859375 131.909179688 343 c 0,25,26
 41.9228515625 700.639648438 41.9228515625 700.639648438 205.703125 1076.34570312 c 0,27,28
 222.396484375 1114.34863281 222.396484375 1114.34863281 240.409179688 1149.75 c 0,27,28
 311.911132812 1289.74902344 311.911132812 1289.74902344 464.409179688 1480.5 c 1,0,-1
EndSplineSet
EndChar

StartChar: parenright
Encoding: 41 41 12
Width: 792
VWidth: 1750
GlyphClass: 2
Flags: W
LayerCount: 2
Fore
SplineSet
226 1480.5 m 1,0,1
 242.1328125 1465.06445312 242.1328125 1465.06445312 292.5 1401.75 c 0,2,3
 358.190429688 1315.61621094 358.190429688 1315.61621094 404.5 1235.5 c 0,4,5
 583.64453125 929.46875 583.64453125 929.46875 591.75 614.25 c 0,6,7
 596.157226562 425.188476562 596.157226562 425.188476562 525.25 225.75 c 0,8,9
 460.754882812 44.2333984375 460.754882812 44.2333984375 341.5 -124.25 c 0,10,11
 324 -149.625 324 -149.625 284.625 -197.75 c 0,12,13
 244.93359375 -246.5390625 244.93359375 -246.5390625 227.75 -271.25 c 1,12,-1
 100 -185.5 l 1,13,14
 104.49609375 -173.939453125 104.49609375 -173.939453125 148.512695312 -106.518554688 c 0,15,16
 153.126953125 -99.2919921875 153.126953125 -99.2919921875 156 -94.5 c 0,15,16
 218.829101562 13.6240234375 218.829101562 13.6240234375 257.5 99.75 c 1,17,18
 446.154296875 542.055664062 446.154296875 542.055664062 315.25 957.25 c 0,19,20
 270.634765625 1094.67578125 270.634765625 1094.67578125 185.75 1253 c 0,21,22
 167.192382812 1286.22851562 167.192382812 1286.22851562 129.75 1347.5 c 0,23,24
 102.260742188 1389.46484375 102.260742188 1389.46484375 100 1394.75 c 1,25,26
 127.010742188 1406.17773438 127.010742188 1406.17773438 207.533203125 1467.03710938 c 0,27,28
 218.495117188 1475.22363281 218.495117188 1475.22363281 226 1480.5 c 1,0,1
EndSplineSet
EndChar

StartChar: plus
Encoding: 43 43 14
Width: 891
VWidth: 1750
GlyphClass: 2
Flags: W
LayerCount: 2
Fore
SplineSet
372 875 m 1,0,-1
 519 875 l 1,1,-1
 519 511 l 1,2,-1
 883 511 l 1,3,-1
 883 362.25 l 1,4,-1
 519 362.25 l 1,5,-1
 519 -1.75 l 1,6,-1
 372 -1.75 l 1,7,-1
 372 362.25 l 1,8,-1
 8 362.25 l 1,9,-1
 8 511 l 1,10,-1
 372 511 l 1,11,-1
 372 875 l 1,0,-1
EndSplineSet
EndChar

StartChar: hyphen
Encoding: 45 45 16
AltUni2: 002212.ffffffff.0 0000ad.ffffffff.0
Width: 1115
VWidth: 1750
GlyphClass: 2
Flags: W
LayerCount: 2
Fore
SplineSet
120 511 m 1,0,-1
 995 511 l 1,1,-1
 995 362.25 l 1,2,-1
 120 362.25 l 1,3,-1
 120 511 l 1,0,-1
EndSplineSet
EndChar

StartChar: period
Encoding: 46 46 17
Width: 568
VWidth: 1750
GlyphClass: 2
Flags: W
LayerCount: 2
Fore
SplineSet
100 269.5 m 1,0,-1
 367.75 269.5 l 1,1,-1
 367.75 0 l 1,2,-1
 100 0 l 1,3,-1
 100 269.5 l 1,0,-1
EndSplineSet
EndChar

StartChar: slash
Encoding: 47 47 18
Width: 703
VWidth: 1750
GlyphClass: 2
Flags: W
LayerCount: 2
Fore
SplineSet
559.5 1456 m 1,0,-1
 608.5 1438.5 l 1,1,-1
 694.25 1405.25 l 1,2,-1
 666.25 1326.5 l 1,3,-1
 615.5 1184.75 l 1,4,-1
 451 733.25 l 1,5,-1
 230.5 126 l 1,6,-1
 125.5 -162.75 l 1,7,-1
 3 -112 l 1,8,-1
 45 8.75 l 1,9,-1
 137.75 269.5 l 1,10,-1
 438.75 1113 l 1,11,-1
 514 1326.5 l 1,12,-1
 559.5 1456 l 1,0,-1
EndSplineSet
EndChar

StartChar: colon
Encoding: 58 58 29
Width: 509
VWidth: 1750
GlyphClass: 2
Flags: W
LayerCount: 2
Fore
SplineSet
191.96875 672 m 1,0,1
 262.638671875 681.119140625 262.638671875 681.119140625 295.31640625 616.833007812 c 0,2,3
 327.649414062 553.223632812 327.649414062 553.223632812 285.728515625 501.073242188 c 0,4,5
 274.48828125 488.25 274.48828125 488.25 261.96875 479.5 c 1,2,3
 236.68359375 465.865234375 236.68359375 465.865234375 223.46875 463.75 c 0,4,5
 151.12890625 453.416015625 151.12890625 453.416015625 115.626953125 517.620117188 c 0,6,7
 80.900390625 580.420898438 80.900390625 580.420898438 123.341796875 632.791015625 c 0,8,9
 135.600585938 646.693359375 135.600585938 646.693359375 149.96875 656.25 c 0,6,7
 164.817382812 665.893554688 164.817382812 665.893554688 191.96875 672 c 1,0,1
190.21875 357 m 1,8,9
 261.979492188 367.416992188 261.979492188 367.416992188 294.455078125 303.239257812 c 0,10,11
 326.265625 240.373046875 326.265625 240.373046875 284.875 187.180664062 c 0,12,13
 275.313476562 175.903320312 275.313476562 175.903320312 265.46875 168 c 0,10,11
 248.372070312 154.578125 248.372070312 154.578125 223.46875 148.75 c 1,12,13
 150.61328125 138.341796875 150.61328125 138.341796875 115.514648438 202.860351562 c 0,14,15
 81.4296875 265.515625 81.4296875 265.515625 123.727539062 317.540039062 c 0,16,17
 133.885742188 330.03515625 133.885742188 330.03515625 148.21875 339.5 c 0,14,15
 166.184570312 351.379882812 166.184570312 351.379882812 190.21875 357 c 1,8,9
EndSplineSet
EndChar

StartChar: equal
Encoding: 61 61 32
Width: 891
VWidth: 1750
GlyphClass: 2
Flags: W
LayerCount: 2
Fore
SplineSet
8 633.5 m 1,0,-1
 883 633.5 l 1,1,-1
 883 486.5 l 1,2,-1
 8 486.5 l 1,3,-1
 8 633.5 l 1,0,-1
8 330.75 m 1,4,-1
 883 330.75 l 1,5,-1
 883 183.75 l 1,6,-1
 8 183.75 l 1,7,-1
 8 330.75 l 1,4,-1
EndSplineSet
EndChar

StartChar: bracketleft
Encoding: 91 91 62
Width: 602
VWidth: 1750
GlyphClass: 2
Flags: W
LayerCount: 2
Fore
SplineSet
100 1475.25 m 1,0,-1
 502.5 1475.25 l 1,1,-1
 502.5 1302 l 1,2,-1
 278.5 1302 l 1,3,-1
 278.5 -404.25 l 1,4,-1
 502.5 -404.25 l 1,5,-1
 502.5 -577.5 l 1,6,-1
 100 -577.5 l 1,7,-1
 100 1475.25 l 1,0,-1
EndSplineSet
EndChar

StartChar: bracketright
Encoding: 93 93 64
Width: 702
VWidth: 1750
GlyphClass: 2
Flags: W
LayerCount: 2
Fore
SplineSet
100 1475.25 m 1,0,-1
 502.5 1475.25 l 1,1,-1
 502.5 -577.5 l 1,2,-1
 100 -577.5 l 1,3,-1
 100 -404.25 l 1,4,-1
 325.75 -404.25 l 1,5,-1
 325.75 1302 l 1,6,-1
 100 1302 l 1,7,-1
 100 1475.25 l 1,0,-1
EndSplineSet
EndChar

StartChar: guillemotleft
Encoding: 171 171 175
Width: 991
VWidth: 1750
GlyphClass: 2
Flags: W
LayerCount: 2
Fore
SplineSet
470.70703125 749 m 1,0,1
 465.190429688 738.25 465.190429688 738.25 435.70703125 705.25 c 0,2,3
 406.228515625 670.463867188 406.228515625 670.463867188 377.95703125 628.25 c 0,4,5
 252.143554688 446.723632812 252.143554688 446.723632812 274.70703125 280 c 1,6,7
 295.971679688 146.543945312 295.971679688 146.543945312 402.45703125 0 c 0,8,9
 419.603515625 -24.419921875 419.603515625 -24.419921875 453.20703125 -64.75 c 0,10,11
 468.973632812 -83.2568359375 468.973632812 -83.2568359375 467.20703125 -89.25 c 0,12,13
 460.286132812 -100.71484375 460.286132812 -100.71484375 414.70703125 -117.25 c 0,14,15
 411.499023438 -118.625 411.499023438 -118.625 402.70703125 -123.296875 c 0,16,17
 373.2265625 -138.005859375 373.2265625 -138.005859375 363.95703125 -136.5 c 0,16,17
 356.95703125 -134.75 356.95703125 -134.75 348.20703125 -127.75 c 0,18,19
 339.45703125 -120.75 339.45703125 -120.75 326.33203125 -106.75 c 2,20,-1
 313.20703125 -92.75 l 1,18,19
 239.78125 -18.708984375 239.78125 -18.708984375 199.45703125 40.25 c 0,20,21
 153.008789062 106.751953125 153.008789062 106.751953125 127.70703125 176.75 c 0,22,23
 49.306640625 396.270507812 49.306640625 396.270507812 192.750976562 613.759765625 c 0,24,25
 209.609375 638.971679688 209.609375 638.971679688 227.45703125 661.5 c 0,24,25
 287.099609375 733.756835938 287.099609375 733.756835938 328.95703125 770 c 0,26,27
 360.146484375 798.146484375 360.146484375 798.146484375 365.70703125 799.75 c 1,28,29
 371.889648438 798.813476562 371.889648438 798.813476562 397.20703125 782.25 c 1,30,31
 423.4296875 769.263671875 423.4296875 769.263671875 470.70703125 749 c 1,0,1
790.95703125 747.25 m 1,32,33
 786.123046875 737.139648438 786.123046875 737.139648438 754.20703125 701.75 c 0,34,35
 724.728515625 666.963867188 724.728515625 666.963867188 696.45703125 624.75 c 0,36,37
 571.497070312 442.639648438 571.497070312 442.639648438 596.70703125 269.5 c 1,38,39
 618.150390625 137.303710938 618.150390625 137.303710938 726.20703125 -5.25 c 0,40,41
 758.302734375 -47.7041015625 758.302734375 -47.7041015625 775.20703125 -66.5 c 0,42,43
 776.0546875 -67.771484375 776.0546875 -67.771484375 779.17578125 -71.1396484375 c 0,44,45
 791.435546875 -84.369140625 791.435546875 -84.369140625 787.45703125 -91 c 0,44,45
 781.026367188 -101.40625 781.026367188 -101.40625 736.70703125 -117.25 c 0,46,47
 733.408203125 -118.6640625 733.408203125 -118.6640625 723.999023438 -123.541015625 c 0,48,49
 693.44921875 -138.630859375 693.44921875 -138.630859375 684.20703125 -138.25 c 1,48,49
 673.370117188 -133.690429688 673.370117188 -133.690429688 636.95703125 -96.25 c 1,50,51
 573.95703125 -35.875 573.95703125 -35.875 521.45703125 35 c 1,52,53
 379.727539062 236.692382812 379.727539062 236.692382812 436.776367188 448.73046875 c 0,54,55
 440.5703125 462.431640625 440.5703125 462.431640625 444.45703125 474.25 c 0,54,55
 466.478515625 541.033203125 466.478515625 541.033203125 512.70703125 610.75 c 0,56,57
 559.419921875 680 559.419921875 680 635.20703125 756 c 0,58,59
 658.573242188 779.1171875 658.573242188 779.1171875 670.20703125 789.25 c 0,60,61
 681.001953125 798.482421875 681.001953125 798.482421875 685.95703125 799.75 c 1,62,63
 694.327148438 798.754882812 694.327148438 798.754882812 715.70703125 782.25 c 1,64,65
 725.865234375 777.170898438 725.865234375 777.170898438 746.834960938 768.194335938 c 0,66,67
 777.139648438 754.986328125 777.139648438 754.986328125 790.95703125 747.25 c 1,32,33
EndSplineSet
EndChar

StartChar: guillemotright
Encoding: 187 187 176
Width: 992
VWidth: 1750
GlyphClass: 2
Flags: W
LayerCount: 2
Fore
SplineSet
205 803.25 m 1,0,1
 250.05078125 771.78515625 250.05078125 771.78515625 308.25 703.5 c 1,2,3
 494.340820312 495.833007812 494.340820312 495.833007812 467.963867188 278.859375 c 0,4,5
 463.720703125 243.958984375 463.720703125 243.958984375 453.5 210 c 0,4,5
 416.952148438 84.3681640625 416.952148438 84.3681640625 289 -59.5 c 0,6,7
 259.497070312 -91.3671875 259.497070312 -91.3671875 229.5 -119 c 0,8,9
 227.166992188 -120.75 227.166992188 -120.75 222.435546875 -125.481445312 c 0,10,11
 211.784179688 -134.73828125 211.784179688 -134.73828125 206.75 -136.5 c 0,10,11
 202.228515625 -136.376953125 202.228515625 -136.376953125 178.75 -122.5 c 0,12,13
 168.112304688 -116.421875 168.112304688 -116.421875 144.16796875 -106.23046875 c 0,14,15
 112.571289062 -92.3916015625 112.571289062 -92.3916015625 100 -84 c 1,14,-1
 100 -82.25 l 1,15,16
 207.538085938 51.091796875 207.538085938 51.091796875 243.5 120.75 c 0,17,18
 274.6015625 181.171875 274.6015625 181.171875 287.25 238 c 0,19,20
 334.038085938 433.817382812 334.038085938 433.817382812 164.654296875 666.038085938 c 0,21,22
 136.8046875 704.010742188 136.8046875 704.010742188 100 749 c 1,21,-1
 100 750.75 l 1,22,23
 112.982421875 762.205078125 112.982421875 762.205078125 172.223632812 786.094726562 c 0,24,25
 193.09765625 795.001953125 193.09765625 795.001953125 205 803.25 c 1,0,1
527 801.5 m 0,24,25
 533.940429688 800.508789062 533.940429688 800.508789062 561.467773438 773.649414062 c 0,26,27
 564.440429688 770.951171875 564.440429688 770.951171875 565.5 770 c 0,26,27
 624.280273438 713.661132812 624.280273438 713.661132812 663.5 663.25 c 0,28,29
 819.26171875 471.143554688 819.26171875 471.143554688 786.893554688 262.600585938 c 0,30,31
 781.962890625 232.451171875 781.962890625 232.451171875 773.75 204.75 c 0,30,31
 747.567382812 120.447265625 747.567382812 120.447265625 695 43.75 c 0,32,33
 650.932617188 -19.4111328125 650.932617188 -19.4111328125 574.25 -96.25 c 0,34,35
 539.745117188 -130.754882812 539.745117188 -130.754882812 537.58203125 -132.1796875 c 0,36,37
 530.102539062 -137.106445312 530.102539062 -137.106445312 525.25 -136.5 c 0,36,37
 523.428710938 -135.615234375 523.428710938 -135.615234375 500.75 -122.5 c 0,38,39
 481.478515625 -111.19921875 481.478515625 -111.19921875 444.75 -94.5 c 1,40,41
 426.119140625 -89.8427734375 426.119140625 -89.8427734375 424.692382812 -83.814453125 c 0,42,43
 425.065429688 -80.412109375 425.065429688 -80.412109375 425.5 -78.75 c 0,42,43
 431.745117188 -68.0576171875 431.745117188 -68.0576171875 464 -33.25 c 1,44,45
 506.471679688 21.6552734375 506.471679688 21.6552734375 535.75 66.5 c 1,46,47
 630.4921875 226.487304688 630.4921875 226.487304688 619.75 362.25 c 0,48,49
 612.151367188 441.548828125 612.151367188 441.548828125 570.75 533.75 c 0,50,51
 540.84765625 598.774414062 540.84765625 598.774414062 474.5 684.25 c 0,52,53
 462.5625 701.631835938 462.5625 701.631835938 439.5 728 c 0,54,55
 425.370117188 743.39453125 425.370117188 743.39453125 423.75 747.25 c 0,56,57
 422 756 422 756 443.11328125 765.690429688 c 2,58,-1
 444.75 766.5 l 2,58,59
 454.375 770.875 454.375 770.875 473.625 778.75 c 0,60,61
 493.458007812 786.938476562 493.458007812 786.938476562 502.5 791 c 0,60,61
 505.483398438 791.74609375 505.483398438 791.74609375 512.814453125 795.83203125 c 0,62,63
 522.983398438 801.5 522.983398438 801.5 527 801.5 c 0,24,25
EndSplineSet
EndChar

StartChar: guilsinglleft
Encoding: 8249 8249 195
Width: 566
GlyphClass: 2
Flags: W
LayerCount: 2
Fore
SplineSet
350 70 m 1,0,1
 363 48 363 48 363 35 c 0,2,3
 363 26 363 26 352 26 c 0,4,5
 343 26 343 26 326 33 c 1,6,7
 273 73 273 73 230 128 c 128,-1,8
 187 183 187 183 155 255 c 0,9,10
 126 321 126 321 113.5 385 c 128,-1,11
 101 449 101 449 100 513 c 1,12,13
 100 656 100 656 164 783 c 1,14,15
 231 904 231 904 327 958 c 1,16,17
 354 969 354 969 358 969 c 0,18,19
 366 969 366 969 366 963 c 0,20,21
 366 953 366 953 343 912 c 1,22,23
 224 746 224 746 224 513 c 0,24,25
 224 249 224 249 350 70 c 1,0,1
EndSplineSet
EndChar

StartChar: guilsinglright
Encoding: 8250 8250 196
Width: 569
GlyphClass: 2
Flags: W
LayerCount: 2
Fore
SplineSet
115 70 m 1,0,1
 244 249 244 249 244 513 c 0,2,3
 244 751 244 751 122 913 c 1,4,5
 100 954 100 954 100 963 c 0,6,7
 100 969 100 969 108 969 c 0,8,9
 110 969 110 969 118 966.5 c 128,-1,10
 126 964 126 964 137 958 c 0,11,12
 188 931 188 931 228.5 887 c 128,-1,13
 269 843 269 843 301 783 c 0,14,15
 336 718 336 718 352 650.5 c 128,-1,16
 368 583 368 583 369 513 c 0,17,18
 369 450 369 450 353.5 385 c 128,-1,19
 338 320 338 320 309 255 c 0,20,21
 279 188 279 188 235 130 c 128,-1,22
 191 72 191 72 138 33 c 1,23,24
 124 26 124 26 113 26 c 0,25,26
 101 26 101 26 101 35 c 0,27,28
 101 47 101 47 115 70 c 1,0,1
EndSplineSet
EndChar

StartChar: afii57451
Encoding: 1611 1611 311
AltUni2: 00fe70.ffffffff.0
Width: 61
VWidth: 1750
GlyphClass: 2
Flags: HW
AnchorPoint: "GposMark2BaseAnchorHamzaErabAbove_01_01" 208 1575 mark 0
AnchorPoint: "GposMark2BaseAnchorHamzaErabBelow_01_01" 208 2009 mark 0
AnchorPoint: "GposMark2BaseAnchorClassErabAbove_01_02" 208 1575 mark 0
AnchorPoint: "GposMark2MarkAnchorHamzaErabAbove_01_01" 208 1575 mark 0
AnchorPoint: "GposMark2MarkAnchorHamzaErabBelow_01_01" 208 2009 mark 0
AnchorPoint: "GposMark2MarkAnchorShaddaErabAbove_01_02" 208 1575 mark 0
AnchorPoint: "GposMark2MarkAnchorShaddaErabBelow_01_02" 208 2009 mark 0
LayerCount: 2
Fore
SplineSet
-65 1863.75 m 1,0,1
 2.9345703125 1878.16015625 2.9345703125 1878.16015625 263.662109375 1958.88183594 c 0,2,3
 374.073242188 1992.89355469 374.073242188 1992.89355469 449.5 2009 c 1,4,-1
 470.5 1914.5 l 1,5,6
 414.73828125 1902.4453125 414.73828125 1902.4453125 103 1816.5 c 0,7,8
 -26.8388671875 1779.40332031 -26.8388671875 1779.40332031 -35.3486328125 1777.90917969 c 0,9,10
 -41.494140625 1776.8828125 -41.494140625 1776.8828125 -45.75 1776.25 c 1,11,-1
 -65 1863.75 l 1,0,1
-54.5 1660.75 m 1,12,-1
 460 1807.75 l 1,13,-1
 475.75 1739.5 l 2,14,15
 475.75 1737.75 475.75 1737.75 477.5 1733.375 c 128,-1,16
 479.25 1729 479.25 1729 479.25 1726.375 c 128,-1,17
 479.25 1723.75 479.25 1723.75 480.125 1719.375 c 128,-1,18
 481 1715 481 1715 479.25 1715 c 0,19,20
 477.5 1711.5 477.5 1711.5 471.375 1709.75 c 128,-1,21
 465.25 1708 465.25 1708 456.5 1706.25 c 2,22,-1
 447.75 1704.5 l 2,23,24
 432 1700.125 432 1700.125 401.375 1691.375 c 0,25,26
 370.124023438 1682.45996094 370.124023438 1682.45996094 355 1678.25 c 0,27,28
 267.49609375 1653.29394531 267.49609375 1653.29394531 94.25 1608.25 c 0,29,30
 81.4072265625 1604.89941406 81.4072265625 1604.89941406 53.9833984375 1595.95898438 c 0,31,32
 -7.119140625 1576.5078125 -7.119140625 1576.5078125 -35.25 1575 c 1,33,-1
 -54.5 1660.75 l 1,12,-1
EndSplineSet
EndChar

StartChar: afii57452
Encoding: 1612 1612 312
AltUni2: 00fe72.ffffffff.0
Width: 61
VWidth: 1750
GlyphClass: 2
Flags: HW
AnchorPoint: "GposMark2BaseAnchorHamzaErabAbove_01_01" 176.783 1575.38 mark 0
AnchorPoint: "GposMark2BaseAnchorHamzaErabBelow_01_01" 176.783 2115.95 mark 0
AnchorPoint: "GposMark2BaseAnchorClassErabAbove_01_02" 176.783 1575.38 mark 0
AnchorPoint: "GposMark2MarkAnchorHamzaErabAbove_01_01" 176.783 1575.38 mark 0
AnchorPoint: "GposMark2MarkAnchorHamzaErabBelow_01_01" 176.783 2115.95 mark 0
AnchorPoint: "GposMark2MarkAnchorShaddaErabAbove_01_02" 176.783 1575.38 mark 0
AnchorPoint: "GposMark2MarkAnchorShaddaErabBelow_01_02" 176.783 2115.95 mark 0
LayerCount: 2
Fore
SplineSet
12.9560546875 1695.75 m 1,0,1
 105.145507812 1722.67089844 105.145507812 1722.67089844 151.206054688 1751.75 c 0,2,3
 185.490234375 1772.70996094 185.490234375 1772.70996094 191.456054688 1785 c 0,4,5
 192.703125 1790.53515625 192.703125 1790.53515625 180.956054688 1811.25 c 0,6,7
 163.403320312 1844.73339844 163.403320312 1844.73339844 158.206054688 1876 c 0,8,9
 147.609375 1959.00585938 147.609375 1959.00585938 216.645507812 2038.06054688 c 0,10,11
 252.892578125 2078.06835938 252.892578125 2078.06835938 292.956054688 2093 c 1,12,13
 365.321289062 2115.9453125 365.321289062 2115.9453125 422.104492188 2066.61328125 c 0,14,15
 454.654296875 2036.44628906 454.654296875 2036.44628906 460.956054688 1995 c 1,16,17
 469.708984375 1896.421875 469.708984375 1896.421875 392.706054688 1806 c 1,18,19
 358.463867188 1768.76269531 358.463867188 1768.76269531 341.956054688 1760.5 c 1,20,-1
 341.956054688 1757 l 1,21,-1
 413.706054688 1709.75 l 1,22,23
 406.686523438 1699.72265625 406.686523438 1699.72265625 389.123046875 1680.73339844 c 0,24,25
 375.54296875 1665.82519531 375.54296875 1665.82519531 369.956054688 1659 c 0,26,27
 354.90625 1643.95019531 354.90625 1643.95019531 350.706054688 1645 c 0,28,29
 333.392578125 1647.37988281 333.392578125 1647.37988281 287.706054688 1683.5 c 1,30,31
 269.0390625 1702.16699219 269.0390625 1702.16699219 263.206054688 1701 c 0,32,33
 254.21484375 1698.39746094 254.21484375 1698.39746094 236.956054688 1685.25 c 1,34,35
 228.206054688 1680.875 228.206054688 1680.875 210.706054688 1671.25 c 0,36,37
 192.623046875 1661.38574219 192.623046875 1661.38574219 184.456054688 1657.25 c 0,38,39
 105.706054688 1617.875 105.706054688 1617.875 21.7060546875 1594.25 c 0,40,41
 12.0810546875 1591.625 12.0810546875 1591.625 -6.2939453125 1586.375 c 0,42,43
 -25.3203125 1580.9609375 -25.3203125 1580.9609375 -34.2939453125 1578.5 c 0,44,45
 -36.0439453125 1578.5 -36.0439453125 1578.5 -40.9697265625 1577.26855469 c 0,46,47
 -52.611328125 1575.38183594 -52.611328125 1575.38183594 -57.0439453125 1576.75 c 0,48,49
 -62.2939453125 1578.5 -62.2939453125 1578.5 -67.0185546875 1594.39453125 c 2,50,-1
 -67.5439453125 1596 l 1,51,-1
 -93.7939453125 1653.75 l 1,52,53
 -32.5478515625 1677.71582031 -32.5478515625 1677.71582031 -14.9267578125 1743.16210938 c 0,54,55
 -13.86328125 1747.45605469 -13.86328125 1747.45605469 -13.2939453125 1750 c 0,56,57
 -5.3330078125 1797.76757812 -5.3330078125 1797.76757812 -38.9541015625 1811.83496094 c 0,58,59
 -49.7197265625 1815.35449219 -49.7197265625 1815.35449219 -60.5439453125 1814.75 c 0,60,61
 -75.3798828125 1812.67871094 -75.3798828125 1812.67871094 -109.543945312 1797.25 c 1,62,63
 -116.142578125 1843.43945312 -116.142578125 1843.43945312 -115.997070312 1844.21679688 c 0,64,65
 -115.118164062 1847.0078125 -115.118164062 1847.0078125 -114.793945312 1848 c 0,66,67
 -109.265625 1854.97070312 -109.265625 1854.97070312 -83.2939453125 1872.5 c 1,68,69
 -10.30078125 1914.75976562 -10.30078125 1914.75976562 30.5673828125 1881.05078125 c 0,70,71
 34.9912109375 1876.90039062 34.9912109375 1876.90039062 37.4560546875 1874.25 c 0,72,73
 74.1923828125 1831.39160156 74.1923828125 1831.39160156 24.21484375 1720.890625 c 0,74,75
 14.720703125 1699.82324219 14.720703125 1699.82324219 12.9560546875 1695.75 c 1,0,1
298.206054688 2016 m 1,76,77
 247.646484375 2006.80761719 247.646484375 2006.80761719 231.380859375 1947.42089844 c 0,78,79
 222.112304688 1909.44433594 222.112304688 1909.44433594 235.206054688 1879.5 c 0,80,81
 262.022460938 1825.91113281 262.022460938 1825.91113281 289.456054688 1827 c 1,82,83
 339.73828125 1834.44921875 339.73828125 1834.44921875 371.541992188 1899.73339844 c 0,84,85
 380.899414062 1920.02636719 380.899414062 1920.02636719 383.956054688 1937.25 c 0,86,87
 391.858398438 1995.203125 391.858398438 1995.203125 342.33984375 2012.72363281 c 0,88,89
 335.336914062 2014.890625 335.336914062 2014.890625 329.706054688 2016 c 2,90,-1
 298.206054688 2016 l 1,76,77
EndSplineSet
EndChar

StartChar: afii57453
Encoding: 1613 1613 313
AltUni2: 00fe74.ffffffff.0
Width: 59
VWidth: 1750
GlyphClass: 2
Flags: HW
AnchorPoint: "GposMark2BaseAnchorClassErabBelow_01_02" -15 -145.25 mark 0
LayerCount: 2
Fore
SplineSet
-288 -290.5 m 1,0,1
 -220.065429688 -276.08984375 -220.065429688 -276.08984375 40.662109375 -195.368164062 c 0,2,3
 151.073242188 -161.356445312 151.073242188 -161.356445312 226.5 -145.25 c 1,4,-1
 247.5 -239.75 l 1,5,6
 191.73828125 -251.8046875 191.73828125 -251.8046875 -120 -337.75 c 0,7,8
 -249.838867188 -374.846679688 -249.838867188 -374.846679688 -258.348632812 -376.340820312 c 0,9,10
 -264.494140625 -377.3671875 -264.494140625 -377.3671875 -268.75 -378 c 1,11,-1
 -288 -290.5 l 1,0,1
-277.5 -493.5 m 1,12,-1
 237 -346.5 l 1,13,-1
 252.75 -414.75 l 2,14,15
 252.75 -416.5 252.75 -416.5 254.5 -420.875 c 128,-1,16
 256.25 -425.25 256.25 -425.25 256.25 -427.875 c 128,-1,17
 256.25 -430.5 256.25 -430.5 257.125 -434.875 c 128,-1,18
 258 -439.25 258 -439.25 256.25 -439.25 c 0,19,20
 254.5 -442.75 254.5 -442.75 248.375 -444.5 c 128,-1,21
 242.25 -446.25 242.25 -446.25 233.5 -448 c 2,22,-1
 224.75 -449.75 l 2,23,24
 209 -454.125 209 -454.125 178.375 -462.875 c 0,25,26
 147.124023438 -471.790039062 147.124023438 -471.790039062 132 -476 c 0,27,28
 44.49609375 -500.956054688 44.49609375 -500.956054688 -128.75 -546 c 0,29,30
 -141.592773438 -549.350585938 -141.592773438 -549.350585938 -169.016601562 -558.291015625 c 0,31,32
 -230.119140625 -577.7421875 -230.119140625 -577.7421875 -258.25 -579.25 c 1,33,-1
 -277.5 -493.5 l 1,12,-1
EndSplineSet
EndChar

StartChar: afii57454
Encoding: 1614 1614 314
AltUni2: 00fe76.ffffffff.0
Width: 62
VWidth: 1750
GlyphClass: 2
Flags: HW
AnchorPoint: "GposMark2BaseAnchorHamzaErabAbove_01_01" 175.236 1575 mark 0
AnchorPoint: "GposMark2BaseAnchorHamzaErabBelow_01_01" 175.236 1807.75 mark 0
AnchorPoint: "GposMark2BaseAnchorClassErabAbove_01_02" 175.236 1575 mark 0
AnchorPoint: "GposMark2MarkAnchorHamzaErabAbove_01_01" 175.236 1575 mark 0
AnchorPoint: "GposMark2MarkAnchorHamzaErabBelow_01_01" 175.236 1807.75 mark 0
AnchorPoint: "GposMark2MarkAnchorShaddaErabAbove_01_02" 175.236 1575 mark 0
AnchorPoint: "GposMark2MarkAnchorShaddaErabBelow_01_02" 175.236 1807.75 mark 0
LayerCount: 2
Fore
SplineSet
-93 1660.75 m 1,0,-1
 421.5 1807.75 l 1,1,2
 424.125 1796.375 424.125 1796.375 429.375 1772.75 c 0,3,4
 434.755859375 1748.59667969 434.755859375 1748.59667969 437.25 1737.75 c 0,5,6
 443.47265625 1719.08300781 443.47265625 1719.08300781 440.75 1715 c 0,7,8
 439 1711.5 439 1711.5 432.875 1709.75 c 128,-1,9
 426.75 1708 426.75 1708 418 1706.25 c 2,10,-1
 409.25 1704.5 l 2,11,12
 393.5 1700.125 393.5 1700.125 362.875 1691.375 c 0,13,14
 331.624023438 1682.45996094 331.624023438 1682.45996094 316.5 1678.25 c 0,15,16
 228.99609375 1653.29394531 228.99609375 1653.29394531 55.75 1608.25 c 0,17,18
 42.9072265625 1604.89941406 42.9072265625 1604.89941406 15.4833984375 1595.95898438 c 0,19,20
 -45.619140625 1576.5078125 -45.619140625 1576.5078125 -73.75 1575 c 1,21,-1
 -93 1660.75 l 1,0,-1
EndSplineSet
EndChar

StartChar: afii57455
Encoding: 1615 1615 315
AltUni2: 00fe78.ffffffff.0
Width: 47
VWidth: 1750
GlyphClass: 2
Flags: HW
AnchorPoint: "GposMark2BaseAnchorHamzaErabAbove_01_01" 132.741 1573.25 mark 0
AnchorPoint: "GposMark2BaseAnchorHamzaErabBelow_01_01" 132.741 2118.28 mark 0
AnchorPoint: "GposMark2BaseAnchorClassErabAbove_01_02" 132.741 1573.25 mark 0
AnchorPoint: "GposMark2MarkAnchorHamzaErabAbove_01_01" 132.741 1573.25 mark 0
AnchorPoint: "GposMark2MarkAnchorHamzaErabBelow_01_01" 132.741 2118.28 mark 0
AnchorPoint: "GposMark2MarkAnchorShaddaErabAbove_01_02" 132.741 1573.25 mark 0
AnchorPoint: "GposMark2MarkAnchorShaddaErabBelow_01_02" 132.741 2118.28 mark 0
LayerCount: 2
Fore
SplineSet
-150 1653.75 m 1,0,1
 -120.8125 1666.56445312 -120.8125 1666.56445312 -59.3876953125 1686.45019531 c 0,2,3
 30.7255859375 1715.62402344 30.7255859375 1715.62402344 72.25 1739.5 c 0,4,5
 123.19921875 1770.06933594 123.19921875 1770.06933594 127.317382812 1774.18066406 c 0,6,7
 132.811523438 1780.56542969 132.811523438 1780.56542969 135.25 1785 c 0,8,9
 136.497070312 1790.53515625 136.497070312 1790.53515625 124.75 1811.25 c 0,10,11
 107.381835938 1844.28808594 107.381835938 1844.28808594 102 1874.25 c 0,12,13
 91.2060546875 1960.6015625 91.2060546875 1960.6015625 159.921875 2039.50195312 c 0,14,15
 194.469726562 2077.69335938 194.469726562 2077.69335938 233.25 2093 c 0,16,17
 304.041992188 2118.28320312 304.041992188 2118.28320312 363.96484375 2068.6953125 c 0,18,19
 400.775390625 2036.29492188 400.775390625 2036.29492188 406.5 1991.5 c 1,20,21
 415.481445312 1884.44238281 415.481445312 1884.44238281 331.25 1799 c 0,22,23
 300.7265625 1769.4140625 300.7265625 1769.4140625 284 1760.5 c 1,24,-1
 355.75 1711.5 l 1,25,26
 350.108398438 1700.68457031 350.108398438 1700.68457031 313.75 1660.75 c 1,27,28
 304.416992188 1646.75 304.416992188 1646.75 296.25 1646.75 c 0,29,30
 290.784179688 1647.89453125 290.784179688 1647.89453125 278.75 1657.25 c 0,31,32
 250.359375 1678.92480469 250.359375 1678.92480469 238.5 1690.5 c 0,33,34
 237.12109375 1691.87890625 237.12109375 1691.87890625 234 1696.00488281 c 0,35,36
 223.951171875 1709.29003906 223.951171875 1709.29003906 217.5 1708 c 0,37,38
 212.126953125 1707.1015625 212.126953125 1707.1015625 184.25 1688.75 c 1,39,40
 134.666992188 1660.5390625 134.666992188 1660.5390625 110.75 1648.5 c 0,41,42
 28.2685546875 1608.69433594 28.2685546875 1608.69433594 -113.25 1573.25 c 1,43,-1
 -150 1653.75 l 1,0,1
243.75 2017.75 m 0,44,45
 192.639648438 2009.50683594 192.639648438 2009.50683594 170.129882812 1947.75 c 0,46,47
 158.149414062 1914.88183594 158.149414062 1914.88183594 165 1886.5 c 0,48,49
 173.012695312 1849.10742188 173.012695312 1849.10742188 204.063476562 1829.765625 c 0,50,51
 217.16796875 1822.88769531 217.16796875 1822.88769531 228 1823.5 c 0,52,53
 231.5 1823.5 231.5 1823.5 235 1825.25 c 128,-1,54
 238.5 1827 238.5 1827 241.125 1827.875 c 128,-1,55
 243.75 1828.75 243.75 1828.75 248.125 1831.375 c 128,-1,56
 252.5 1834 252.5 1834 254.25 1834.875 c 128,-1,57
 256 1835.75 256 1835.75 261.25 1839.25 c 2,58,-1
 266.5 1842.75 l 1,59,60
 321.534179688 1887.4453125 321.534179688 1887.4453125 327.75 1946 c 1,61,62
 331.538085938 1999.03808594 331.538085938 1999.03808594 282.395507812 2014.93066406 c 0,63,64
 264.274414062 2020.79101562 264.274414062 2020.79101562 243.75 2017.75 c 0,44,45
EndSplineSet
EndChar

StartChar: afii57456
Encoding: 1616 1616 316
AltUni2: 00fe7a.ffffffff.0
Width: 59
VWidth: 1750
GlyphClass: 2
Flags: HW
AnchorPoint: "GposMark2BaseAnchorClassErabBelow_01_02" -15.125 -145.25 mark 0
LayerCount: 2
Fore
SplineSet
-282 -290.5 m 1,0,1
 -260.958984375 -287.59765625 -260.958984375 -287.59765625 -138.232421875 -250.979492188 c 0,2,3
 -133.014648438 -249.442382812 -133.014648438 -249.442382812 -129.75 -248.5 c 0,4,5
 -93.1884765625 -237.90234375 -93.1884765625 -237.90234375 -20.400390625 -215.749023438 c 0,6,7
 147.706054688 -164.71875 147.706054688 -164.71875 232.5 -145.25 c 1,8,-1
 248.25 -213.5 l 1,9,-1
 251.75 -238 l 1,10,-1
 216.75 -250.25 l 1,11,-1
 122.25 -274.75 l 1,12,-1
 -142 -346.5 l 1,13,-1
 -262.75 -378 l 1,14,-1
 -282 -290.5 l 1,0,1
EndSplineSet
EndChar

StartChar: afii57457
Encoding: 1617 1617 317
AltUni2: 00fe7c.ffffffff.0
Width: 163
VWidth: 1750
GlyphClass: 2
Flags: HW
AnchorPoint: "GposMark2BaseAnchorHamzaErabAbove_01_01" 237.981 1572.41 mark 0
AnchorPoint: "GposMark2BaseAnchorHamzaErabBelow_01_01" 237.981 1975.75 mark 0
AnchorPoint: "GposMark2BaseAnchorClassErabAbove_01_02" 237.981 1572.41 mark 0
AnchorPoint: "GposMark2MarkAnchorHamzaErabAbove_01_01" 237.981 1572.41 mark 0
AnchorPoint: "GposMark2MarkAnchorHamzaErabBelow_01_01" 237.981 1975.75 mark 0
AnchorPoint: "GposMark2MarkAnchorShaddaErabAbove_01_02" 237.981 2125.75 basemark 0
AnchorPoint: "GposMark2MarkAnchorShaddaErabBelow_01_02" 237.981 1422.41 basemark 0
LayerCount: 2
Fore
SplineSet
434.893554688 1949.5 m 1,0,-1
 513.643554688 1975.75 l 1,1,2
 539.579101562 1770.64550781 539.579101562 1770.64550781 482.143554688 1680 c 0,3,4
 442.094726562 1619.05664062 442.094726562 1619.05664062 365.727539062 1613.79101562 c 0,5,6
 317.459960938 1611.78222656 317.459960938 1611.78222656 284.393554688 1638 c 1,7,8
 258.2890625 1661.96972656 258.2890625 1661.96972656 237.143554688 1725.5 c 1,9,10
 191.865234375 1647.43945312 191.865234375 1647.43945312 167.143554688 1622.25 c 0,11,12
 140.467773438 1596.79101562 140.467773438 1596.79101562 107.643554688 1583.75 c 0,13,14
 90.185546875 1578.31933594 90.185546875 1578.31933594 60.3935546875 1575 c 0,15,16
 40.2841796875 1572.4140625 40.2841796875 1572.4140625 25.3935546875 1576.75 c 0,17,18
 -63.6162109375 1592.45800781 -63.6162109375 1592.45800781 -51.5625 1724.07421875 c 0,19,20
 -48.8955078125 1750.40722656 -48.8955078125 1750.40722656 -42.8564453125 1774.5 c 0,21,22
 -36.2119140625 1803.359375 -36.2119140625 1803.359375 -16.6064453125 1842.75 c 0,23,24
 -4.685546875 1865.18554688 -4.685546875 1865.18554688 -4.3564453125 1865.5 c 0,25,26
 7.42578125 1870.05566406 7.42578125 1870.05566406 58.6435546875 1867.25 c 1,27,28
 55.9658203125 1856.00390625 55.9658203125 1856.00390625 47.931640625 1833.01953125 c 0,29,30
 29.2861328125 1779.68261719 29.2861328125 1779.68261719 34.1435546875 1751.75 c 0,31,32
 43.36328125 1705.64941406 43.36328125 1705.64941406 94.6796875 1708.30078125 c 0,33,34
 124.15234375 1709.82421875 124.15234375 1709.82421875 144.393554688 1729 c 0,35,36
 181.754882812 1765.72167969 181.754882812 1765.72167969 202.143554688 1846.25 c 0,37,38
 203.497070312 1851.6640625 203.497070312 1851.6640625 204.658203125 1866.47167969 c 0,39,40
 207.162109375 1891.12207031 207.162109375 1891.12207031 210.893554688 1898.75 c 1,41,42
 215.700195312 1903.67480469 215.700195312 1903.67480469 231.893554688 1907.5 c 0,43,44
 240.643554688 1911 240.643554688 1911 259.018554688 1918 c 0,45,46
 277.907226562 1925.22558594 277.907226562 1925.22558594 286.143554688 1928.5 c 1,47,48
 286.143554688 1823.85742188 286.143554688 1823.85742188 304.53515625 1791.11230469 c 0,49,50
 306.360351562 1788.04492188 306.360351562 1788.04492188 307.143554688 1786.75 c 0,51,52
 333.219726562 1744.37695312 333.219726562 1744.37695312 385.028320312 1754.78027344 c 1,53,54
 418.950195312 1763.52246094 418.950195312 1763.52246094 434.893554688 1792 c 1,55,56
 461.350585938 1849.49121094 461.350585938 1849.49121094 434.893554688 1949.5 c 1,0,-1
EndSplineSet
EndChar

StartChar: afii57458
Encoding: 1618 1618 318
AltUni2: 00fe7e.ffffffff.0
Width: -8
VWidth: 1750
GlyphClass: 2
Flags: HW
AnchorPoint: "GposMark2BaseAnchorHamzaErabAbove_01_01" 131.047 1572.35 mark 0
AnchorPoint: "GposMark2BaseAnchorHamzaErabBelow_01_01" 131.047 1997.12 mark 0
AnchorPoint: "GposMark2BaseAnchorClassErabAbove_01_02" 131.047 1572.35 mark 0
AnchorPoint: "GposMark2MarkAnchorHamzaErabAbove_01_01" 131.047 1572.35 mark 0
AnchorPoint: "GposMark2MarkAnchorHamzaErabBelow_01_01" 131.047 1997.12 mark 0
AnchorPoint: "GposMark2MarkAnchorShaddaErabAbove_01_02" 131.047 1572.35 mark 0
AnchorPoint: "GposMark2MarkAnchorShaddaErabBelow_01_02" 131.047 1997.12 mark 0
LayerCount: 2
Fore
SplineSet
105.236328125 1991.5 m 1,0,1
 160.405273438 1997.12304688 160.405273438 1997.12304688 222.486328125 1949.5 c 0,2,3
 289.033203125 1899.34960938 289.033203125 1899.34960938 306.486328125 1835.75 c 0,4,5
 333.147460938 1735.37695312 333.147460938 1735.37695312 268.376953125 1649.23632812 c 0,6,7
 218.580078125 1585.60351562 218.580078125 1585.60351562 145.486328125 1575 c 1,8,9
 108.724609375 1572.35449219 108.724609375 1572.35449219 80.736328125 1576.75 c 1,10,11
 57.951171875 1582.2421875 57.951171875 1582.2421875 33.486328125 1594.25 c 0,12,13
 -71.0537109375 1652.328125 -71.0537109375 1652.328125 -38.103515625 1811.89941406 c 0,14,15
 -33.0712890625 1835.26171875 -33.0712890625 1835.26171875 -26.013671875 1856.75 c 0,16,17
 15.49609375 1976.60644531 15.49609375 1976.60644531 105.236328125 1991.5 c 1,0,1
92.986328125 1884.75 m 1,18,19
 69.3916015625 1878.21191406 69.3916015625 1878.21191406 52.736328125 1849.75 c 0,20,21
 11.41015625 1782.12597656 11.41015625 1782.12597656 36.986328125 1739.5 c 1,22,23
 66.6025390625 1695.60253906 66.6025390625 1695.60253906 143.736328125 1706.25 c 1,24,25
 213.440429688 1723.70703125 213.440429688 1723.70703125 225.986328125 1764 c 0,26,27
 241.701171875 1816.86035156 241.701171875 1816.86035156 176.678710938 1860.59277344 c 0,28,29
 131.9765625 1890.65722656 131.9765625 1890.65722656 92.986328125 1884.75 c 1,18,19
EndSplineSet
EndChar

StartChar: uni0654
Encoding: 1620 1620 320
Width: 114
VWidth: 1750
GlyphClass: 2
Flags: HW
AnchorPoint: "GposMark2BaseAnchorClassErabAbove_01_02" 204.75 1575 mark 0
AnchorPoint: "GposMark2MarkAnchorHamzaErabAbove_01_01" 204.75 2173.02 basemark 0
AnchorPoint: "GposMark2MarkAnchorHamzaErabBelow_01_01" 204.75 1425 basemark 0
LayerCount: 2
Fore
SplineSet
85.75 1711.5 m 1,0,1
 42.7744140625 1755.90429688 42.7744140625 1755.90429688 31.5 1793.75 c 0,2,3
 2.9580078125 1886.17285156 2.9580078125 1886.17285156 82.57421875 1961.38183594 c 0,4,5
 149.858398438 2023.02441406 149.858398438 2023.02441406 231 2017.75 c 0,6,7
 289.8203125 2013.9609375 289.8203125 2013.9609375 329 1991.5 c 0,8,9
 351.790039062 1976.60058594 351.790039062 1976.60058594 355.25 1970.5 c 0,10,11
 355.25 1967 355.25 1967 355.25 1963.5 c 128,-1,12
 355.25 1960 355.25 1960 352.625 1954.75 c 2,13,-1
 350 1949.5 l 2,14,15
 346.5 1940.75 346.5 1940.75 339.5 1922.375 c 0,16,17
 332.274414062 1903.48632812 332.274414062 1903.48632812 329 1895.25 c 1,18,19
 232.125 1913.4140625 232.125 1913.4140625 220.387695312 1913.62988281 c 0,20,21
 186.677734375 1914.24902344 186.677734375 1914.24902344 159.25 1902.25 c 0,22,23
 123.874023438 1886.58496094 123.874023438 1886.58496094 112 1865.5 c 0,24,25
 92.1728515625 1823.86328125 92.1728515625 1823.86328125 143.28125 1790.65136719 c 0,26,27
 152.830078125 1784.88183594 152.830078125 1784.88183594 161 1781.5 c 0,28,29
 226.985351562 1757.18945312 226.985351562 1757.18945312 338.374023438 1793.03417969 c 0,30,31
 414.334960938 1817.16796875 414.334960938 1817.16796875 444.5 1821.75 c 1,32,-1
 444.5 1730.75 l 1,33,-1
 442.75 1697.5 l 1,34,-1
 411.25 1687 l 1,35,-1
 322 1664.25 l 1,36,-1
 80.5 1603 l 1,37,-1
 -35 1575 l 1,38,-1
 -35 1638 l 1,39,-1
 -33.25 1664.25 l 1,40,-1
 -3.5 1678.25 l 1,41,-1
 85.75 1711.5 l 1,0,1
EndSplineSet
EndChar

StartChar: uni0655
Encoding: 1621 1621 321
Width: 114
VWidth: 1750
GlyphClass: 2
Flags: HW
AnchorPoint: "GposMark2BaseAnchorClassErabBelow_01_02" -15.25 -141.726 mark 0
LayerCount: 2
Fore
SplineSet
-134.25 -453.25 m 1,0,1
 -177.225585938 -408.845703125 -177.225585938 -408.845703125 -188.5 -371 c 0,2,3
 -217.041992188 -278.577148438 -217.041992188 -278.577148438 -137.42578125 -203.368164062 c 0,4,5
 -70.1416015625 -141.725585938 -70.1416015625 -141.725585938 11 -147 c 0,6,7
 69.8203125 -150.7890625 69.8203125 -150.7890625 109 -173.25 c 0,8,9
 132.487304688 -187.341796875 132.487304688 -187.341796875 135.25 -194.25 c 0,10,11
 135.25 -197.75 135.25 -197.75 135.25 -201.25 c 128,-1,12
 135.25 -204.75 135.25 -204.75 132.625 -210 c 2,13,-1
 130 -215.25 l 2,14,15
 126.5 -224 126.5 -224 119.5 -242.375 c 0,16,17
 112.274414062 -261.263671875 112.274414062 -261.263671875 109 -269.5 c 1,18,19
 12.125 -251.3359375 12.125 -251.3359375 0.3876953125 -251.120117188 c 0,20,21
 -34.033203125 -251.263671875 -34.033203125 -251.263671875 -60.75 -262.5 c 0,22,23
 -96.1259765625 -278.165039062 -96.1259765625 -278.165039062 -108 -299.25 c 0,24,25
 -127.827148438 -340.88671875 -127.827148438 -340.88671875 -76.71875 -374.098632812 c 0,26,27
 -67.169921875 -379.868164062 -67.169921875 -379.868164062 -59 -383.25 c 0,28,29
 6.9853515625 -407.560546875 6.9853515625 -407.560546875 118.374023438 -371.715820312 c 0,30,31
 194.334960938 -347.58203125 194.334960938 -347.58203125 224.5 -343 c 1,32,-1
 224.5 -434 l 1,33,-1
 222.75 -467.25 l 1,34,-1
 191.25 -477.75 l 1,35,-1
 102 -500.5 l 1,36,-1
 -139.5 -561.75 l 1,37,-1
 -255 -589.75 l 1,38,-1
 -255 -526.75 l 1,39,-1
 -253.25 -500.5 l 1,40,-1
 -223.5 -486.5 l 1,41,-1
 -134.25 -453.25 l 1,0,1
EndSplineSet
EndChar

StartChar: uni0656
Encoding: 1622 1622 322
Width: 30
VWidth: 1750
GlyphClass: 2
Flags: HW
AnchorPoint: "GposMark2BaseAnchorClassErabBelow_01_02" -45.5 -145.25 mark 0
LayerCount: 2
Fore
SplineSet
-112 -173.25 m 1,0,-1
 21 -145.25 l 1,1,-1
 21 -469 l 1,2,-1
 21 -553 l 1,3,-1
 19.25 -582.75 l 1,4,-1
 -7 -591.5 l 1,5,-1
 -75.25 -605.5 l 1,6,-1
 -84 -505.75 l 1,7,-1
 -101.5 -290.5 l 1,8,-1
 -112 -173.25 l 1,0,-1
EndSplineSet
EndChar

StartChar: uni0670
Encoding: 1648 1648 326
Width: 30
VWidth: 1750
GlyphClass: 2
Flags: HW
AnchorPoint: "GposMark2BaseAnchorHamzaErabAbove_01_01" 121.5 1573.25 mark 0
AnchorPoint: "GposMark2BaseAnchorHamzaErabBelow_01_01" 121.5 2033.5 mark 0
AnchorPoint: "GposMark2BaseAnchorClassErabAbove_01_02" 121.5 1573.25 mark 0
AnchorPoint: "GposMark2MarkAnchorHamzaErabAbove_01_01" 121.5 1573.25 mark 0
AnchorPoint: "GposMark2MarkAnchorHamzaErabBelow_01_01" 121.5 2033.5 mark 0
AnchorPoint: "GposMark2MarkAnchorShaddaErabAbove_01_02" 121.5 1573.25 mark 0
AnchorPoint: "GposMark2MarkAnchorShaddaErabBelow_01_02" 121.5 2033.5 mark 0
LayerCount: 2
Fore
SplineSet
55 2005.5 m 1,0,-1
 188 2033.5 l 1,1,-1
 188 1709.75 l 1,2,-1
 188 1625.75 l 1,3,-1
 186.25 1596 l 1,4,-1
 160 1587.25 l 1,5,-1
 91.75 1573.25 l 1,6,-1
 83 1673 l 1,7,-1
 65.5 1888.25 l 1,8,-1
 55 2005.5 l 1,0,-1
EndSplineSet
EndChar

StartChar: uni0674
Encoding: 1652 1652 327
Width: 110
GlyphClass: 2
Flags: HW
AnchorPoint: "GposMark2BaseAnchorClassErabAbove_01_02" 359.5 1014 mark 0
AnchorPoint: "GposMark2MarkAnchorHamzaErabAbove_01_01" 359.5 1579 basemark 0
AnchorPoint: "GposMark2MarkAnchorHamzaErabBelow_01_01" 359.5 864 basemark 0
LayerCount: 2
Fore
SplineSet
533 1178 m 2,0,1
 528 1160 528 1160 521 1145 c 128,-1,2
 514 1130 514 1130 509 1129 c 0,3,4
 461 1118 461 1118 421 1109 c 128,-1,5
 381 1100 381 1100 363 1095 c 0,6,7
 317 1082 317 1082 274 1062 c 128,-1,8
 231 1042 231 1042 196 1018 c 1,9,10
 192 1014 192 1014 188 1014 c 0,11,12
 185 1014 185 1014 180 1018 c 128,-1,13
 175 1022 175 1022 175 1025 c 256,14,15
 175 1028 175 1028 180 1032 c 1,16,-1
 180 1031 l 1,17,18
 191 1051 191 1051 217 1076 c 128,-1,19
 243 1101 243 1101 283 1136 c 1,20,21
 195 1171 195 1171 195 1233 c 0,22,23
 195 1282 195 1282 269 1355 c 1,24,25
 346 1429 346 1429 410 1429 c 0,26,27
 421 1429 421 1429 433.5 1425.5 c 128,-1,28
 446 1422 446 1422 456 1415.5 c 128,-1,29
 466 1409 466 1409 472.5 1400.5 c 128,-1,30
 479 1392 479 1392 479 1382 c 0,31,32
 479 1368 479 1368 475.5 1353.5 c 128,-1,33
 472 1339 472 1339 466 1327 c 128,-1,34
 460 1315 460 1315 452.5 1307.5 c 128,-1,35
 445 1300 445 1300 437 1300 c 0,36,37
 433 1300 433 1300 425.5 1307.5 c 128,-1,38
 418 1315 418 1315 408 1323.5 c 128,-1,39
 398 1332 398 1332 385.5 1339.5 c 128,-1,40
 373 1347 373 1347 359 1347 c 256,41,42
 345 1347 345 1347 329 1339.5 c 128,-1,43
 313 1332 313 1332 299 1321.5 c 128,-1,44
 285 1311 285 1311 276 1299 c 128,-1,45
 267 1287 267 1287 267 1277 c 0,46,47
 267 1259 267 1259 279 1244 c 128,-1,48
 291 1229 291 1229 309.5 1218 c 128,-1,49
 328 1207 328 1207 352 1201 c 128,-1,50
 376 1195 376 1195 400 1195 c 0,51,52
 403 1195 403 1195 424 1200 c 128,-1,53
 445 1205 445 1205 470 1210.5 c 128,-1,54
 495 1216 495 1216 517 1221 c 128,-1,55
 539 1226 539 1226 544 1226 c 1,56,-1
 533 1178 l 2,0,1
EndSplineSet
EndChar

StartChar: afii57388
Encoding: 1548 1548 329
Width: 564
VWidth: 1750
GlyphClass: 2
Flags: W
LayerCount: 2
Fore
SplineSet
104 0 m 1,0,-1
 104 105 l 2,1,2
 104 275.814453125 104 275.814453125 122.760742188 340.748046875 c 0,3,4
 145.333007812 415.0625 145.333007812 415.0625 195 465.5 c 0,3,4
 217.412109375 486.938476562 217.412109375 486.938476562 251 504 c 0,5,6
 288.649414062 524.017578125 288.649414062 524.017578125 312.25 530.25 c 1,7,-1
 345.5 441 l 1,8,9
 265.198242188 405.036132812 265.198242188 405.036132812 237 372.75 c 1,10,11
 202.572265625 326.78515625 202.572265625 326.78515625 202 248.5 c 1,12,-1
 356 248.5 l 1,13,-1
 356 0 l 1,14,-1
 104 0 l 1,0,-1
EndSplineSet
EndChar

StartChar: afii57403
Encoding: 1563 1563 334
Width: 580
VWidth: 1750
GlyphClass: 2
Flags: W
LayerCount: 2
Fore
SplineSet
104 421.75 m 1,0,-1
 104 526.75 l 2,1,2
 104 697.564453125 104 697.564453125 122.760742188 762.498046875 c 0,3,4
 145.333007812 836.8125 145.333007812 836.8125 195 887.25 c 0,3,4
 217.412109375 908.688476562 217.412109375 908.688476562 251 925.75 c 0,5,6
 288.649414062 945.767578125 288.649414062 945.767578125 312.25 952 c 1,7,-1
 345.5 862.75 l 1,8,9
 265.198242188 826.786132812 265.198242188 826.786132812 237 794.5 c 1,10,11
 202.572265625 748.53515625 202.572265625 748.53515625 202 670.25 c 1,12,-1
 356 670.25 l 1,13,-1
 356 421.75 l 1,14,-1
 104 421.75 l 1,0,-1
104 267.75 m 1,15,-1
 371.75 267.75 l 1,16,-1
 371.75 -1.75 l 1,17,-1
 104 -1.75 l 1,18,-1
 104 267.75 l 1,15,-1
EndSplineSet
EndChar

StartChar: afii57407
Encoding: 1567 1567 335
Width: 1298
VWidth: 1750
GlyphClass: 2
Flags: W
LayerCount: 2
Fore
SplineSet
508.920898438 337.75 m 1,0,1
 508.920898438 443.579101562 508.920898438 443.579101562 507.5859375 452.846679688 c 0,2,3
 502.931640625 481.325195312 502.931640625 481.325195312 493.170898438 502.25 c 0,2,3
 476.97265625 534.544921875 476.97265625 534.544921875 424.920898438 579.25 c 0,4,5
 403.920898438 598.5 403.920898438 598.5 360.170898438 634.375 c 0,6,7
 315.8984375 670.837890625 315.8984375 670.837890625 295.420898438 689.5 c 0,6,7
 191.124023438 786.346679688 191.124023438 786.346679688 160.37890625 833.83984375 c 0,8,9
 157.309570312 838.680664062 157.309570312 838.680664062 155.420898438 841.75 c 0,8,9
 78.8095703125 968.706054688 78.8095703125 968.706054688 116.33984375 1128.58886719 c 0,10,11
 124.352539062 1161.42089844 124.352539062 1161.42089844 136.170898438 1190 c 0,10,11
 201.829101562 1355.20410156 201.829101562 1355.20410156 402.241210938 1415.65136719 c 0,12,13
 431.325195312 1424.22851562 431.325195312 1424.22851562 459.920898438 1429.75 c 0,12,13
 684.467773438 1475.42089844 684.467773438 1475.42089844 861.797851562 1384.4609375 c 0,14,15
 971.5703125 1328.15527344 971.5703125 1328.15527344 1030.42089844 1226.75 c 1,14,15
 1060.89160156 1168.28027344 1060.89160156 1168.28027344 1070.67089844 1132.25 c 0,16,17
 1089.60351562 1064.23242188 1089.60351562 1064.23242188 1089.92089844 1018.5 c 1,18,-1
 825.670898438 983.5 l 1,19,20
 820.873046875 1101.04492188 820.873046875 1101.04492188 742.03125 1174.55859375 c 0,21,22
 720.439453125 1193.90039062 720.439453125 1193.90039062 697.920898438 1205.75 c 0,21,22
 597.373046875 1256.02441406 597.373046875 1256.02441406 493.778320312 1210.609375 c 0,23,24
 424.258789062 1178.27734375 424.258789062 1178.27734375 393.420898438 1114.75 c 1,23,24
 379 1079.55371094 379 1079.55371094 375.920898438 1034.25 c 1,25,26
 375.486328125 966.693359375 375.486328125 966.693359375 452.920898438 889 c 0,27,28
 498.8203125 843.427734375 498.8203125 843.427734375 564.920898438 789.25 c 0,29,30
 645.387695312 725.3046875 645.387695312 725.3046875 662.920898438 707 c 0,31,32
 749.549804688 613.954101562 749.549804688 613.954101562 754.958984375 422.05078125 c 0,33,34
 755.676757812 394.83984375 755.676757812 394.83984375 755.670898438 337.75 c 1,33,-1
 508.920898438 337.75 l 1,0,1
486.170898438 231 m 1,34,-1
 753.920898438 231 l 1,35,-1
 753.920898438 -40.25 l 1,36,-1
 486.170898438 -40.25 l 1,37,-1
 486.170898438 231 l 1,34,-1
EndSplineSet
EndChar

StartChar: afii57409
Encoding: 1569 1569 336
AltUni2: 00fe80.ffffffff.0
Width: 840
VWidth: 1750
GlyphClass: 2
Flags: HW
AnchorPoint: "GposMark2BaseAnchorHamzaErabAbove_01_01" 342.567 774.086 basechar 0
AnchorPoint: "GposMark2BaseAnchorHamzaErabBelow_01_01" 342.567 -186.75 basechar 0
LayerCount: 2
Fore
SplineSet
145.25 171.5 m 1,0,1
 140.19921875 179.075195312 140.19921875 179.075195312 129.20703125 193.958007812 c 0,2,3
 102.1015625 231.626953125 102.1015625 231.626953125 94.5 252 c 0,4,5
 53.7890625 382.276367188 53.7890625 382.276367188 143.640625 494.473632812 c 0,6,7
 195.42578125 557.336914062 195.42578125 557.336914062 269.5 586.25 c 1,8,9
 376.364257812 624.0859375 376.364257812 624.0859375 497 572.25 c 0,10,11
 554.154296875 549.388671875 554.154296875 549.388671875 561.75 528.5 c 0,12,13
 562.211914062 522.563476562 562.211914062 522.563476562 553 493.5 c 0,14,15
 549.265625 480.056640625 549.265625 480.056640625 539.196289062 453.034179688 c 0,16,17
 525.55859375 415.676757812 525.55859375 415.676757812 521.5 397.25 c 1,18,19
 512.482421875 399.25390625 512.482421875 399.25390625 496.576171875 406.782226562 c 0,20,21
 483.752929688 412.612304688 483.752929688 412.612304688 477.75 414.75 c 0,22,23
 361.453125 448.842773438 361.453125 448.842773438 287 418.25 c 0,24,25
 211.724609375 386.40234375 211.724609375 386.40234375 224.467773438 338.290039062 c 0,26,27
 228.977539062 324.890625 228.977539062 324.890625 238 313.25 c 0,28,29
 271.212890625 275.69140625 271.212890625 275.69140625 357 264.25 c 0,30,31
 412.956054688 258.1953125 412.956054688 258.1953125 518 288.75 c 0,32,33
 545.125 297.5 545.125 297.5 600.25 315 c 0,34,35
 655.934570312 332.686523438 655.934570312 332.686523438 682.5 341.25 c 1,36,-1
 682.5 192.5 l 2,37,38
 682.5 189.283203125 682.5 189.283203125 683.26953125 179.62890625 c 0,39,40
 685.134765625 147.180664062 685.134765625 147.180664062 680.75 140 c 0,41,42
 679 136.5 679 136.5 672 133.875 c 128,-1,43
 665 131.25 665 131.25 659.75 130.375 c 128,-1,44
 654.5 129.5 654.5 129.5 644.875 127.75 c 2,45,-1
 635.25 126 l 2,46,47
 614.25 120.75 614.25 120.75 571.375 109.375 c 0,48,49
 527.947265625 97.87890625 527.947265625 97.87890625 507.5 92.75 c 0,50,51
 455 78.75 455 78.75 350 52.5 c 0,52,53
 244.416992188 26.0751953125 244.416992188 26.0751953125 192.5 12.25 c 0,54,55
 169.4375 6.484375 169.4375 6.484375 122.6953125 -6.0244140625 c 0,56,57
 40.4609375 -27.9423828125 40.4609375 -27.9423828125 0 -36.75 c 1,58,-1
 0 112 l 1,59,-1
 145.25 171.5 l 1,0,1
EndSplineSet
EndChar

StartChar: afii57410
Encoding: 1570 1570 337
AltUni2: 00fe81.ffffffff.0
Width: 509
VWidth: 1750
GlyphClass: 2
Flags: W
LayerCount: 2
Fore
SplineSet
567 1804.25 m 1,0,-1
 570.5 1804.25 l 1,1,2
 574.818359375 1794.05957031 574.818359375 1794.05957031 610.75 1727.25 c 0,3,4
 611.948242188 1724.25488281 611.948242188 1724.25488281 616.103515625 1717.24414062 c 0,5,6
 624.100585938 1702.19726562 624.100585938 1702.19726562 624.75 1695.75 c 0,5,6
 624.75 1692.25 624.75 1692.25 623 1687.875 c 0,7,8
 621.25 1683.5 621.25 1683.5 619.5 1680 c 0,9,10
 617.75 1676.5 617.75 1676.5 613.375 1670.375 c 0,11,12
 609 1664.25 609 1664.25 607.25 1662.5 c 0,13,14
 605.5 1660.75 605.5 1660.75 600.25 1654.625 c 2,15,-1
 595 1648.5 l 1,7,8
 544.7109375 1584.86621094 544.7109375 1584.86621094 458.5 1547 c 1,9,10
 393.068359375 1522.1484375 393.068359375 1522.1484375 332.5 1524.25 c 0,11,12
 314.927734375 1525.15917969 314.927734375 1525.15917969 168 1549.0546875 c 0,13,14
 84.0859375 1562.703125 84.0859375 1562.703125 28 1554 c 0,13,14
 -11.4404296875 1546.69628906 -11.4404296875 1546.69628906 -82.4248046875 1497.44824219 c 0,15,16
 -86.8740234375 1494.37890625 -86.8740234375 1494.37890625 -89.25 1492.75 c 1,15,16
 -98.97265625 1508.00488281 -98.97265625 1508.00488281 -147 1573.25 c 0,17,18
 -167.383789062 1600.33789062 -167.383789062 1600.33789062 -168 1604.75 c 0,19,20
 -166.76171875 1617.44628906 -166.76171875 1617.44628906 -134.75 1646.75 c 0,21,22
 -71.091796875 1708.72949219 -71.091796875 1708.72949219 12.25 1720.25 c 1,23,24
 69.6669921875 1726.32910156 69.6669921875 1726.32910156 219.489257812 1704.48535156 c 0,25,26
 365.279296875 1684.17480469 365.279296875 1684.17480469 449.75 1716.75 c 0,25,26
 487.521484375 1733.06738281 487.521484375 1733.06738281 509.25 1750 c 0,27,28
 548.399414062 1780.17675781 548.399414062 1780.17675781 567 1804.25 c 1,0,-1
161 -33.25 m 1,29,30
 160.869140625 89.1494140625 160.869140625 89.1494140625 143.5 318.5 c 0,31,32
 131.571289062 486.274414062 131.571289062 486.274414062 112 980 c 0,33,34
 103.141601562 1190.87890625 103.141601562 1190.87890625 99.75 1232 c 0,35,36
 98.875 1244.25 98.875 1244.25 98 1267.875 c 0,37,38
 97.04296875 1292.13671875 97.04296875 1292.13671875 96.25 1303.75 c 0,37,38
 92.615234375 1327.40722656 92.615234375 1327.40722656 96.25 1335.25 c 0,39,40
 98.1748046875 1337.17480469 98.1748046875 1337.17480469 105.330078125 1340.01757812 c 0,41,42
 111.671875 1342.85742188 111.671875 1342.85742188 113.75 1344 c 0,41,42
 139.158203125 1352.66601562 139.158203125 1352.66601562 159.25 1361.5 c 0,43,44
 176.680664062 1368.36621094 176.680664062 1368.36621094 212.353515625 1383.76953125 c 0,45,46
 296.208984375 1419.97558594 296.208984375 1419.97558594 337.75 1429.75 c 1,45,-1
 337.75 428.75 l 1,46,-1
 337.75 145.25 l 1,47,-1
 337.75 66.5 l 2,48,49
 337.026367188 33.6953125 337.026367188 33.6953125 336 31.5 c 0,50,51
 334.25 28 334.25 28 327.25 24.5 c 0,52,53
 320.25 21 320.25 21 307.125 17.5 c 2,54,-1
 294 14 l 2,52,53
 281.82421875 9.43359375 281.82421875 9.43359375 256.362304688 -1.2646484375 c 0,54,55
 191.559570312 -28.0556640625 191.559570312 -28.0556640625 161 -33.25 c 1,29,30
EndSplineSet
AlternateSubs2: "gsub_alternate_dfl_aalt_arab_FAR_Lookup_01_Subtable_01" uniFE82 afii57410
Substitution2: "gsub_single_rtl_fina_arab_FAR_Lookup_01_Subtable_01" uniFE82
PairPos2: "gpos_pair_dfl_kern_arab_FAR_Lookup_01_Subtable_01" gafarabic dx=0 dy=0 dh=0 dv=0 dx=0 dy=0 dh=0 dv=0
EndChar

StartChar: uniFE83
Encoding: 1571 1571 339
AltUni2: 00fe83.ffffffff.0
Width: 558
VWidth: 1750
GlyphClass: 2
Flags: W
LayerCount: 2
Fore
SplineSet
187.75 -33.25 m 1,0,1
 187.75 1.451171875 187.75 1.451171875 171.01953125 295.8984375 c 0,2,3
 169.4609375 323.780273438 169.4609375 323.780273438 168.5 346.5 c 0,2,3
 147.813476562 837.799804688 147.813476562 837.799804688 138.75 973 c 0,4,5
 124.842773438 1152.03125 124.842773438 1152.03125 124.75 1244.25 c 0,6,7
 124.75 1255.625 124.75 1255.625 123 1277.5 c 0,8,9
 121.334960938 1300.01660156 121.334960938 1300.01660156 121.25 1310.75 c 0,8,9
 121.921875 1332.36230469 121.921875 1332.36230469 123 1335.25 c 0,10,11
 124.670898438 1336.20410156 124.670898438 1336.20410156 140.5 1344 c 0,12,13
 147.5 1346.625 147.5 1346.625 162.375 1351.875 c 0,14,15
 177.748046875 1357.33496094 177.748046875 1357.33496094 184.25 1359.75 c 0,14,15
 321.080078125 1417.79882812 321.080078125 1417.79882812 343.09765625 1424.18261719 c 0,16,17
 354.928710938 1427.51074219 354.928710938 1427.51074219 364.5 1429.75 c 1,16,-1
 364.5 428.75 l 1,17,-1
 364.5 145.25 l 1,18,-1
 364.5 66.5 l 2,19,20
 363.776367188 33.6953125 363.776367188 33.6953125 362.75 31.5 c 0,21,22
 361 28 361 28 354 24.5 c 0,23,24
 347 21 347 21 333.875 17.5 c 2,25,-1
 320.75 14 l 2,23,24
 308.57421875 9.43359375 308.57421875 9.43359375 283.112304688 -1.2646484375 c 0,25,26
 218.81640625 -28.279296875 218.81640625 -28.279296875 187.75 -33.25 c 1,0,1
124.75 1653.75 m 1,0,1
 81.7744140625 1698.15429688 81.7744140625 1698.15429688 70.5 1736 c 0,2,3
 41.9580078125 1828.42285156 41.9580078125 1828.42285156 121.57421875 1903.63183594 c 0,4,5
 188.858398438 1965.27441406 188.858398438 1965.27441406 270 1960 c 0,4,5
 328.8203125 1956.2109375 328.8203125 1956.2109375 368 1933.75 c 0,6,7
 391.487304688 1919.65820312 391.487304688 1919.65820312 394.25 1912.75 c 0,8,9
 394.25 1909.25 394.25 1909.25 394.25 1905.75 c 0,10,11
 394.25 1902.25 394.25 1902.25 391.625 1897 c 2,12,-1
 389 1891.75 l 2,10,11
 385.5 1883 385.5 1883 378.5 1864.625 c 0,12,13
 371.274414062 1845.73632812 371.274414062 1845.73632812 368 1837.5 c 1,12,13
 271.125 1855.6640625 271.125 1855.6640625 259.387695312 1855.87988281 c 0,14,15
 225.677734375 1856.49902344 225.677734375 1856.49902344 198.25 1844.5 c 0,14,15
 162.874023438 1828.83496094 162.874023438 1828.83496094 151 1807.75 c 0,16,17
 131.172851562 1766.11328125 131.172851562 1766.11328125 182.28125 1732.90136719 c 0,18,19
 191.830078125 1727.13183594 191.830078125 1727.13183594 200 1723.75 c 0,18,19
 265.985351562 1699.43945312 265.985351562 1699.43945312 377.374023438 1735.28417969 c 0,20,21
 453.334960938 1759.41796875 453.334960938 1759.41796875 483.5 1764 c 1,20,-1
 483.5 1673 l 1,21,-1
 481.75 1639.75 l 1,22,-1
 450.25 1629.25 l 1,23,-1
 361 1606.5 l 1,24,-1
 119.5 1545.25 l 1,25,-1
 4 1517.25 l 1,26,-1
 4 1580.25 l 1,27,-1
 5.75 1606.5 l 1,28,-1
 35.5 1620.5 l 1,29,-1
 124.75 1653.75 l 1,0,1
EndSplineSet
AlternateSubs2: "gsub_alternate_dfl_aalt_arab_FAR_Lookup_01_Subtable_01" uniFE84 uniFE83
Substitution2: "gsub_single_rtl_fina_arab_FAR_Lookup_01_Subtable_01" uniFE84
EndChar

StartChar: uniFE84
Encoding: 65156 65156 340
Width: 483
VWidth: 1750
GlyphClass: 2
Flags: W
LayerCount: 2
Fore
SplineSet
515.25 0 m 1,0,1
 351.426757812 0 351.426757812 0 292.319335938 15.017578125 c 0,2,3
 261.131835938 23.287109375 261.131835938 23.287109375 235.25 35 c 0,2,3
 87.3037109375 104.330078125 87.3037109375 104.330078125 58.5 316.75 c 0,4,5
 42.1513671875 426.080078125 42.1513671875 426.080078125 36.4345703125 724.049804688 c 0,6,7
 34.533203125 818.999023438 34.533203125 818.999023438 30.5 882 c 0,6,7
 30.333984375 885.490234375 30.333984375 885.490234375 20 1214.5 c 0,8,9
 20 1229.375 20 1229.375 18.25 1258.25 c 0,10,11
 16.5654296875 1287.75292969 16.5654296875 1287.75292969 16.5 1302 c 0,10,11
 17.2578125 1333.1015625 17.2578125 1333.1015625 18.25 1335.25 c 0,12,13
 22.7666015625 1340.046875 22.7666015625 1340.046875 35.75 1344 c 2,14,-1
 79.5 1361.5 l 2,15,16
 96.4892578125 1368.40136719 96.4892578125 1368.40136719 130.950195312 1383.88867188 c 0,17,18
 211.919921875 1419.8984375 211.919921875 1419.8984375 252.75 1429.75 c 1,17,-1
 252.75 654.5 l 1,18,-1
 252.75 504 l 2,19,20
 253.893554688 380.094726562 253.893554688 380.094726562 293 329 c 0,21,22
 337.212890625 270.048828125 337.212890625 270.048828125 455.181640625 270.431640625 c 0,23,24
 464.947265625 270.462890625 464.947265625 270.462890625 484.407226562 270.84375 c 0,25,26
 505.6875 271.228515625 505.6875 271.228515625 515.25 271.25 c 1,23,-1
 515.25 0 l 1,0,1
133.75 1653.75 m 1,0,1
 90.7744140625 1698.15429688 90.7744140625 1698.15429688 79.5 1736 c 0,2,3
 50.9580078125 1828.42285156 50.9580078125 1828.42285156 130.57421875 1903.63183594 c 0,4,5
 197.858398438 1965.27441406 197.858398438 1965.27441406 279 1960 c 0,4,5
 337.8203125 1956.2109375 337.8203125 1956.2109375 377 1933.75 c 0,6,7
 400.487304688 1919.65820312 400.487304688 1919.65820312 403.25 1912.75 c 0,8,9
 403.25 1909.25 403.25 1909.25 403.25 1905.75 c 0,10,11
 403.25 1902.25 403.25 1902.25 400.625 1897 c 2,12,-1
 398 1891.75 l 2,10,11
 394.5 1883 394.5 1883 387.5 1864.625 c 0,12,13
 380.274414062 1845.73632812 380.274414062 1845.73632812 377 1837.5 c 1,12,13
 280.125 1855.6640625 280.125 1855.6640625 268.387695312 1855.87988281 c 0,14,15
 234.677734375 1856.49902344 234.677734375 1856.49902344 207.25 1844.5 c 0,14,15
 171.874023438 1828.83496094 171.874023438 1828.83496094 160 1807.75 c 0,16,17
 140.172851562 1766.11328125 140.172851562 1766.11328125 191.28125 1732.90136719 c 0,18,19
 200.830078125 1727.13183594 200.830078125 1727.13183594 209 1723.75 c 0,18,19
 274.985351562 1699.43945312 274.985351562 1699.43945312 386.374023438 1735.28417969 c 0,20,21
 462.334960938 1759.41796875 462.334960938 1759.41796875 492.5 1764 c 1,20,-1
 492.5 1673 l 1,21,-1
 490.75 1639.75 l 1,22,-1
 459.25 1629.25 l 1,23,-1
 370 1606.5 l 1,24,-1
 128.5 1545.25 l 1,25,-1
 13 1517.25 l 1,26,-1
 13 1580.25 l 1,27,-1
 14.75 1606.5 l 1,28,-1
 44.5 1620.5 l 1,29,-1
 133.75 1653.75 l 1,0,1
EndSplineSet
EndChar

StartChar: uniFE85
Encoding: 1572 1572 341
AltUni2: 00fe85.ffffffff.0
Width: 817
VWidth: 1750
GlyphClass: 2
Flags: W
LayerCount: 2
Fore
SplineSet
454.25 108.5 m 1,0,1
 444.977539062 106.181640625 444.977539062 106.181640625 427.875976562 99.529296875 c 0,2,3
 405.751953125 91.314453125 405.751953125 91.314453125 394.75 89.25 c 0,2,3
 236.686523438 52.2568359375 236.686523438 52.2568359375 138.375976562 117.74609375 c 0,4,5
 135.307617188 119.846679688 135.307617188 119.846679688 134 120.75 c 0,4,5
 66.1591796875 172.365234375 66.1591796875 172.365234375 53.5 278.25 c 1,6,7
 39.7001953125 424.310546875 39.7001953125 424.310546875 125.25 575.75 c 0,8,9
 160.85546875 635.823242188 160.85546875 635.823242188 195.25 666.75 c 0,10,11
 278.196289062 737.846679688 278.196289062 737.846679688 402.301757812 700.365234375 c 0,12,13
 460.040039062 682.07421875 460.040039062 682.07421875 501.5 645.75 c 0,12,13
 583.858398438 571.075195312 583.858398438 571.075195312 624 430.5 c 1,14,15
 674.887695312 243.493164062 674.887695312 243.493164062 631 73.5 c 0,16,17
 568.331054688 -160.276367188 568.331054688 -160.276367188 328.25 -360.5 c 0,18,19
 241.747070312 -431.114257812 241.747070312 -431.114257812 135.75 -483 c 1,20,21
 83.25 -504 83.25 -504 83.25 -504 c 1,22,23
 71.375 -510.396484375 71.375 -510.396484375 62.25 -509.25 c 1,24,25
 49.6064453125 -504.201171875 49.6064453125 -504.201171875 13.25 -465.5 c 0,26,27
 -2.150390625 -450.099609375 -2.150390625 -450.099609375 -34.0703125 -420.419921875 c 0,28,29
 -82.4111328125 -375.204101562 -82.4111328125 -375.204101562 -104 -351.75 c 1,28,29
 -62.41015625 -340.099609375 -62.41015625 -340.099609375 29 -290.5 c 0,30,31
 175.615234375 -210.401367188 175.615234375 -210.401367188 312.5 -87.5 c 1,32,33
 427.53515625 18.9267578125 427.53515625 18.9267578125 454.25 108.5 c 1,0,1
307.25 474.25 m 0,34,35
 259.564453125 468.2890625 259.564453125 468.2890625 228.9609375 417.471679688 c 1,36,37
 200.594726562 366.461914062 200.594726562 366.461914062 232 330.75 c 1,36,37
 270.749023438 291.8046875 270.749023438 291.8046875 379 304.5 c 0,38,39
 407.12109375 307.685546875 407.12109375 307.685546875 429.75 315 c 0,40,41
 444.594726562 321.022460938 444.594726562 321.022460938 447.25 323.75 c 0,42,43
 451.497070312 331.770507812 451.497070312 331.770507812 435 378 c 1,44,45
 404.045898438 450.2265625 404.045898438 450.2265625 345.928710938 470.015625 c 0,46,47
 325.69921875 476.08203125 325.69921875 476.08203125 307.25 474.25 c 0,34,35
302 964.25 m 1,0,1
 259.024414062 1008.65429688 259.024414062 1008.65429688 247.75 1046.5 c 0,2,3
 219.208007812 1138.92285156 219.208007812 1138.92285156 298.82421875 1214.13183594 c 0,4,5
 366.108398438 1275.77441406 366.108398438 1275.77441406 447.25 1270.5 c 0,4,5
 506.0703125 1266.7109375 506.0703125 1266.7109375 545.25 1244.25 c 0,6,7
 568.737304688 1230.15820312 568.737304688 1230.15820312 571.5 1223.25 c 0,8,9
 571.5 1219.75 571.5 1219.75 571.5 1216.25 c 0,10,11
 571.5 1212.75 571.5 1212.75 568.875 1207.5 c 2,12,-1
 566.25 1202.25 l 2,10,11
 562.75 1193.5 562.75 1193.5 555.75 1175.125 c 0,12,13
 548.524414062 1156.23632812 548.524414062 1156.23632812 545.25 1148 c 1,12,13
 448.375 1166.1640625 448.375 1166.1640625 436.637695312 1166.37988281 c 0,14,15
 402.216796875 1166.23632812 402.216796875 1166.23632812 375.5 1155 c 0,14,15
 340.124023438 1139.33496094 340.124023438 1139.33496094 328.25 1118.25 c 0,16,17
 308.422851562 1076.61328125 308.422851562 1076.61328125 359.53125 1043.40136719 c 0,18,19
 369.080078125 1037.63183594 369.080078125 1037.63183594 377.25 1034.25 c 0,18,19
 443.235351562 1009.93945312 443.235351562 1009.93945312 554.624023438 1045.78417969 c 0,20,21
 630.584960938 1069.91796875 630.584960938 1069.91796875 660.75 1074.5 c 1,20,-1
 660.75 983.5 l 1,21,-1
 659 950.25 l 1,22,-1
 627.5 939.75 l 1,23,-1
 538.25 917 l 1,24,-1
 296.75 855.75 l 1,25,-1
 181.25 827.75 l 1,26,-1
 181.25 890.75 l 1,27,-1
 183 917 l 1,28,-1
 212.75 931 l 1,29,-1
 302 964.25 l 1,0,1
EndSplineSet
AlternateSubs2: "gsub_alternate_dfl_aalt_arab_FAR_Lookup_01_Subtable_01" uniFE86 uniFE85
Substitution2: "gsub_single_rtl_fina_arab_FAR_Lookup_01_Subtable_01" uniFE86
EndChar

StartChar: uniFE86
Encoding: 65158 65158 342
Width: 684
VWidth: 1750
GlyphClass: 2
Flags: W
LayerCount: 2
Fore
SplineSet
397 -5.25 m 1,0,1
 251.53515625 -4.779296875 251.53515625 -4.779296875 164.25 19.25 c 1,2,3
 34.4521484375 58.3955078125 34.4521484375 58.3955078125 8.373046875 200.98046875 c 0,4,5
 3.3994140625 229.936523438 3.3994140625 229.936523438 3.25 259 c 0,4,5
 4.2216796875 394.525390625 4.2216796875 394.525390625 83.75 523.25 c 0,6,7
 132.438476562 604.594726562 132.438476562 604.594726562 201 631.75 c 1,8,9
 266.194335938 654.799804688 266.194335938 654.799804688 351.5 630 c 0,10,11
 394.653320312 616.544921875 394.653320312 616.544921875 433.75 586.25 c 1,12,13
 485.998046875 542.4296875 485.998046875 542.4296875 526.5 470.75 c 1,14,15
 573.514648438 382.73046875 573.514648438 382.73046875 587.75 271.25 c 1,16,-1
 715.5 271.25 l 1,17,-1
 715.5 0 l 1,18,-1
 621 0 l 2,19,20
 590.532226562 -1.0205078125 590.532226562 -1.0205078125 587.75 -3.5 c 0,21,22
 584.633789062 -6.837890625 584.633789062 -6.837890625 580.75 -22.75 c 0,23,24
 578.125 -30.625 578.125 -30.625 572.875 -45.5 c 0,25,26
 567.625 -60.375 567.625 -60.375 565 -68.25 c 0,25,26
 543.940429688 -129.938476562 543.940429688 -129.938476562 505.5 -190.75 c 0,27,28
 380.21875 -381.721679688 380.21875 -381.721679688 159 -512.75 c 0,29,30
 131.345703125 -529.408203125 131.345703125 -529.408203125 59.25 -563.5 c 0,31,32
 18.4169921875 -581 18.4169921875 -581 15.5 -581 c 0,33,34
 6.9384765625 -581 6.9384765625 -581 -22.595703125 -549.735351562 c 0,35,36
 -26.5419921875 -545.838867188 -26.5419921875 -545.838867188 -28.25 -544.25 c 0,35,36
 -43.125 -531.125 -43.125 -531.125 -71.125 -503.125 c 0,37,38
 -99.798828125 -474.65625 -99.798828125 -474.65625 -114 -462 c 0,37,38
 -150.32421875 -430.215820312 -150.32421875 -430.215820312 -156 -420 c 1,39,40
 51.337890625 -350.875976562 51.337890625 -350.875976562 269.25 -164.5 c 0,41,42
 378.651367188 -71.306640625 378.651367188 -71.306640625 397 -5.25 c 1,0,1
264 427 m 0,43,44
 215.213867188 421.086914062 215.213867188 421.086914062 183.490234375 371.055664062 c 1,45,46
 152.965820312 318.982421875 152.965820312 318.982421875 187 281.75 c 1,45,46
 227.528320312 244.948242188 227.528320312 244.948242188 332.25 257.25 c 0,47,48
 360.37109375 260.435546875 360.37109375 260.435546875 383 267.75 c 0,49,50
 397.844726562 273.772460938 397.844726562 273.772460938 400.5 276.5 c 0,51,52
 408.114257812 289.80859375 408.114257812 289.80859375 388.25 330.75 c 0,53,54
 351.786132812 409.755859375 351.786132812 409.755859375 292.172851562 424.759765625 c 0,55,56
 278.157226562 428.287109375 278.157226562 428.287109375 264 427 c 0,43,44
356.75 873.25 m 1,0,1
 313.774414062 917.654296875 313.774414062 917.654296875 302.5 955.5 c 0,2,3
 273.958007812 1047.92285156 273.958007812 1047.92285156 353.57421875 1123.13183594 c 0,4,5
 420.858398438 1184.77441406 420.858398438 1184.77441406 502 1179.5 c 0,4,5
 560.8203125 1175.7109375 560.8203125 1175.7109375 600 1153.25 c 0,6,7
 623.487304688 1139.15820312 623.487304688 1139.15820312 626.25 1132.25 c 0,8,9
 626.25 1128.75 626.25 1128.75 626.25 1125.25 c 0,10,11
 626.25 1121.75 626.25 1121.75 623.625 1116.5 c 2,12,-1
 621 1111.25 l 2,10,11
 617.5 1102.5 617.5 1102.5 610.5 1084.125 c 0,12,13
 603.274414062 1065.23632812 603.274414062 1065.23632812 600 1057 c 1,12,13
 503.125 1075.1640625 503.125 1075.1640625 491.387695312 1075.37988281 c 0,14,15
 456.966796875 1075.23632812 456.966796875 1075.23632812 430.25 1064 c 0,14,15
 394.874023438 1048.33496094 394.874023438 1048.33496094 383 1027.25 c 0,16,17
 363.172851562 985.61328125 363.172851562 985.61328125 414.28125 952.401367188 c 0,18,19
 423.830078125 946.631835938 423.830078125 946.631835938 432 943.25 c 0,18,19
 497.985351562 918.939453125 497.985351562 918.939453125 609.374023438 954.784179688 c 0,20,21
 685.334960938 978.91796875 685.334960938 978.91796875 715.5 983.5 c 1,20,-1
 715.5 892.5 l 1,21,-1
 713.75 859.25 l 1,22,-1
 682.25 848.75 l 1,23,-1
 593 826 l 1,24,-1
 351.5 764.75 l 1,25,-1
 236 736.75 l 1,26,-1
 236 799.75 l 1,27,-1
 237.75 826 l 1,28,-1
 267.5 840 l 1,29,-1
 356.75 873.25 l 1,0,1
EndSplineSet
EndChar

StartChar: uniFE87
Encoding: 1573 1573 343
AltUni2: 00fe87.ffffffff.0
Width: 562
VWidth: 1750
GlyphClass: 2
Flags: W
LayerCount: 2
Fore
SplineSet
245.75 -33.25 m 1,0,1
 245.75 1.451171875 245.75 1.451171875 229.01953125 295.8984375 c 0,2,3
 227.4609375 323.780273438 227.4609375 323.780273438 226.5 346.5 c 0,2,3
 205.813476562 837.799804688 205.813476562 837.799804688 196.75 973 c 0,4,5
 182.842773438 1152.03125 182.842773438 1152.03125 182.75 1244.25 c 0,6,7
 182.75 1255.625 182.75 1255.625 181 1277.5 c 0,8,9
 179.334960938 1300.01660156 179.334960938 1300.01660156 179.25 1310.75 c 0,8,9
 179.921875 1332.36230469 179.921875 1332.36230469 181 1335.25 c 0,10,11
 182.670898438 1336.20410156 182.670898438 1336.20410156 198.5 1344 c 0,12,13
 205.5 1346.625 205.5 1346.625 220.375 1351.875 c 0,14,15
 235.748046875 1357.33496094 235.748046875 1357.33496094 242.25 1359.75 c 0,14,15
 379.080078125 1417.79882812 379.080078125 1417.79882812 401.09765625 1424.18261719 c 0,16,17
 412.928710938 1427.51074219 412.928710938 1427.51074219 422.5 1429.75 c 1,16,-1
 422.5 428.75 l 1,17,-1
 422.5 145.25 l 1,18,-1
 422.5 66.5 l 2,19,20
 421.776367188 33.6953125 421.776367188 33.6953125 420.75 31.5 c 0,21,22
 419 28 419 28 412 24.5 c 0,23,24
 405 21 405 21 391.875 17.5 c 2,25,-1
 378.75 14 l 2,23,24
 366.57421875 9.43359375 366.57421875 9.43359375 341.112304688 -1.2646484375 c 0,25,26
 276.81640625 -28.279296875 276.81640625 -28.279296875 245.75 -33.25 c 1,0,1
182.75 -523.25 m 1,0,1
 139.774414062 -478.845703125 139.774414062 -478.845703125 128.5 -441 c 0,2,3
 99.9580078125 -348.577148438 99.9580078125 -348.577148438 179.57421875 -273.368164062 c 0,4,5
 246.858398438 -211.725585938 246.858398438 -211.725585938 328 -217 c 0,4,5
 386.8203125 -220.7890625 386.8203125 -220.7890625 426 -243.25 c 0,6,7
 449.487304688 -257.341796875 449.487304688 -257.341796875 452.25 -264.25 c 0,8,9
 452.25 -267.75 452.25 -267.75 452.25 -271.25 c 0,10,11
 452.25 -274.75 452.25 -274.75 449.625 -280 c 2,12,-1
 447 -285.25 l 2,10,11
 443.5 -294 443.5 -294 436.5 -312.375 c 0,12,13
 429.274414062 -331.263671875 429.274414062 -331.263671875 426 -339.5 c 1,12,13
 329.125 -321.3359375 329.125 -321.3359375 317.387695312 -321.120117188 c 0,14,15
 282.966796875 -321.263671875 282.966796875 -321.263671875 256.25 -332.5 c 0,14,15
 220.874023438 -348.165039062 220.874023438 -348.165039062 209 -369.25 c 0,16,17
 189.172851562 -410.88671875 189.172851562 -410.88671875 240.28125 -444.098632812 c 0,18,19
 249.830078125 -449.868164062 249.830078125 -449.868164062 258 -453.25 c 0,18,19
 323.985351562 -477.560546875 323.985351562 -477.560546875 435.374023438 -441.715820312 c 0,20,21
 511.334960938 -417.58203125 511.334960938 -417.58203125 541.5 -413 c 1,20,-1
 541.5 -504 l 1,21,-1
 539.75 -537.25 l 1,22,-1
 508.25 -547.75 l 1,23,-1
 419 -570.5 l 1,24,-1
 177.5 -631.75 l 1,25,-1
 62 -659.75 l 1,26,-1
 62 -596.75 l 1,27,-1
 63.75 -570.5 l 1,28,-1
 93.5 -556.5 l 1,29,-1
 182.75 -523.25 l 1,0,1
EndSplineSet
AlternateSubs2: "gsub_alternate_dfl_aalt_arab_FAR_Lookup_01_Subtable_01" uniFE88 uniFE87
Substitution2: "gsub_single_rtl_fina_arab_FAR_Lookup_01_Subtable_01" uniFE88
EndChar

StartChar: uniFE88
Encoding: 65160 65160 344
Width: 720
VWidth: 1750
GlyphClass: 2
Flags: W
LayerCount: 2
Fore
SplineSet
752.25 0 m 1,0,1
 588.426757812 0 588.426757812 0 529.319335938 15.017578125 c 0,2,3
 498.131835938 23.287109375 498.131835938 23.287109375 472.25 35 c 0,2,3
 324.303710938 104.330078125 324.303710938 104.330078125 295.5 316.75 c 0,4,5
 279.151367188 426.080078125 279.151367188 426.080078125 273.434570312 724.049804688 c 0,6,7
 271.533203125 818.999023438 271.533203125 818.999023438 267.5 882 c 0,6,7
 267.333984375 885.490234375 267.333984375 885.490234375 257 1214.5 c 0,8,9
 257 1229.375 257 1229.375 255.25 1258.25 c 0,10,11
 253.565429688 1287.75292969 253.565429688 1287.75292969 253.5 1302 c 0,10,11
 254.2578125 1333.1015625 254.2578125 1333.1015625 255.25 1335.25 c 0,12,13
 259.766601562 1340.046875 259.766601562 1340.046875 272.75 1344 c 2,14,-1
 316.5 1361.5 l 2,15,16
 333.489257812 1368.40136719 333.489257812 1368.40136719 367.950195312 1383.88867188 c 0,17,18
 448.919921875 1419.8984375 448.919921875 1419.8984375 489.75 1429.75 c 1,17,-1
 489.75 654.5 l 1,18,-1
 489.75 504 l 2,19,20
 490.893554688 380.094726562 490.893554688 380.094726562 530 329 c 0,21,22
 574.212890625 270.048828125 574.212890625 270.048828125 692.181640625 270.431640625 c 0,23,24
 701.947265625 270.462890625 701.947265625 270.462890625 721.407226562 270.84375 c 0,25,26
 742.6875 271.228515625 742.6875 271.228515625 752.25 271.25 c 1,23,-1
 752.25 0 l 1,0,1
181.75 -453.25 m 1,0,1
 138.774414062 -408.845703125 138.774414062 -408.845703125 127.5 -371 c 0,2,3
 98.9580078125 -278.577148438 98.9580078125 -278.577148438 178.57421875 -203.368164062 c 0,4,5
 245.858398438 -141.725585938 245.858398438 -141.725585938 327 -147 c 0,4,5
 385.8203125 -150.7890625 385.8203125 -150.7890625 425 -173.25 c 0,6,7
 448.487304688 -187.341796875 448.487304688 -187.341796875 451.25 -194.25 c 0,8,9
 451.25 -197.75 451.25 -197.75 451.25 -201.25 c 0,10,11
 451.25 -204.75 451.25 -204.75 448.625 -210 c 2,12,-1
 446 -215.25 l 2,10,11
 442.5 -224 442.5 -224 435.5 -242.375 c 0,12,13
 428.274414062 -261.263671875 428.274414062 -261.263671875 425 -269.5 c 1,12,13
 328.125 -251.3359375 328.125 -251.3359375 316.387695312 -251.120117188 c 0,14,15
 281.966796875 -251.263671875 281.966796875 -251.263671875 255.25 -262.5 c 0,14,15
 219.874023438 -278.165039062 219.874023438 -278.165039062 208 -299.25 c 0,16,17
 188.172851562 -340.88671875 188.172851562 -340.88671875 239.28125 -374.098632812 c 0,18,19
 248.830078125 -379.868164062 248.830078125 -379.868164062 257 -383.25 c 0,18,19
 322.985351562 -407.560546875 322.985351562 -407.560546875 434.374023438 -371.715820312 c 0,20,21
 510.334960938 -347.58203125 510.334960938 -347.58203125 540.5 -343 c 1,20,-1
 540.5 -434 l 1,21,-1
 538.75 -467.25 l 1,22,-1
 507.25 -477.75 l 1,23,-1
 418 -500.5 l 1,24,-1
 176.5 -561.75 l 1,25,-1
 61 -589.75 l 1,26,-1
 61 -526.75 l 1,27,-1
 62.75 -500.5 l 1,28,-1
 92.5 -486.5 l 1,29,-1
 181.75 -453.25 l 1,0,1
EndSplineSet
EndChar

StartChar: uniFE89
Encoding: 1574 1574 345
AltUni2: 00fe89.ffffffff.0
Width: 1494
VWidth: 1750
GlyphClass: 2
Flags: W
LayerCount: 2
Fore
SplineSet
252.5 357 m 1,0,1
 245.758789062 341.270507812 245.758789062 341.270507812 229.6640625 310.362304688 c 0,2,3
 207.938476562 268.10546875 207.938476562 268.10546875 200 246.75 c 0,2,3
 150.49609375 106.973632812 150.49609375 106.973632812 195.27734375 -9.12109375 c 0,4,5
 200.275390625 -21.5498046875 200.275390625 -21.5498046875 205.25 -31.5 c 0,4,5
 269.426757812 -149.110351562 269.426757812 -149.110351562 441.5 -178.5 c 0,6,7
 679.8984375 -219.514648438 679.8984375 -219.514648438 929.75 -119 c 0,8,9
 1057.31640625 -68.2333984375 1057.31640625 -68.2333984375 1108.25 -1.75 c 0,10,11
 1132.58691406 29.8876953125 1132.58691406 29.8876953125 1106.5703125 51.9541015625 c 0,12,13
 1099.40234375 56.98828125 1099.40234375 56.98828125 1092.5 59.5 c 0,12,13
 1072.44238281 66.185546875 1072.44238281 66.185546875 971.083007812 73.5126953125 c 0,14,15
 960.081054688 74.3837890625 960.081054688 74.3837890625 952.5 75.25 c 0,14,15
 933.239257812 77.1142578125 933.239257812 77.1142578125 890.490234375 79.115234375 c 0,16,17
 738.515625 86.228515625 738.515625 86.228515625 681.4296875 123.116210938 c 0,18,19
 644.037109375 148.870117188 644.037109375 148.870117188 625.25 187.25 c 0,16,17
 614.434570312 212.59375 614.434570312 212.59375 609.5 236.25 c 0,18,19
 604.25 273 604.25 273 609.5 309.75 c 0,20,21
 616.10546875 372.19921875 616.10546875 372.19921875 628.75 413 c 0,22,23
 660.866210938 516.215820312 660.866210938 516.215820312 749.5 614.25 c 0,24,25
 911.018554688 791.22265625 911.018554688 791.22265625 1113.5 806.75 c 1,26,27
 1219.27734375 811.874023438 1219.27734375 811.874023438 1290.25 777 c 0,28,29
 1331.10449219 758.422851562 1331.10449219 758.422851562 1337.5 747.25 c 0,30,31
 1340.30957031 739.758789062 1340.30957031 739.758789062 1324.64941406 690 c 0,32,33
 1323.80566406 687.07421875 1323.80566406 687.07421875 1323.5 686 c 0,32,33
 1306.05859375 614.329101562 1306.05859375 614.329101562 1278 514.5 c 1,34,35
 1268.375 517.125 1268.375 517.125 1249.125 523.25 c 0,36,37
 1229.29199219 529.485351562 1229.29199219 529.485351562 1220.25 532 c 0,36,37
 1023.36914062 568.7421875 1023.36914062 568.7421875 901.75 486.5 c 0,38,39
 840.844726562 446.34375 840.844726562 446.34375 821.25 395.5 c 0,40,41
 809.272460938 360.892578125 809.272460938 360.892578125 826.5 339.5 c 1,42,43
 842.328125 327.287109375 842.328125 327.287109375 872 323.75 c 0,44,45
 928.583007812 316.784179688 928.583007812 316.784179688 956 315 c 0,46,47
 1112.47265625 303.146484375 1112.47265625 303.146484375 1164.28710938 286.29296875 c 0,48,49
 1269.35449219 249.569335938 1269.35449219 249.569335938 1292 162.75 c 0,48,49
 1299 131.25 1299 131.25 1295.55664062 71.02734375 c 2,50,-1
 1295.5 70 l 1,50,51
 1281.12304688 -123.805664062 1281.12304688 -123.805664062 1120.5 -262.5 c 0,52,53
 873.540039062 -474.536132812 873.540039062 -474.536132812 508.71484375 -460.65234375 c 0,54,55
 503.109375 -460.424804688 503.109375 -460.424804688 499.25 -460.25 c 0,54,55
 370.228515625 -453.266601562 370.228515625 -453.266601562 298 -434 c 0,56,57
 201.716796875 -406.283203125 201.716796875 -406.283203125 138.75 -364 c 0,58,59
 -26.1220703125 -254.084960938 -26.1220703125 -254.084960938 -45.3701171875 -24.3427734375 c 0,60,61
 -46.25390625 -13.08984375 -46.25390625 -13.08984375 -46.75 -3.5 c 0,60,61
 -53.943359375 170.231445312 -53.943359375 170.231445312 16.25 327.25 c 0,62,63
 32.888671875 363.020507812 32.888671875 363.020507812 51.25 397.25 c 0,64,65
 52.3095703125 398.83984375 52.3095703125 398.83984375 54.5263671875 403.841796875 c 0,66,67
 61.3095703125 415.999023438 61.3095703125 415.999023438 65.25 418.25 c 0,66,67
 74.564453125 420.25390625 74.564453125 420.25390625 114.25 404.25 c 1,68,69
 217.376953125 372.301757812 217.376953125 372.301757812 252.5 357 c 1,0,1
68.75 771.75 m 1,0,1
 25.7744140625 816.154296875 25.7744140625 816.154296875 14.5 854 c 0,2,3
 -14.0419921875 946.422851562 -14.0419921875 946.422851562 65.57421875 1021.63183594 c 0,4,5
 132.858398438 1083.27441406 132.858398438 1083.27441406 214 1078 c 0,4,5
 272.8203125 1074.2109375 272.8203125 1074.2109375 312 1051.75 c 0,6,7
 335.487304688 1037.65820312 335.487304688 1037.65820312 338.25 1030.75 c 0,8,9
 338.25 1027.25 338.25 1027.25 338.25 1023.75 c 0,10,11
 338.25 1020.25 338.25 1020.25 335.625 1015 c 2,12,-1
 333 1009.75 l 2,10,11
 329.5 1001 329.5 1001 322.5 982.625 c 0,12,13
 315.274414062 963.736328125 315.274414062 963.736328125 312 955.5 c 1,12,13
 215.125 973.6640625 215.125 973.6640625 203.387695312 973.879882812 c 0,14,15
 168.966796875 973.736328125 168.966796875 973.736328125 142.25 962.5 c 0,14,15
 106.874023438 946.834960938 106.874023438 946.834960938 95 925.75 c 0,16,17
 75.1728515625 884.11328125 75.1728515625 884.11328125 126.28125 850.901367188 c 0,18,19
 135.830078125 845.131835938 135.830078125 845.131835938 144 841.75 c 0,18,19
 209.985351562 817.439453125 209.985351562 817.439453125 321.374023438 853.284179688 c 0,20,21
 397.334960938 877.41796875 397.334960938 877.41796875 427.5 882 c 1,20,-1
 427.5 791 l 1,21,-1
 425.75 757.75 l 1,22,-1
 394.25 747.25 l 1,23,-1
 305 724.5 l 1,24,-1
 63.5 663.25 l 1,25,-1
 -52 635.25 l 1,26,-1
 -52 698.25 l 1,27,-1
 -50.25 724.5 l 1,28,-1
 -20.5 738.5 l 1,29,-1
 68.75 771.75 l 1,0,1
EndSplineSet
AlternateSubs2: "gsub_alternate_dfl_aalt_arab_FAR_Lookup_01_Subtable_01" uniFE8A uniFE8B uniFE89 uniFE8C
Substitution2: "gsub_single_rtl_fina_arab_FAR_Lookup_01_Subtable_01" uniFE8A
Substitution2: "gsub_single_rtl_init_arab_FAR_Lookup_01_Subtable_01" uniFE8B
Substitution2: "gsub_single_rtl_medi_arab_FAR_Lookup_01_Subtable_01" uniFE8C
EndChar

StartChar: uniFE8A
Encoding: 65162 65162 346
Width: 1280
VWidth: 1750
GlyphClass: 2
Flags: W
LayerCount: 2
Fore
SplineSet
1311.25 0 m 1,0,1
 1250.875 0 1250.875 0 1130.125 8.75 c 0,2,3
 1008.79199219 17.4169921875 1008.79199219 17.4169921875 949 17.5 c 0,2,3
 889.0078125 17.087890625 889.0078125 17.087890625 861.5 10.5 c 1,4,5
 836.484375 1.8076171875 836.484375 1.8076171875 828.25 -10.5 c 1,6,7
 821.729492188 -28.3251953125 821.729492188 -28.3251953125 847.5 -38.5 c 0,8,9
 859.283203125 -43.9990234375 859.283203125 -43.9990234375 928.185546875 -54.83203125 c 0,10,11
 932.579101562 -55.5673828125 932.579101562 -55.5673828125 935 -56 c 0,10,11
 1069.48242188 -75.9873046875 1069.48242188 -75.9873046875 1075 -77 c 0,12,13
 1131.45019531 -83.8798828125 1131.45019531 -83.8798828125 1166 -99.75 c 0,14,15
 1238.03710938 -136.56640625 1238.03710938 -136.56640625 1248.25 -196 c 1,16,17
 1266.38378906 -336.049804688 1266.38378906 -336.049804688 1059.25 -476 c 1,18,19
 861.137695312 -606.84765625 861.137695312 -606.84765625 565.75 -607.25 c 0,20,21
 380.28125 -606.564453125 380.28125 -606.564453125 245.5 -551.25 c 1,22,23
 181.719726562 -522.899414062 181.719726562 -522.899414062 131.75 -481.25 c 0,24,25
 -23.4501953125 -350.462890625 -23.4501953125 -350.462890625 -24.953125 -107.861328125 c 0,26,27
 -25.0576171875 -18.705078125 -25.0576171875 -18.705078125 -3 66.5 c 0,26,27
 21.5576171875 159.936523438 21.5576171875 159.936523438 56.5 225.75 c 0,28,29
 58.873046875 229.310546875 58.873046875 229.310546875 64.69140625 241.83203125 c 0,30,31
 77.953125 268.549804688 77.953125 268.549804688 84.5 273 c 1,30,31
 90.3359375 274.104492188 90.3359375 274.104492188 131.75 259 c 0,32,33
 253.984375 215.086914062 253.984375 215.086914062 264.75 211.75 c 1,34,35
 259.82421875 195.986328125 259.82421875 195.986328125 245.501953125 165.499023438 c 0,36,37
 234.338867188 141.736328125 234.338867188 141.736328125 229.75 129.5 c 0,36,37
 159.97265625 -77.7314453125 159.97265625 -77.7314453125 233.25 -197.75 c 0,38,39
 266.5 -250.25 266.5 -250.25 323.375 -282.625 c 0,40,41
 380.25 -315 380.25 -315 442.375 -322.875 c 0,42,43
 504.5 -330.75 504.5 -330.75 572.75 -333.375 c 0,44,45
 641 -336 641 -336 696.866210938 -330.8359375 c 1,46,-1
 698.75 -330.75 l 2,40,41
 772.379882812 -327.596679688 772.379882812 -327.596679688 830 -318.5 c 0,42,43
 916.974609375 -305.735351562 916.974609375 -305.735351562 971.75 -287 c 1,44,45
 1015.61816406 -268.671875 1015.61816406 -268.671875 1026 -259 c 1,46,47
 1038.078125 -243.450195312 1038.078125 -243.450195312 1012 -234.5 c 0,48,49
 1007.25292969 -233.416015625 1007.25292969 -233.416015625 933.25 -224 c 0,50,51
 785.560546875 -207.216796875 785.560546875 -207.216796875 756.43359375 -199.506835938 c 0,52,53
 728.47265625 -191.811523438 728.47265625 -191.811523438 705.75 -182 c 0,52,53
 629.666992188 -149.321289062 629.666992188 -149.321289062 611.25 -84 c 1,54,55
 583.961914062 32.94921875 583.961914062 32.94921875 704.48828125 132.58203125 c 0,56,57
 726.697265625 150.547851562 726.697265625 150.547851562 749.5 164.5 c 0,56,57
 912.9140625 262.881835938 912.9140625 262.881835938 1198.6875 270.165039062 c 0,58,59
 1242.71386719 271.2421875 1242.71386719 271.2421875 1311.25 271.25 c 1,58,-1
 1311.25 0 l 1,0,1
68.75 500.5 m 1,0,1
 25.7744140625 544.904296875 25.7744140625 544.904296875 14.5 582.75 c 0,2,3
 -14.0419921875 675.172851562 -14.0419921875 675.172851562 65.57421875 750.381835938 c 0,4,5
 132.858398438 812.024414062 132.858398438 812.024414062 214 806.75 c 0,4,5
 272.8203125 802.9609375 272.8203125 802.9609375 312 780.5 c 0,6,7
 335.487304688 766.408203125 335.487304688 766.408203125 338.25 759.5 c 0,8,9
 338.25 756 338.25 756 338.25 752.5 c 0,10,11
 338.25 749 338.25 749 335.625 743.75 c 2,12,-1
 333 738.5 l 2,10,11
 329.5 729.75 329.5 729.75 322.5 711.375 c 0,12,13
 315.274414062 692.486328125 315.274414062 692.486328125 312 684.25 c 1,12,13
 215.125 702.4140625 215.125 702.4140625 203.387695312 702.629882812 c 0,14,15
 168.966796875 702.486328125 168.966796875 702.486328125 142.25 691.25 c 0,14,15
 106.874023438 675.584960938 106.874023438 675.584960938 95 654.5 c 0,16,17
 75.1728515625 612.86328125 75.1728515625 612.86328125 126.28125 579.651367188 c 0,18,19
 135.830078125 573.881835938 135.830078125 573.881835938 144 570.5 c 0,18,19
 209.985351562 546.189453125 209.985351562 546.189453125 321.374023438 582.034179688 c 0,20,21
 397.334960938 606.16796875 397.334960938 606.16796875 427.5 610.75 c 1,20,-1
 427.5 519.75 l 1,21,-1
 425.75 486.5 l 1,22,-1
 394.25 476 l 1,23,-1
 305 453.25 l 1,24,-1
 63.5 392 l 1,25,-1
 -52 364 l 1,26,-1
 -52 427 l 1,27,-1
 -50.25 453.25 l 1,28,-1
 -20.5 467.25 l 1,29,-1
 68.75 500.5 l 1,0,1
EndSplineSet
EndChar

StartChar: uniFE8B
Encoding: 65163 65163 347
Width: 642
VWidth: 1750
GlyphClass: 2
Flags: W
LayerCount: 2
Fore
SplineSet
160.5 1011.5 m 1,0,1
 114.919921875 1061.81835938 114.919921875 1061.81835938 104.5 1100.75 c 0,2,3
 81 1194.74804688 81 1194.74804688 163.950195312 1266.62890625 c 0,4,5
 230.982421875 1322.96777344 230.982421875 1322.96777344 309.25 1317.75 c 0,4,5
 364.616210938 1313.96191406 364.616210938 1313.96191406 403.75 1291.5 c 0,6,7
 427.237304688 1277.40820312 427.237304688 1277.40820312 430 1270.5 c 0,8,9
 430.298828125 1265.81542969 430.298828125 1265.81542969 424.75 1247.75 c 2,10,11
 403.75 1195.25 l 1,12,13
 299.903320312 1217.96679688 299.903320312 1217.96679688 259.927734375 1210.37207031 c 0,14,15
 244.697265625 1207.1171875 244.697265625 1207.1171875 232.25 1202.25 c 0,14,15
 201.762695312 1187.41015625 201.762695312 1187.41015625 188.5 1169 c 1,16,17
 168.055664062 1134.24511719 168.055664062 1134.24511719 206.473632812 1098.69335938 c 0,18,19
 215.509765625 1091.07324219 215.509765625 1091.07324219 223.5 1086.75 c 0,18,19
 290.047851562 1052.89257812 290.047851562 1052.89257812 404.329101562 1089.66015625 c 0,20,21
 492.626953125 1117.76171875 492.626953125 1117.76171875 519.25 1121.75 c 1,20,-1
 519.25 1030.75 l 1,21,-1
 517.5 997.5 l 1,22,-1
 486 987 l 1,23,-1
 396.75 964.25 l 1,24,-1
 155.25 903 l 1,25,-1
 39.75 875 l 1,26,-1
 39.75 938 l 1,27,-1
 41.5 964.25 l 1,28,-1
 73 978.25 l 1,29,-1
 160.5 1011.5 l 1,0,1
298.75 759.5 m 1,30,31
 310.659179688 752.543945312 310.659179688 752.543945312 332 726.25 c 0,32,33
 378.516601562 669.625976562 378.516601562 669.625976562 400.25 624.75 c 0,34,35
 484.619140625 456.012695312 484.619140625 456.012695312 449.669921875 284.805664062 c 0,36,37
 427.224609375 180.189453125 427.224609375 180.189453125 361.75 110.25 c 0,36,37
 264.852539062 8.42578125 264.852539062 8.42578125 52.1259765625 1.0498046875 c 0,38,39
 20.2958984375 0.005859375 20.2958984375 0.005859375 -32 0 c 1,38,-1
 -32 271.25 l 1,39,40
 168.577148438 271.37109375 168.577148438 271.37109375 192 273 c 0,41,42
 258.837890625 278.708007812 258.837890625 278.708007812 276 311.5 c 1,43,44
 288.325195312 339.41796875 288.325195312 339.41796875 262 385 c 0,45,46
 232.221679688 438.408203125 232.221679688 438.408203125 146.5 539 c 1,47,-1
 146.5 540.75 l 1,48,-1
 218.25 642.25 l 1,49,-1
 298.75 759.5 l 1,30,31
EndSplineSet
EndChar

StartChar: uniFE8C
Encoding: 65164 65164 348
Width: 611
VWidth: 1750
GlyphClass: 2
Flags: W
LayerCount: 2
Fore
SplineSet
193.75 855.75 m 1,0,1
 150.61328125 900.392578125 150.61328125 900.392578125 139.5 939.75 c 0,2,3
 115.323242188 1030.76757812 115.323242188 1030.76757812 193.158203125 1105.18359375 c 0,4,5
 253.575195312 1161.12792969 253.575195312 1161.12792969 326.75 1162 c 0,4,5
 390.36328125 1161.078125 390.36328125 1161.078125 435.25 1135.75 c 1,6,7
 461.609375 1118.84667969 461.609375 1118.84667969 465 1113 c 1,8,9
 465.223632812 1108.56640625 465.223632812 1108.56640625 458 1092 c 0,10,11
 455.4453125 1085.61425781 455.4453125 1085.61425781 450.780273438 1072.3125 c 0,12,13
 442.556640625 1048.86425781 442.556640625 1048.86425781 437 1037.75 c 1,12,13
 334.724609375 1071.8046875 334.724609375 1071.8046875 269 1046.5 c 0,14,15
 238.002929688 1032.75878906 238.002929688 1032.75878906 225.25 1015 c 0,16,17
 200.955078125 981.87109375 200.955078125 981.87109375 237.369140625 945.915039062 c 0,18,19
 241.75 941.963867188 241.75 941.963867188 244.5 939.75 c 0,18,19
 276.455078125 913.887695312 276.455078125 913.887695312 337.25 913.5 c 0,20,21
 382.198242188 912.4296875 382.198242188 912.4296875 496.932617188 949.779296875 c 0,22,23
 531.891601562 960.978515625 531.891601562 960.978515625 554.25 966 c 1,22,-1
 554.25 875 l 1,23,-1
 552.5 841.75 l 1,24,-1
 521 831.25 l 1,25,-1
 431.75 808.5 l 1,26,-1
 190.25 747.25 l 1,27,-1
 73 717.5 l 1,28,-1
 73 808.5 l 1,29,-1
 193.75 855.75 l 1,0,1
-32 271.25 m 1,30,31
 -19.013671875 271.25 -19.013671875 271.25 9.515625 270.29296875 c 0,32,33
 148.13671875 265.640625 148.13671875 265.640625 199.235351562 300.603515625 c 0,34,35
 207.30078125 306.479492188 207.30078125 306.479492188 213 311.5 c 0,32,33
 246.662109375 358.778320312 246.662109375 358.778320312 246.25 437.5 c 0,34,35
 246.25 440.81640625 246.25 440.81640625 245.443359375 449.654296875 c 0,36,37
 243.711914062 477.420898438 243.711914062 477.420898438 248 486.5 c 1,36,37
 252.633789062 492.174804688 252.633789062 492.174804688 295.25 504 c 0,38,39
 310.165039062 508.971679688 310.165039062 508.971679688 340.463867188 520.705078125 c 0,40,41
 407.5546875 546.264648438 407.5546875 546.264648438 440.5 551.25 c 1,40,41
 440.5 411.119140625 440.5 411.119140625 459.107421875 361.07421875 c 0,42,43
 484.12109375 299.62109375 484.12109375 299.62109375 536.75 278.25 c 1,42,43
 563.923828125 270.213867188 563.923828125 270.213867188 641.75 271.25 c 1,44,-1
 641.75 0 l 1,45,46
 509.576171875 0 509.576171875 0 460.580078125 18.8876953125 c 0,47,48
 422.263671875 34.6181640625 422.263671875 34.6181640625 395 61.25 c 0,47,48
 360.318359375 95.931640625 360.318359375 95.931640625 356.5 120.75 c 1,49,50
 305.041015625 66.2509765625 305.041015625 66.2509765625 286.5 54.25 c 0,51,52
 246.25 28 246.25 28 192.875 14.875 c 0,53,54
 139.5 1.75 139.5 1.75 106.25 0.875 c 0,55,56
 73 0 73 0 3.99609375 -0.20703125 c 0,57,58
 -19.75 0 -19.75 0 -32 0 c 1,53,-1
 -32 271.25 l 1,30,31
EndSplineSet
EndChar

StartChar: alefarabic
Encoding: 1575 1575 349
AltUni2: 00fe8d.ffffffff.0
Width: 503
VWidth: 1750
GlyphClass: 2
Flags: HW
AnchorPoint: "GposMark2BaseAnchorClassErabAbove_01_02" 225.625 1579.75 basechar 0
AnchorPoint: "GposMark2BaseAnchorClassErabBelow_01_02" 225.625 -183.25 basechar 0
LayerCount: 2
Fore
SplineSet
170.5 -33.25 m 1,0,1
 170.5 1.451171875 170.5 1.451171875 153.76953125 295.8984375 c 0,2,3
 152.2109375 323.780273438 152.2109375 323.780273438 151.25 346.5 c 0,4,5
 130.563476562 837.799804688 130.563476562 837.799804688 121.5 973 c 0,6,7
 107.592773438 1152.03125 107.592773438 1152.03125 107.5 1244.25 c 0,8,9
 107.5 1255.625 107.5 1255.625 105.75 1277.5 c 0,10,11
 104.084960938 1300.01660156 104.084960938 1300.01660156 104 1310.75 c 0,12,13
 104.671875 1332.36230469 104.671875 1332.36230469 105.75 1335.25 c 0,14,15
 107.420898438 1336.20410156 107.420898438 1336.20410156 123.25 1344 c 0,16,17
 130.25 1346.625 130.25 1346.625 145.125 1351.875 c 0,18,19
 160.498046875 1357.33496094 160.498046875 1357.33496094 167 1359.75 c 0,20,21
 303.830078125 1417.79882812 303.830078125 1417.79882812 325.84765625 1424.18261719 c 0,22,23
 337.678710938 1427.51074219 337.678710938 1427.51074219 347.25 1429.75 c 1,24,-1
 347.25 428.75 l 1,25,-1
 347.25 145.25 l 1,26,-1
 347.25 66.5 l 2,27,28
 346.526367188 33.6953125 346.526367188 33.6953125 345.5 31.5 c 0,29,30
 343.75 28 343.75 28 336.75 24.5 c 128,-1,31
 329.75 21 329.75 21 316.625 17.5 c 2,32,-1
 303.5 14 l 2,33,34
 291.32421875 9.43359375 291.32421875 9.43359375 265.862304688 -1.2646484375 c 0,35,36
 201.56640625 -28.279296875 201.56640625 -28.279296875 170.5 -33.25 c 1,0,1
EndSplineSet
AlternateSubs2: "gsub_alternate_dfl_aalt_arab_FAR_Lookup_01_Subtable_01" uniFE8E alefarabic
Substitution2: "gsub_single_rtl_fina_arab_FAR_Lookup_01_Subtable_01" uniFE8E
PairPos2: "gpos_pair_dfl_kern_arab_FAR_Lookup_01_Subtable_01" gafarabic dx=0 dy=0 dh=0 dv=0 dx=0 dy=0 dh=0 dv=0
EndChar

StartChar: uniFE8E
Encoding: 65166 65166 350
Width: 571
VWidth: 1750
GlyphClass: 2
Flags: HW
AnchorPoint: "GposMark2BaseAnchorClassErabAbove_01_02" 353.375 1579.75 basechar 0
AnchorPoint: "GposMark2BaseAnchorClassErabBelow_01_02" 353.375 -150 basechar 0
LayerCount: 2
Fore
SplineSet
602.75 0 m 1,0,1
 438.926757812 0 438.926757812 0 379.819335938 15.017578125 c 0,2,3
 348.631835938 23.287109375 348.631835938 23.287109375 322.75 35 c 0,4,5
 174.803710938 104.330078125 174.803710938 104.330078125 146 316.75 c 0,6,7
 129.651367188 426.080078125 129.651367188 426.080078125 123.934570312 724.049804688 c 0,8,9
 122.033203125 818.999023438 122.033203125 818.999023438 118 882 c 0,10,11
 117.833984375 885.490234375 117.833984375 885.490234375 107.5 1214.5 c 0,12,13
 107.5 1229.375 107.5 1229.375 105.75 1258.25 c 0,14,15
 104.065429688 1287.75292969 104.065429688 1287.75292969 104 1302 c 0,16,17
 104.7578125 1333.1015625 104.7578125 1333.1015625 105.75 1335.25 c 0,18,19
 110.266601562 1340.046875 110.266601562 1340.046875 123.25 1344 c 2,20,-1
 167 1361.5 l 2,21,22
 183.989257812 1368.40136719 183.989257812 1368.40136719 218.450195312 1383.88867188 c 0,23,24
 299.419921875 1419.8984375 299.419921875 1419.8984375 340.25 1429.75 c 1,25,-1
 340.25 654.5 l 1,26,-1
 340.25 504 l 2,27,28
 341.393554688 380.094726562 341.393554688 380.094726562 380.5 329 c 0,29,30
 424.712890625 270.048828125 424.712890625 270.048828125 542.681640625 270.431640625 c 0,31,32
 552.447265625 270.462890625 552.447265625 270.462890625 571.907226562 270.84375 c 0,33,34
 593.1875 271.228515625 593.1875 271.228515625 602.75 271.25 c 1,35,-1
 602.75 0 l 1,0,1
EndSplineSet
PairPos2: "gpos_pair_dfl_kern_arab_FAR_Lookup_01_Subtable_01" gafarabic dx=0 dy=0 dh=0 dv=0 dx=0 dy=0 dh=0 dv=0
EndChar

StartChar: afii57416
Encoding: 1576 1576 351
AltUni2: 00fe8f.ffffffff.0
Width: 1881
VWidth: 1750
GlyphClass: 2
Flags: HW
AnchorPoint: "GposMark2BaseAnchorClassErabAbove_01_02" 865.776 944.5 basechar 0
AnchorPoint: "GposMark2BaseAnchorClassErabBelow_01_02" 865.776 -741.5 basechar 0
LayerCount: 2
Fore
SplineSet
1568.82714844 794.5 m 1,0,1
 1622.64746094 754.575195312 1622.64746094 754.575195312 1670.32714844 656.25 c 1,2,3
 1754.43457031 490.248046875 1754.43457031 490.248046875 1709.94140625 324.221679688 c 0,4,5
 1695.15429688 271.158203125 1695.15429688 271.158203125 1668.57714844 227.5 c 0,6,7
 1614.12207031 141.512695312 1614.12207031 141.512695312 1514.57714844 84 c 0,8,9
 1376.87402344 6.04296875 1376.87402344 6.04296875 1155.82714844 -31.5 c 0,10,11
 957.6171875 -64.6357421875 957.6171875 -64.6357421875 718.327148438 -64.75 c 0,12,13
 432.184570312 -64.1728515625 432.184570312 -64.1728515625 273.827148438 -10.5 c 0,14,15
 184.8515625 19.8125 184.8515625 19.8125 125.077148438 64.75 c 1,16,17
 -22.8828125 181.884765625 -22.8828125 181.884765625 4.1865234375 393.991210938 c 0,18,19
 9.4443359375 433.067382812 9.4443359375 433.067382812 20.0771484375 470.75 c 0,20,21
 37.951171875 531.201171875 37.951171875 531.201171875 65.5771484375 595 c 0,22,23
 67.21484375 597.729492188 67.21484375 597.729492188 71.4052734375 607.479492188 c 0,24,25
 82.6904296875 631.676757812 82.6904296875 631.676757812 88.3271484375 635.25 c 0,26,27
 96.5126953125 637.836914062 96.5126953125 637.836914062 137.327148438 623 c 0,28,29
 221.91015625 594.94921875 221.91015625 594.94921875 263.327148438 584.5 c 1,30,31
 258.8203125 573.4375 258.8203125 573.4375 248.793945312 551.001953125 c 0,32,33
 215.643554688 475.286132812 215.643554688 475.286132812 212.577148438 435.75 c 0,34,35
 210.537109375 410.318359375 210.537109375 410.318359375 216.077148438 381.5 c 0,36,37
 248.264648438 244.704101562 248.264648438 244.704101562 489.1796875 218.576171875 c 0,38,39
 518.2734375 215.481445312 518.2734375 215.481445312 571.327148438 211.75 c 0,40,41
 953.141601562 184.768554688 953.141601562 184.768554688 1234.57714844 248.5 c 1,42,43
 1409.80566406 285.583007812 1409.80566406 285.583007812 1488.32714844 330.75 c 1,44,45
 1529.16601562 357.4609375 1529.16601562 357.4609375 1533.82714844 378 c 0,46,47
 1536.01757812 390.717773438 1536.01757812 390.717773438 1521.57714844 423.5 c 1,48,49
 1498.44140625 466.880859375 1498.44140625 466.880859375 1453.32714844 525 c 0,50,51
 1451.26953125 528.086914062 1451.26953125 528.086914062 1442.63378906 537.631835938 c 0,52,53
 1418.48535156 565.8046875 1418.48535156 565.8046875 1418.32714844 575.75 c 1,54,55
 1420.56835938 582.327148438 1420.56835938 582.327148438 1430.57714844 596.75 c 0,56,57
 1435.82714844 603.75 1435.82714844 603.75 1446.32714844 618.625 c 0,58,59
 1457.24707031 633.998046875 1457.24707031 633.998046875 1462.07714844 640.5 c 0,60,61
 1514.19140625 712.609375 1514.19140625 712.609375 1568.82714844 794.5 c 1,0,1
791.827148438 -245 m 1,62,-1
 1000.07714844 -386.75 l 1,63,-1
 958.077148438 -444.5 l 1,64,-1
 846.077148438 -591.5 l 1,65,-1
 637.827148438 -449.75 l 1,66,-1
 686.827148438 -383.25 l 1,67,-1
 791.827148438 -245 l 1,62,-1
EndSplineSet
AlternateSubs2: "gsub_alternate_dfl_aalt_arab_FAR_Lookup_01_Subtable_01" uniFE90 uniFE91 afii57416 uniFE92
Substitution2: "gsub_single_rtl_fina_arab_FAR_Lookup_01_Subtable_01" uniFE90
Substitution2: "gsub_single_rtl_init_arab_FAR_Lookup_01_Subtable_01" uniFE91
Substitution2: "gsub_single_rtl_medi_arab_FAR_Lookup_01_Subtable_01" uniFE92
EndChar

StartChar: uniFE90
Encoding: 65168 65168 352
Width: 1830
VWidth: 1750
GlyphClass: 2
Flags: HW
AnchorPoint: "GposMark2BaseAnchorClassErabAbove_01_02" 903.625 784.337 basechar 0
AnchorPoint: "GposMark2BaseAnchorClassErabBelow_01_02" 903.625 -738 basechar 0
LayerCount: 2
Fore
SplineSet
1531.57714844 136.5 m 1,0,1
 1514.10546875 102.244140625 1514.10546875 102.244140625 1451.07714844 66.5 c 1,2,3
 1353.15917969 7.6494140625 1353.15917969 7.6494140625 1186.82714844 -24.5 c 0,4,5
 969.479492188 -68.103515625 969.479492188 -68.103515625 716.077148438 -68.25 c 0,6,7
 538.102539062 -67.974609375 538.102539062 -67.974609375 416.827148438 -49 c 1,8,9
 190.69140625 -9.5771484375 190.69140625 -9.5771484375 91.3271484375 92.75 c 1,10,11
 -53.326171875 246.735351562 -53.326171875 246.735351562 31.13671875 500.309570312 c 0,12,13
 32.333984375 503.903320312 32.333984375 503.903320312 33.5771484375 507.5 c 0,14,15
 48.6005859375 551.89453125 48.6005859375 551.89453125 72.0771484375 602 c 0,16,17
 86.7275390625 629.606445312 86.7275390625 629.606445312 89.5771484375 631.75 c 0,18,19
 97.7626953125 634.336914062 97.7626953125 634.336914062 138.577148438 619.5 c 0,20,21
 155.376953125 614.599609375 155.376953125 614.599609375 188.977539062 603.6796875 c 0,22,23
 239.9609375 587.23828125 239.9609375 587.23828125 264.577148438 581 c 1,24,25
 220.645507812 471.171875 220.645507812 471.171875 215.760742188 441.028320312 c 0,26,27
 205.979492188 380.672851562 205.979492188 380.672851562 233.077148438 332.5 c 0,28,29
 284.668945312 242.213867188 284.668945312 242.213867188 477.438476562 218.342773438 c 0,30,31
 483.651367188 217.583984375 483.651367188 217.583984375 488.577148438 217 c 0,32,33
 626.830078125 199.544921875 626.830078125 199.544921875 901.577148438 206.5 c 0,34,35
 1138.12109375 214.009765625 1138.12109375 214.009765625 1223.70898438 230.9921875 c 0,36,37
 1228.90917969 232.041015625 1228.90917969 232.041015625 1232.32714844 232.75 c 0,38,39
 1400.73242188 271.401367188 1400.73242188 271.401367188 1437.07714844 348.25 c 1,40,41
 1447.81445312 375.536132812 1447.81445312 375.536132812 1447.57714844 456.75 c 1,42,-1
 1640.07714844 519.75 l 1,43,44
 1640.07714844 404.7578125 1640.07714844 404.7578125 1646.06347656 377.435546875 c 0,45,46
 1656.8046875 333.405273438 1656.8046875 333.405273438 1680.32714844 309.75 c 0,47,48
 1689.07714844 301 1689.07714844 301 1700.45214844 294 c 128,-1,49
 1711.82714844 287 1711.82714844 287 1726.70214844 282.625 c 128,-1,50
 1741.57714844 278.25 1741.57714844 278.25 1750.32714844 275.625 c 128,-1,51
 1759.07714844 273 1759.07714844 273 1780.07714844 272.125 c 128,-1,52
 1801.07714844 271.25 1801.07714844 271.25 1805.45214844 271.25 c 128,-1,53
 1809.82714844 271.25 1809.82714844 271.25 1835.20214844 271.25 c 2,54,-1
 1860.57714844 271.25 l 1,55,-1
 1860.57714844 0 l 1,56,57
 1715.90039062 0 1715.90039062 0 1660.76953125 19.6455078125 c 0,58,59
 1611.14257812 38.349609375 1611.14257812 38.349609375 1575.32714844 73.5 c 1,60,61
 1541.47558594 112.329101562 1541.47558594 112.329101562 1533.32714844 136.5 c 1,62,-1
 1531.57714844 136.5 l 1,0,1
737.077148438 -245 m 1,63,-1
 945.327148438 -386.75 l 1,64,-1
 903.327148438 -444.5 l 1,65,-1
 829.827148438 -540.75 l 1,66,-1
 803.577148438 -575.75 l 1,67,-1
 789.577148438 -588 l 1,68,-1
 773.827148438 -579.25 l 1,69,-1
 735.327148438 -553 l 1,70,-1
 583.077148438 -449.75 l 1,71,-1
 633.827148438 -381.5 l 1,72,-1
 737.077148438 -245 l 1,63,-1
EndSplineSet
EndChar

StartChar: uniFE91
Encoding: 65169 65169 353
Width: 635
VWidth: 1750
GlyphClass: 2
Flags: HW
AnchorPoint: "GposMark2BaseAnchorClassErabAbove_01_02" 226.31 909.5 basechar 0
AnchorPoint: "GposMark2BaseAnchorClassErabBelow_01_02" 226.31 -692.5 basechar 0
LayerCount: 2
Fore
SplineSet
298.75 759.5 m 1,0,1
 310.659179688 752.543945312 310.659179688 752.543945312 332 726.25 c 0,2,3
 378.516601562 669.625976562 378.516601562 669.625976562 400.25 624.75 c 0,4,5
 484.619140625 456.012695312 484.619140625 456.012695312 449.669921875 284.805664062 c 0,6,7
 427.224609375 180.189453125 427.224609375 180.189453125 361.75 110.25 c 0,8,9
 264.852539062 8.42578125 264.852539062 8.42578125 52.1259765625 1.0498046875 c 0,10,11
 20.2958984375 0.005859375 20.2958984375 0.005859375 -32 0 c 1,12,-1
 -32 271.25 l 1,13,14
 168.577148438 271.37109375 168.577148438 271.37109375 192 273 c 0,15,16
 258.837890625 278.708007812 258.837890625 278.708007812 276 311.5 c 1,17,18
 288.325195312 339.41796875 288.325195312 339.41796875 262 385 c 0,19,20
 232.221679688 438.408203125 232.221679688 438.408203125 146.5 539 c 1,21,-1
 146.5 540.75 l 1,22,-1
 218.25 642.25 l 1,23,-1
 298.75 759.5 l 1,0,1
118.5 -404.25 m 1,24,25
 129.55859375 -386.790039062 129.55859375 -386.790039062 221.826171875 -267.426757812 c 0,26,27
 227.96484375 -259.438476562 227.96484375 -259.438476562 232.25 -253.75 c 0,28,29
 236.625 -247.625 236.625 -247.625 246.25 -235.375 c 0,30,31
 256.219726562 -222.541992188 256.219726562 -222.541992188 260.25 -217 c 0,32,33
 268.962890625 -205.989257812 268.962890625 -205.989257812 274.25 -203 c 1,34,35
 280.790039062 -203.798828125 280.790039062 -203.798828125 305.75 -220.5 c 0,36,37
 383.870117188 -274.311523438 383.870117188 -274.311523438 391.5 -280 c 0,38,39
 402.087890625 -287.795898438 402.087890625 -287.795898438 456.25 -323.75 c 0,40,41
 458.0625 -325.5625 458.0625 -325.5625 464.432617188 -329.331054688 c 0,42,43
 476.810546875 -338.263671875 476.810546875 -338.263671875 479 -343 c 1,44,45
 479 -348.25 479 -348.25 473.75 -357 c 128,-1,46
 468.5 -365.75 468.5 -365.75 458 -377.125 c 2,47,-1
 447.5 -388.5 l 1,48,49
 418.16015625 -428.732421875 418.16015625 -428.732421875 360 -504 c 0,50,51
 358.169921875 -506.287109375 358.169921875 -506.287109375 353.231445312 -513.99609375 c 0,52,53
 335.33984375 -539.701171875 335.33984375 -539.701171875 326.75 -542.5 c 0,54,55
 321.5 -542.5 321.5 -542.5 311.231445312 -535.088867188 c 2,56,-1
 309.25 -533.75 l 2,57,58
 303.125 -529.375 303.125 -529.375 290 -520.625 c 0,59,60
 276.387695312 -511.477539062 276.387695312 -511.477539062 270.75 -507.5 c 0,61,62
 251.049804688 -494.592773438 251.049804688 -494.592773438 212.133789062 -466.638671875 c 0,63,64
 149.97265625 -422.25390625 149.97265625 -422.25390625 118.5 -404.25 c 1,24,25
EndSplineSet
EndChar

StartChar: uniFE92
Encoding: 65170 65170 354
Width: 607
VWidth: 1750
GlyphClass: 2
Flags: HW
AnchorPoint: "GposMark2BaseAnchorClassErabAbove_01_02" 303.125 701.25 basechar 0
AnchorPoint: "GposMark2BaseAnchorClassErabBelow_01_02" 303.125 -692.5 basechar 0
LayerCount: 2
Fore
SplineSet
-32 271.25 m 1,0,1
 -19.013671875 271.25 -19.013671875 271.25 9.515625 270.29296875 c 0,2,3
 148.13671875 265.640625 148.13671875 265.640625 199.235351562 300.603515625 c 0,4,5
 207.30078125 306.479492188 207.30078125 306.479492188 213 311.5 c 0,6,7
 246.662109375 358.778320312 246.662109375 358.778320312 246.25 437.5 c 0,8,9
 246.25 440.81640625 246.25 440.81640625 245.443359375 449.654296875 c 0,10,11
 243.711914062 477.420898438 243.711914062 477.420898438 248 486.5 c 1,12,13
 252.633789062 492.174804688 252.633789062 492.174804688 295.25 504 c 0,14,15
 310.165039062 508.971679688 310.165039062 508.971679688 340.463867188 520.705078125 c 0,16,17
 407.5546875 546.264648438 407.5546875 546.264648438 440.5 551.25 c 1,18,19
 440.5 411.119140625 440.5 411.119140625 459.107421875 361.07421875 c 0,20,21
 484.12109375 299.62109375 484.12109375 299.62109375 536.75 278.25 c 1,22,23
 560.291015625 270.98046875 560.291015625 270.98046875 638.25 271.25 c 1,24,-1
 638.25 0 l 1,25,26
 508.102539062 0 508.102539062 0 459.4765625 19.15625 c 0,27,28
 421.994140625 34.875 421.994140625 34.875 395 61.25 c 0,29,30
 360.318359375 95.931640625 360.318359375 95.931640625 356.5 120.75 c 1,31,32
 305.041015625 66.2509765625 305.041015625 66.2509765625 286.5 54.25 c 0,33,34
 246.25 28 246.25 28 192.875 14.875 c 128,-1,35
 139.5 1.75 139.5 1.75 106.25 0.875 c 128,-1,36
 73 0 73 0 3.99609375 -0.20703125 c 0,37,38
 -19.75 0 -19.75 0 -32 0 c 1,39,-1
 -32 271.25 l 1,0,1
118.5 -404.25 m 1,40,41
 129.55859375 -386.790039062 129.55859375 -386.790039062 221.826171875 -267.426757812 c 0,42,43
 227.96484375 -259.438476562 227.96484375 -259.438476562 232.25 -253.75 c 0,44,45
 236.625 -247.625 236.625 -247.625 246.25 -235.375 c 0,46,47
 256.219726562 -222.541992188 256.219726562 -222.541992188 260.25 -217 c 0,48,49
 268.962890625 -205.989257812 268.962890625 -205.989257812 274.25 -203 c 1,50,51
 280.790039062 -203.798828125 280.790039062 -203.798828125 305.75 -220.5 c 0,52,53
 383.870117188 -274.311523438 383.870117188 -274.311523438 391.5 -280 c 0,54,55
 402.087890625 -287.795898438 402.087890625 -287.795898438 456.25 -323.75 c 0,56,57
 458.0625 -325.5625 458.0625 -325.5625 464.432617188 -329.331054688 c 0,58,59
 476.810546875 -338.263671875 476.810546875 -338.263671875 479 -343 c 1,60,61
 479 -348.25 479 -348.25 473.75 -357 c 128,-1,62
 468.5 -365.75 468.5 -365.75 458 -377.125 c 2,63,-1
 447.5 -388.5 l 1,64,65
 418.16015625 -428.732421875 418.16015625 -428.732421875 360 -504 c 0,66,67
 358.169921875 -506.287109375 358.169921875 -506.287109375 353.231445312 -513.99609375 c 0,68,69
 335.33984375 -539.701171875 335.33984375 -539.701171875 326.75 -542.5 c 0,70,71
 321.5 -542.5 321.5 -542.5 311.231445312 -535.088867188 c 2,72,-1
 309.25 -533.75 l 2,73,74
 303.125 -529.375 303.125 -529.375 290 -520.625 c 0,75,76
 276.387695312 -511.477539062 276.387695312 -511.477539062 270.75 -507.5 c 0,77,78
 251.049804688 -494.592773438 251.049804688 -494.592773438 212.133789062 -466.638671875 c 0,79,80
 149.97265625 -422.25390625 149.97265625 -422.25390625 118.5 -404.25 c 1,40,41
EndSplineSet
EndChar

StartChar: afii57417
Encoding: 1577 1577 355
AltUni2: 00fe93.ffffffff.0
Width: 778
VWidth: 1750
GlyphClass: 2
Flags: HW
AnchorPoint: "GposMark2BaseAnchorClassErabAbove_01_02" 322.722 1475.83 basechar 0
AnchorPoint: "GposMark2BaseAnchorClassErabBelow_01_02" 322.722 -193.043 basechar 0
LayerCount: 2
Fore
SplineSet
67.2529296875 1310.75 m 1,0,1
 77.533203125 1306.33691406 77.533203125 1306.33691406 107.502929688 1284.5 c 0,2,3
 120.033203125 1276.55566406 120.033203125 1276.55566406 189.752929688 1228.5 c 0,4,5
 192.6640625 1226.55957031 192.6640625 1226.55957031 200.49609375 1220.48828125 c 0,6,7
 224.678710938 1202.5859375 224.678710938 1202.5859375 233.502929688 1200.5 c 1,8,9
 238.998046875 1201.890625 238.998046875 1201.890625 258.002929688 1230.25 c 2,10,-1
 305.252929688 1298.5 l 1,11,12
 327.657226562 1325.83398438 327.657226562 1325.83398438 326.252929688 1324.75 c 1,13,14
 336.71875 1324.35546875 336.71875 1324.35546875 375.252929688 1295 c 0,15,16
 399.752929688 1278.375 399.752929688 1278.375 447.002929688 1245.125 c 0,17,18
 494.891601562 1211.46972656 494.891601562 1211.46972656 518.752929688 1195.25 c 1,19,-1
 455.752929688 1109.5 l 1,20,-1
 391.002929688 1022 l 1,21,-1
 389.252929688 1022 l 1,22,-1
 231.752929688 1134 l 1,23,24
 224.619140625 1117.05664062 224.619140625 1117.05664062 173.887695312 1051.15722656 c 0,25,26
 168.532226562 1044.06933594 168.532226562 1044.06933594 165.252929688 1039.5 c 0,27,28
 146.28125 1009.51171875 146.28125 1009.51171875 140.752929688 1006.25 c 1,29,30
 131.475585938 1004.40234375 131.475585938 1004.40234375 95.2529296875 1034.25 c 1,31,32
 79.2109375 1044.54003906 79.2109375 1044.54003906 -18.4970703125 1111.25 c 0,33,34
 -55.1787109375 1134.46191406 -55.1787109375 1134.46191406 -56.9970703125 1139.25 c 0,35,36
 -57.314453125 1148.73242188 -57.314453125 1148.73242188 -27.2470703125 1184.75 c 1,37,-1
 67.2529296875 1310.75 l 1,0,1
249.252929688 826 m 1,38,39
 402.333007812 766.32421875 402.333007812 766.32421875 499.502929688 679 c 0,40,41
 600.874023438 587.911132812 600.874023438 587.911132812 643.002929688 483 c 0,42,43
 702.7578125 329.575195312 702.7578125 329.575195312 645.465820312 181.043945312 c 1,44,45
 597.578125 61.8212890625 597.578125 61.8212890625 490.752929688 10.5 c 1,46,47
 373.467773438 -43.04296875 373.467773438 -43.04296875 228.252929688 -14 c 1,48,49
 142.030273438 6.30859375 142.030273438 6.30859375 97.0029296875 52.5 c 0,50,51
 17.1669921875 136.897460938 17.1669921875 136.897460938 43.55078125 288.758789062 c 0,52,53
 44.986328125 296.65625 44.986328125 296.65625 46.2529296875 302.75 c 0,54,55
 68.7041015625 397.825195312 68.7041015625 397.825195312 123.252929688 498.75 c 0,56,57
 129.266601562 509.440429688 129.266601562 509.440429688 142.336914062 530.349609375 c 0,58,59
 163.759765625 565.05859375 163.759765625 565.05859375 172.252929688 582.75 c 1,60,-1
 123.252929688 605.5 l 1,61,-1
 249.252929688 826 l 1,38,39
308.752929688 505.75 m 1,62,63
 300.1640625 490.00390625 300.1640625 490.00390625 280.670898438 460.307617188 c 0,64,65
 252.508789062 416.7890625 252.508789062 416.7890625 242.252929688 393.75 c 0,66,67
 227.587890625 360.081054688 227.587890625 360.081054688 224.752929688 330.75 c 1,68,69
 225.251953125 305.88671875 225.251953125 305.88671875 228.252929688 295.75 c 0,70,71
 249.6328125 217.96875 249.6328125 217.96875 385.752929688 234.5 c 0,72,73
 452.958984375 243.037109375 452.958984375 243.037109375 476.752929688 273 c 0,74,75
 497.486328125 300.127929688 497.486328125 300.127929688 483.752929688 350 c 1,76,77
 473.840820312 377.771484375 473.840820312 377.771484375 461.002929688 395.5 c 0,78,79
 441.124023438 422.892578125 441.124023438 422.892578125 403.252929688 451.5 c 0,80,81
 334.854492188 500.688476562 334.854492188 500.688476562 308.752929688 505.75 c 1,62,63
EndSplineSet
AlternateSubs2: "gsub_alternate_dfl_aalt_arab_FAR_Lookup_01_Subtable_01" uniFE94 afii57417
Substitution2: "gsub_single_rtl_fina_arab_FAR_Lookup_01_Subtable_01" uniFE94
EndChar

StartChar: uniFE94
Encoding: 65172 65172 356
Width: 887
VWidth: 1750
GlyphClass: 2
Flags: HW
AnchorPoint: "GposMark2BaseAnchorClassErabAbove_01_02" 442.886 1611.25 basechar 0
AnchorPoint: "GposMark2BaseAnchorClassErabBelow_01_02" 442.886 -157.836 basechar 0
LayerCount: 2
Fore
SplineSet
310.06640625 1333.5 m 1,0,-1
 376.56640625 1428 l 1,1,-1
 401.06640625 1461.25 l 1,2,-1
 416.81640625 1452.5 l 1,3,-1
 450.06640625 1429.75 l 1,4,-1
 593.56640625 1331.75 l 1,5,-1
 555.06640625 1277.5 l 1,6,-1
 467.56640625 1158.5 l 1,7,-1
 409.81640625 1197 l 1,8,-1
 306.56640625 1270.5 l 1,9,-1
 280.31640625 1230.25 l 1,10,-1
 215.56640625 1139.25 l 1,11,-1
 14.31640625 1274 l 1,12,-1
 58.06640625 1333.5 l 1,13,-1
 142.06640625 1447.25 l 1,14,-1
 240.06640625 1380.75 l 1,15,-1
 308.31640625 1333.5 l 1,16,-1
 310.06640625 1333.5 l 1,0,-1
525.31640625 1076.25 m 1,17,18
 529.0546875 1068.13574219 529.0546875 1068.13574219 537.56640625 1022 c 2,19,-1
 562.06640625 904.75 l 2,20,21
 575.19140625 838.25 575.19140625 838.25 601.44140625 706.125 c 0,22,23
 627.806640625 573.40625 627.806640625 573.40625 640.81640625 507.5 c 0,24,25
 665.236328125 388.453125 665.236328125 388.453125 671.19921875 371.779296875 c 0,26,27
 693.079101562 314.377929688 693.079101562 314.377929688 728.31640625 290.5 c 0,28,29
 747.56640625 278.25 747.56640625 278.25 792.422851562 274.948242188 c 2,30,-1
 794.81640625 274.75 l 2,31,32
 838.57421875 271.250976562 838.57421875 271.250976562 919.06640625 271.25 c 1,33,-1
 919.06640625 0 l 1,34,35
 880.69921875 -7.8359375 880.69921875 -7.8359375 791.31640625 0 c 0,36,37
 778.936523438 0.8837890625 778.936523438 0.8837890625 753.369140625 1.763671875 c 0,38,39
 675.698242188 4.9814453125 675.698242188 4.9814453125 640.81640625 17.5 c 0,40,41
 559.4921875 51.0146484375 559.4921875 51.0146484375 514.81640625 161 c 0,42,43
 498.071289062 199.237304688 498.071289062 199.237304688 495.56640625 224 c 1,44,45
 379.021484375 125.782226562 379.021484375 125.782226562 171.81640625 145.25 c 0,46,47
 69.48046875 156.575195312 69.48046875 156.575195312 24.81640625 208.25 c 1,48,49
 -33.2939453125 282.561523438 -33.2939453125 282.561523438 0.31640625 409.5 c 0,50,51
 43.0283203125 567.934570312 43.0283203125 567.934570312 240.06640625 708.75 c 0,52,53
 271.543945312 730.866210938 271.543945312 730.866210938 329.31640625 768.25 c 0,54,55
 333.053710938 770.385742188 333.053710938 770.385742188 342.036132812 774.756835938 c 0,56,57
 363.999023438 786.076171875 363.999023438 786.076171875 371.31640625 792.75 c 0,58,59
 373.06640625 794.5 373.06640625 794.5 373.06640625 798.875 c 128,-1,60
 373.06640625 803.25 373.06640625 803.25 373.06640625 805.875 c 128,-1,61
 373.06640625 808.5 373.06640625 808.5 371.31640625 813.75 c 2,62,-1
 369.56640625 819 l 2,63,64
 367.81640625 827.75 367.81640625 827.75 363.44140625 846.125 c 0,65,66
 359.004882812 865.013671875 359.004882812 865.013671875 357.31640625 873.25 c 0,67,68
 352.649414062 891.916992188 352.649414062 891.916992188 355.56640625 897.75 c 0,69,70
 360.625976562 907.868164062 360.625976562 907.868164062 400.014648438 945.533203125 c 0,71,72
 405.280273438 950.779296875 405.280273438 950.779296875 408.06640625 953.75 c 0,73,74
 421.024414062 967.296875 421.024414062 967.296875 447.401367188 994.45703125 c 0,75,76
 500.2890625 1049.01367188 500.2890625 1049.01367188 525.31640625 1076.25 c 1,17,18
413.31640625 602 m 1,77,78
 312.741210938 577.536132812 312.741210938 577.536132812 238.288085938 495.887695312 c 0,79,80
 234.880859375 492.068359375 234.880859375 492.068359375 233.06640625 490 c 0,81,82
 195.814453125 448.091796875 195.814453125 448.091796875 207.255859375 418.962890625 c 0,83,84
 209.92578125 414.024414062 209.92578125 414.024414062 212.06640625 411.25 c 0,85,86
 224.31640625 399 224.31640625 399 258.77734375 395.751953125 c 2,87,-1
 261.06640625 395.5 l 1,88,89
 327.942382812 385.40234375 327.942382812 385.40234375 397.56640625 399 c 1,90,91
 445.368164062 412.252929688 445.368164062 412.252929688 451.81640625 423.5 c 0,92,93
 453.134765625 428.115234375 453.134765625 428.115234375 443.90234375 468.170898438 c 0,94,95
 443.29296875 471.279296875 443.29296875 471.279296875 443.06640625 472.5 c 0,96,97
 438.340820312 492.189453125 438.340820312 492.189453125 429.634765625 531.409179688 c 0,98,99
 419.090820312 578.90234375 419.090820312 578.90234375 413.31640625 602 c 1,77,78
EndSplineSet
EndChar

StartChar: afii57418
Encoding: 1578 1578 357
AltUni2: 00fe95.ffffffff.0
Width: 1881
VWidth: 1750
GlyphClass: 2
Flags: HW
AnchorPoint: "GposMark2BaseAnchorClassErabAbove_01_02" 865.776 1245.5 basechar 0
AnchorPoint: "GposMark2BaseAnchorClassErabBelow_01_02" 865.776 -214.75 basechar 0
LayerCount: 2
Fore
SplineSet
868.827148438 1095.5 m 1,0,-1
 938.827148438 1048.25 l 1,1,-1
 1054.32714844 971.25 l 1,2,3
 1047.32714844 953.75 1047.32714844 953.75 1021.99609375 925.049804688 c 2,4,-1
 1021.07714844 924 l 1,5,6
 966.185546875 849.296875 966.185546875 849.296875 961.577148438 843.5 c 0,7,8
 960.489257812 842.048828125 960.489257812 842.048828125 956.90625 836.326171875 c 0,9,10
 936.6171875 806.607421875 936.6171875 806.607421875 928.327148438 806.75 c 0,11,12
 926.021484375 807.928710938 926.021484375 807.928710938 895.077148438 827.75 c 0,13,14
 881.952148438 836.5 881.952148438 836.5 855.702148438 854.875 c 128,-1,15
 829.452148438 873.25 829.452148438 873.25 816.327148438 882 c 0,16,17
 813.940429688 883.431640625 813.940429688 883.431640625 806.896484375 888.993164062 c 0,18,19
 783.848632812 905.809570312 783.848632812 905.809570312 776.077148438 904.75 c 0,20,21
 770.36328125 902.4296875 770.36328125 902.4296875 751.577148438 875 c 0,22,23
 694.93359375 795.137695312 694.93359375 795.137695312 686.827148438 785.75 c 1,24,-1
 685.077148438 785.75 l 1,25,26
 659.827148438 804.755859375 659.827148438 804.755859375 546.827148438 878.5 c 0,27,28
 544.284179688 880.534179688 544.284179688 880.534179688 533.6953125 886.518554688 c 0,29,30
 503.155273438 905.111328125 503.155273438 905.111328125 501.327148438 913.5 c 1,31,32
 502.46484375 919.77734375 502.46484375 919.77734375 518.827148438 939.75 c 0,33,34
 526.702148438 951.125 526.702148438 951.125 543.327148438 973 c 0,35,36
 560.32421875 995.516601562 560.32421875 995.516601562 567.827148438 1006.25 c 0,37,38
 583.669921875 1028.62695312 583.669921875 1028.62695312 606.327148438 1057 c 0,39,40
 618.229492188 1072.55566406 618.229492188 1072.55566406 622.077148438 1074.5 c 0,41,42
 625.577148438 1074.5 625.577148438 1074.5 629.077148438 1073.625 c 128,-1,43
 632.577148438 1072.75 632.577148438 1072.75 637.827148438 1069.25 c 128,-1,44
 643.077148438 1065.75 643.077148438 1065.75 645.702148438 1064 c 128,-1,45
 648.327148438 1062.25 648.327148438 1062.25 654.452148438 1057 c 2,46,-1
 660.577148438 1051.75 l 1,47,48
 674.577148438 1042.125 674.577148438 1042.125 703.452148438 1022.875 c 0,49,50
 732.865234375 1003.23242188 732.865234375 1003.23242188 746.327148438 994 c 0,51,52
 748.913085938 992.448242188 748.913085938 992.448242188 755.235351562 987.639648438 c 0,53,54
 772.495117188 975.638671875 772.495117188 975.638671875 779.577148438 974.75 c 0,55,56
 787.71875 974.390625 787.71875 974.390625 802.327148438 1002.75 c 1,57,58
 855.318359375 1072.49316406 855.318359375 1072.49316406 868.827148438 1095.5 c 1,0,-1
1568.82714844 794.5 m 1,59,60
 1622.64746094 754.575195312 1622.64746094 754.575195312 1670.32714844 656.25 c 1,61,62
 1754.43457031 490.248046875 1754.43457031 490.248046875 1709.94140625 324.221679688 c 0,63,64
 1695.15429688 271.158203125 1695.15429688 271.158203125 1668.57714844 227.5 c 0,65,66
 1614.12207031 141.512695312 1614.12207031 141.512695312 1514.57714844 84 c 0,67,68
 1376.87402344 6.04296875 1376.87402344 6.04296875 1155.82714844 -31.5 c 0,69,70
 957.6171875 -64.6357421875 957.6171875 -64.6357421875 718.327148438 -64.75 c 0,71,72
 432.184570312 -64.1728515625 432.184570312 -64.1728515625 273.827148438 -10.5 c 0,73,74
 184.8515625 19.8125 184.8515625 19.8125 125.077148438 64.75 c 1,75,76
 -22.8828125 181.884765625 -22.8828125 181.884765625 4.1865234375 393.991210938 c 0,77,78
 9.4443359375 433.067382812 9.4443359375 433.067382812 20.0771484375 470.75 c 0,79,80
 37.951171875 531.201171875 37.951171875 531.201171875 65.5771484375 595 c 0,81,82
 67.21484375 597.729492188 67.21484375 597.729492188 71.4052734375 607.479492188 c 0,83,84
 82.6904296875 631.676757812 82.6904296875 631.676757812 88.3271484375 635.25 c 0,85,86
 96.5126953125 637.836914062 96.5126953125 637.836914062 137.327148438 623 c 0,87,88
 221.91015625 594.94921875 221.91015625 594.94921875 263.327148438 584.5 c 1,89,90
 258.8203125 573.4375 258.8203125 573.4375 248.793945312 551.001953125 c 0,91,92
 215.643554688 475.286132812 215.643554688 475.286132812 212.577148438 435.75 c 0,93,94
 210.537109375 410.318359375 210.537109375 410.318359375 216.077148438 381.5 c 0,95,96
 248.264648438 244.704101562 248.264648438 244.704101562 489.1796875 218.576171875 c 0,97,98
 518.2734375 215.481445312 518.2734375 215.481445312 571.327148438 211.75 c 0,99,100
 953.141601562 184.768554688 953.141601562 184.768554688 1234.57714844 248.5 c 1,101,102
 1409.80566406 285.583007812 1409.80566406 285.583007812 1488.32714844 330.75 c 1,103,104
 1529.16601562 357.4609375 1529.16601562 357.4609375 1533.82714844 378 c 0,105,106
 1536.01757812 390.717773438 1536.01757812 390.717773438 1521.57714844 423.5 c 1,107,108
 1498.44140625 466.880859375 1498.44140625 466.880859375 1453.32714844 525 c 0,109,110
 1451.26953125 528.086914062 1451.26953125 528.086914062 1442.63378906 537.631835938 c 0,111,112
 1418.48535156 565.8046875 1418.48535156 565.8046875 1418.32714844 575.75 c 1,113,114
 1420.56835938 582.327148438 1420.56835938 582.327148438 1430.57714844 596.75 c 0,115,116
 1435.82714844 603.75 1435.82714844 603.75 1446.32714844 618.625 c 0,117,118
 1457.24707031 633.998046875 1457.24707031 633.998046875 1462.07714844 640.5 c 0,119,120
 1514.19140625 712.609375 1514.19140625 712.609375 1568.82714844 794.5 c 1,59,60
EndSplineSet
AlternateSubs2: "gsub_alternate_dfl_aalt_arab_FAR_Lookup_01_Subtable_01" uniFE96 uniFE97 afii57418 uniFE98
Substitution2: "gsub_single_rtl_fina_arab_FAR_Lookup_01_Subtable_01" uniFE96
Substitution2: "gsub_single_rtl_init_arab_FAR_Lookup_01_Subtable_01" uniFE97
Substitution2: "gsub_single_rtl_medi_arab_FAR_Lookup_01_Subtable_01" uniFE98
EndChar

StartChar: uniFE96
Encoding: 65174 65174 358
Width: 1830
VWidth: 1750
GlyphClass: 2
Flags: HW
AnchorPoint: "GposMark2BaseAnchorClassErabAbove_01_02" 903.625 1245.5 basechar 0
AnchorPoint: "GposMark2BaseAnchorClassErabBelow_01_02" 903.625 -218.25 basechar 0
LayerCount: 2
Fore
SplineSet
870.077148438 1095.5 m 1,0,-1
 940.077148438 1048.25 l 1,1,-1
 1055.57714844 971.25 l 1,2,3
 1048.57714844 953.75 1048.57714844 953.75 1023.24609375 925.049804688 c 2,4,-1
 1022.32714844 924 l 1,5,6
 967.435546875 849.296875 967.435546875 849.296875 962.827148438 843.5 c 0,7,8
 961.739257812 842.048828125 961.739257812 842.048828125 958.15625 836.326171875 c 0,9,10
 937.8671875 806.607421875 937.8671875 806.607421875 929.577148438 806.75 c 0,11,12
 927.271484375 807.928710938 927.271484375 807.928710938 896.327148438 827.75 c 0,13,14
 883.202148438 836.5 883.202148438 836.5 856.952148438 854.875 c 128,-1,15
 830.702148438 873.25 830.702148438 873.25 817.577148438 882 c 0,16,17
 815.190429688 883.431640625 815.190429688 883.431640625 808.146484375 888.993164062 c 0,18,19
 785.098632812 905.809570312 785.098632812 905.809570312 777.327148438 904.75 c 0,20,21
 771.61328125 902.4296875 771.61328125 902.4296875 752.827148438 875 c 0,22,23
 696.18359375 795.137695312 696.18359375 795.137695312 688.077148438 785.75 c 1,24,-1
 686.327148438 785.75 l 1,25,26
 661.077148438 804.755859375 661.077148438 804.755859375 548.077148438 878.5 c 0,27,28
 545.534179688 880.534179688 545.534179688 880.534179688 534.9453125 886.518554688 c 0,29,30
 504.405273438 905.111328125 504.405273438 905.111328125 502.577148438 913.5 c 1,31,32
 503.71484375 919.77734375 503.71484375 919.77734375 520.077148438 939.75 c 0,33,34
 527.952148438 951.125 527.952148438 951.125 544.577148438 973 c 0,35,36
 561.57421875 995.516601562 561.57421875 995.516601562 569.077148438 1006.25 c 0,37,38
 584.919921875 1028.62695312 584.919921875 1028.62695312 607.577148438 1057 c 0,39,40
 619.479492188 1072.55566406 619.479492188 1072.55566406 623.327148438 1074.5 c 0,41,42
 626.827148438 1074.5 626.827148438 1074.5 630.327148438 1073.625 c 128,-1,43
 633.827148438 1072.75 633.827148438 1072.75 639.077148438 1069.25 c 128,-1,44
 644.327148438 1065.75 644.327148438 1065.75 646.952148438 1064 c 128,-1,45
 649.577148438 1062.25 649.577148438 1062.25 655.702148438 1057 c 2,46,-1
 661.827148438 1051.75 l 1,47,48
 675.827148438 1042.125 675.827148438 1042.125 704.702148438 1022.875 c 0,49,50
 734.115234375 1003.23242188 734.115234375 1003.23242188 747.577148438 994 c 0,51,52
 750.163085938 992.448242188 750.163085938 992.448242188 756.485351562 987.639648438 c 0,53,54
 773.745117188 975.638671875 773.745117188 975.638671875 780.827148438 974.75 c 0,55,56
 788.96875 974.390625 788.96875 974.390625 803.577148438 1002.75 c 1,57,58
 856.568359375 1072.49316406 856.568359375 1072.49316406 870.077148438 1095.5 c 1,0,-1
1531.57714844 136.5 m 1,59,60
 1514.10546875 102.244140625 1514.10546875 102.244140625 1451.07714844 66.5 c 1,61,62
 1353.15917969 7.6494140625 1353.15917969 7.6494140625 1186.82714844 -24.5 c 0,63,64
 969.479492188 -68.103515625 969.479492188 -68.103515625 716.077148438 -68.25 c 0,65,66
 538.102539062 -67.974609375 538.102539062 -67.974609375 416.827148438 -49 c 1,67,68
 190.69140625 -9.5771484375 190.69140625 -9.5771484375 91.3271484375 92.75 c 1,69,70
 -53.326171875 246.735351562 -53.326171875 246.735351562 31.13671875 500.309570312 c 0,71,72
 32.333984375 503.903320312 32.333984375 503.903320312 33.5771484375 507.5 c 0,73,74
 48.6005859375 551.89453125 48.6005859375 551.89453125 72.0771484375 602 c 0,75,76
 86.7275390625 629.606445312 86.7275390625 629.606445312 89.5771484375 631.75 c 0,77,78
 97.7626953125 634.336914062 97.7626953125 634.336914062 138.577148438 619.5 c 0,79,80
 155.376953125 614.599609375 155.376953125 614.599609375 188.977539062 603.6796875 c 0,81,82
 239.9609375 587.23828125 239.9609375 587.23828125 264.577148438 581 c 1,83,84
 220.645507812 471.171875 220.645507812 471.171875 215.760742188 441.028320312 c 0,85,86
 205.979492188 380.672851562 205.979492188 380.672851562 233.077148438 332.5 c 0,87,88
 284.668945312 242.213867188 284.668945312 242.213867188 477.438476562 218.342773438 c 0,89,90
 483.651367188 217.583984375 483.651367188 217.583984375 488.577148438 217 c 0,91,92
 626.830078125 199.544921875 626.830078125 199.544921875 901.577148438 206.5 c 0,93,94
 1138.12109375 214.009765625 1138.12109375 214.009765625 1223.70898438 230.9921875 c 0,95,96
 1228.90917969 232.041015625 1228.90917969 232.041015625 1232.32714844 232.75 c 0,97,98
 1400.73242188 271.401367188 1400.73242188 271.401367188 1437.07714844 348.25 c 1,99,100
 1447.81445312 375.536132812 1447.81445312 375.536132812 1447.57714844 456.75 c 1,101,-1
 1640.07714844 519.75 l 1,102,103
 1640.07714844 404.7578125 1640.07714844 404.7578125 1646.06347656 377.435546875 c 0,104,105
 1656.8046875 333.405273438 1656.8046875 333.405273438 1680.32714844 309.75 c 0,106,107
 1689.07714844 301 1689.07714844 301 1700.45214844 294 c 128,-1,108
 1711.82714844 287 1711.82714844 287 1726.70214844 282.625 c 128,-1,109
 1741.57714844 278.25 1741.57714844 278.25 1750.32714844 275.625 c 128,-1,110
 1759.07714844 273 1759.07714844 273 1780.07714844 272.125 c 128,-1,111
 1801.07714844 271.25 1801.07714844 271.25 1805.45214844 271.25 c 128,-1,112
 1809.82714844 271.25 1809.82714844 271.25 1835.20214844 271.25 c 2,113,-1
 1860.57714844 271.25 l 1,114,-1
 1860.57714844 0 l 1,115,116
 1715.90039062 0 1715.90039062 0 1660.76953125 19.6455078125 c 0,117,118
 1611.14257812 38.349609375 1611.14257812 38.349609375 1575.32714844 73.5 c 1,119,120
 1541.47558594 112.329101562 1541.47558594 112.329101562 1533.32714844 136.5 c 1,121,-1
 1531.57714844 136.5 l 1,59,60
EndSplineSet
EndChar

StartChar: uniFE97
Encoding: 65175 65175 359
Width: 659
VWidth: 1750
GlyphClass: 2
Flags: HW
AnchorPoint: "GposMark2BaseAnchorClassErabAbove_01_02" 231.5 1411.75 basechar 0
AnchorPoint: "GposMark2BaseAnchorClassErabBelow_01_02" 231.5 -150 basechar 0
LayerCount: 2
Fore
SplineSet
348.75 1261.75 m 1,0,-1
 408.25 1223.25 l 1,1,-1
 536 1137.5 l 1,2,-1
 413.5 971.25 l 1,3,-1
 294.5 1050 l 1,4,-1
 254.25 1076.25 l 1,5,-1
 226.25 1034.25 l 1,6,-1
 168.5 953.75 l 1,7,-1
 112.5 988.75 l 1,8,-1
 -20.5 1078 l 1,9,10
 -8.5048828125 1101.06835938 -8.5048828125 1101.06835938 61.59765625 1192.2109375 c 0,11,12
 66.9833984375 1199.27539062 66.9833984375 1199.27539062 70.5 1204 c 0,13,14
 72.28125 1206.22558594 72.28125 1206.22558594 77.310546875 1213.66699219 c 0,15,16
 96.083984375 1239.67578125 96.083984375 1239.67578125 103.75 1242.5 c 1,17,18
 108.571289062 1241.7109375 108.571289062 1241.7109375 142.25 1219.75 c 0,19,20
 147.225585938 1216.12988281 147.225585938 1216.12988281 226.25 1162 c 0,21,22
 229.129882812 1160.27246094 229.129882812 1160.27246094 236.282226562 1154.72265625 c 0,23,24
 252.780273438 1142.82128906 252.780273438 1142.82128906 259.5 1141 c 1,25,26
 264.995117188 1142.390625 264.995117188 1142.390625 284 1170.75 c 0,27,28
 291.30859375 1181.10351562 291.30859375 1181.10351562 306.828125 1201.88476562 c 0,29,30
 336.44140625 1241.85449219 336.44140625 1241.85449219 348.75 1261.75 c 1,0,-1
257.75 759.5 m 1,31,32
 269.659179688 752.543945312 269.659179688 752.543945312 291 726.25 c 0,33,34
 337.516601562 669.625976562 337.516601562 669.625976562 359.25 624.75 c 0,35,36
 443.619140625 456.012695312 443.619140625 456.012695312 408.669921875 284.805664062 c 0,37,38
 386.224609375 180.189453125 386.224609375 180.189453125 320.75 110.25 c 0,39,40
 223.852539062 8.42578125 223.852539062 8.42578125 11.1259765625 1.0498046875 c 0,41,42
 -20.7041015625 0.005859375 -20.7041015625 0.005859375 -73 0 c 1,43,-1
 -73 271.25 l 1,44,45
 127.577148438 271.37109375 127.577148438 271.37109375 151 273 c 0,46,47
 217.837890625 278.708007812 217.837890625 278.708007812 235 311.5 c 1,48,49
 247.325195312 339.41796875 247.325195312 339.41796875 221 385 c 0,50,51
 191.221679688 438.408203125 191.221679688 438.408203125 105.5 539 c 1,52,-1
 105.5 540.75 l 1,53,-1
 177.25 642.25 l 1,54,-1
 257.75 759.5 l 1,31,32
EndSplineSet
EndChar

StartChar: uniFE98
Encoding: 65176 65176 360
Width: 598
VWidth: 1750
GlyphClass: 2
Flags: HW
AnchorPoint: "GposMark2BaseAnchorClassErabAbove_01_02" 277.875 1242 basechar 0
AnchorPoint: "GposMark2BaseAnchorClassErabBelow_01_02" 277.875 -150.207 basechar 0
LayerCount: 2
Fore
SplineSet
280.5 971.25 m 1,0,1
 288.000976562 991.610351562 288.000976562 991.610351562 339.05078125 1055.98339844 c 0,2,3
 343.015625 1061.06445312 343.015625 1061.06445312 345.25 1064 c 0,4,5
 346.661132812 1065.88085938 346.661132812 1065.88085938 350.172851562 1071.71972656 c 0,6,7
 362.163085938 1089.43457031 362.163085938 1089.43457031 368 1092 c 1,8,9
 377.150390625 1091.25488281 377.150390625 1091.25488281 418.75 1060.5 c 0,10,11
 440.625 1045.625 440.625 1045.625 485.25 1015.875 c 0,12,13
 530.428710938 985.733398438 530.428710938 985.733398438 551.75 971.25 c 1,14,15
 548.108398438 961.608398438 548.108398438 961.608398438 520.25 925.75 c 0,16,17
 465.358398438 851.046875 465.358398438 851.046875 460.75 845.25 c 0,18,19
 458.767578125 842.772460938 458.767578125 842.772460938 453.358398438 834.219726562 c 0,20,21
 436.497070312 809.469726562 436.497070312 809.469726562 429.25 806.75 c 0,22,23
 422.16015625 805.737304688 422.16015625 805.737304688 392.920898438 828.477539062 c 0,24,25
 390.556640625 830.31640625 390.556640625 830.31640625 389 831.25 c 0,26,27
 377.32421875 839.423828125 377.32421875 839.423828125 350.53125 855.576171875 c 0,28,29
 294.997070312 889.671875 294.997070312 889.671875 275.25 910 c 1,30,-1
 273.5 910 l 1,31,-1
 186 785.75 l 1,32,-1
 110.75 834.75 l 1,33,-1
 -3 911.75 l 1,34,-1
 -3 913.5 l 1,35,-1
 119.5 1078 l 1,36,-1
 121.25 1078 l 1,37,38
 203.836914062 1013.53222656 203.836914062 1013.53222656 280.5 971.25 c 1,0,1
-73 271.25 m 1,39,40
 -60.013671875 271.25 -60.013671875 271.25 -31.484375 270.29296875 c 0,41,42
 107.13671875 265.640625 107.13671875 265.640625 158.235351562 300.603515625 c 0,43,44
 166.30078125 306.479492188 166.30078125 306.479492188 172 311.5 c 0,45,46
 205.662109375 358.778320312 205.662109375 358.778320312 205.25 437.5 c 0,47,48
 205.25 440.81640625 205.25 440.81640625 204.443359375 449.654296875 c 0,49,50
 202.711914062 477.420898438 202.711914062 477.420898438 207 486.5 c 1,51,52
 211.633789062 492.174804688 211.633789062 492.174804688 254.25 504 c 0,53,54
 269.165039062 508.971679688 269.165039062 508.971679688 299.463867188 520.705078125 c 0,55,56
 366.5546875 546.264648438 366.5546875 546.264648438 399.5 551.25 c 1,57,58
 399.5 410.603515625 399.5 410.603515625 418.514648438 360.309570312 c 0,59,60
 444.024414062 298.755859375 444.024414062 298.755859375 497.5 278.25 c 1,61,62
 534.125976562 269.180664062 534.125976562 269.180664062 628.75 271.25 c 1,63,-1
 628.75 0 l 1,64,65
 494.123046875 0 494.123046875 0 460.780273438 6.599609375 c 0,66,67
 395.450195312 20.716796875 395.450195312 20.716796875 355.75 59.5 c 0,68,69
 319.318359375 95.931640625 319.318359375 95.931640625 315.5 120.75 c 1,70,71
 264.041015625 66.2509765625 264.041015625 66.2509765625 245.5 54.25 c 0,72,73
 205.25 28 205.25 28 151.875 14.875 c 128,-1,74
 98.5 1.75 98.5 1.75 65.25 0.875 c 128,-1,75
 32 0 32 0 -37.00390625 -0.20703125 c 0,76,77
 -60.75 0 -60.75 0 -73 0 c 1,78,-1
 -73 271.25 l 1,39,40
EndSplineSet
EndChar

StartChar: afii57419
Encoding: 1579 1579 361
AltUni2: 00fe99.ffffffff.0
Width: 1881
VWidth: 1750
GlyphClass: 2
Flags: HW
AnchorPoint: "GposMark2BaseAnchorClassErabAbove_01_02" 865.776 1334.75 basechar 0
AnchorPoint: "GposMark2BaseAnchorClassErabBelow_01_02" 865.776 -214.75 basechar 0
LayerCount: 2
Fore
SplineSet
940.577148438 1076.25 m 1,0,1
 936.395507812 1064.78515625 936.395507812 1064.78515625 912.577148438 1034.25 c 0,2,3
 903.994140625 1023.37597656 903.994140625 1023.37597656 853.077148438 953.75 c 0,4,5
 850.852539062 951.525390625 850.852539062 951.525390625 844.62109375 942.2890625 c 0,6,7
 828.741210938 918.75 828.741210938 918.75 821.577148438 918.75 c 0,8,9
 813.852539062 919.865234375 813.852539062 919.865234375 795.327148438 934.5 c 1,10,11
 736.497070312 973.85546875 736.497070312 973.85546875 730.577148438 978.25 c 2,12,-1
 676.327148438 1013.25 l 2,13,14
 658.319335938 1026.63769531 658.319335938 1026.63769531 657.077148438 1029 c 0,15,16
 657.077148438 1032.5 657.077148438 1032.5 660.577148438 1038.625 c 128,-1,17
 664.077148438 1044.75 664.077148438 1044.75 671.077148438 1053.5 c 2,18,-1
 678.077148438 1062.25 l 1,19,-1
 746.327148438 1153.25 l 2,20,21
 748.4921875 1155.41503906 748.4921875 1155.41503906 754.123046875 1163.87402344 c 0,22,23
 769.293945312 1183.99414062 769.293945312 1183.99414062 776.077148438 1184.75 c 1,24,25
 788.177734375 1181.66015625 788.177734375 1181.66015625 825.077148438 1153.25 c 1,26,27
 904.34765625 1096.89648438 904.34765625 1096.89648438 940.577148438 1076.25 c 1,0,1
566.077148438 770 m 1,28,29
 571.771484375 784.544921875 571.771484375 784.544921875 594.077148438 810.25 c 1,30,31
 621.038085938 848.297851562 621.038085938 848.297851562 658.827148438 897.75 c 1,32,33
 679.866210938 932.814453125 679.866210938 932.814453125 688.494140625 934.59765625 c 0,34,35
 691.173828125 934.526367188 691.173828125 934.526367188 692.077148438 934.5 c 0,36,37
 697.966796875 932.18359375 697.966796875 932.18359375 727.077148438 911.75 c 2,38,-1
 805.827148438 859.25 l 1,39,40
 838.0078125 834.759765625 838.0078125 834.759765625 846.077148438 834.75 c 0,41,42
 849.577148438 834.75 849.577148438 834.75 853.952148438 840 c 128,-1,43
 858.327148438 845.25 858.327148438 845.25 864.452148438 854 c 2,44,-1
 870.577148438 862.75 l 1,45,-1
 914.327148438 924 l 2,46,47
 916.004882812 926.236328125 916.004882812 926.236328125 919.473632812 932.33984375 c 0,48,49
 928.481445312 946.354492188 928.481445312 946.354492188 933.577148438 950.25 c 0,50,51
 940.758789062 955.037109375 940.758789062 955.037109375 977.248046875 928.203125 c 0,52,53
 979.963867188 926.342773438 979.963867188 926.342773438 980.827148438 925.75 c 0,54,55
 995.702148438 915.25 995.702148438 915.25 1026.32714844 894.25 c 0,56,57
 1057.4921875 872.845703125 1057.4921875 872.845703125 1071.82714844 862.75 c 0,58,59
 1116.50195312 832.376953125 1116.50195312 832.376953125 1120.82714844 827.75 c 1,60,-1
 998.327148438 663.25 l 1,61,-1
 996.577148438 663.25 l 1,62,63
 991.678710938 666.83984375 991.678710938 666.83984375 881.077148438 742 c 1,64,65
 847.692382812 767.038085938 847.692382812 767.038085938 840.827148438 764.75 c 0,66,67
 836.30078125 761.461914062 836.30078125 761.461914062 821.577148438 740.25 c 2,68,-1
 776.077148438 675.5 l 1,69,70
 754.866210938 648.90625 754.866210938 648.90625 751.577148438 647.5 c 0,71,72
 744.724609375 647.5 744.724609375 647.5 706.53515625 675.21484375 c 0,73,74
 702.60546875 677.872070312 702.60546875 677.872070312 700.827148438 679 c 0,75,76
 678.077148438 693.875 678.077148438 693.875 633.452148438 724.5 c 0,77,78
 588.21484375 755.489257812 588.21484375 755.489257812 566.077148438 770 c 1,28,29
1568.82714844 794.5 m 1,79,80
 1622.64746094 754.575195312 1622.64746094 754.575195312 1670.32714844 656.25 c 1,81,82
 1754.43457031 490.248046875 1754.43457031 490.248046875 1709.94140625 324.221679688 c 0,83,84
 1695.15429688 271.158203125 1695.15429688 271.158203125 1668.57714844 227.5 c 0,85,86
 1614.12207031 141.512695312 1614.12207031 141.512695312 1514.57714844 84 c 0,87,88
 1376.87402344 6.04296875 1376.87402344 6.04296875 1155.82714844 -31.5 c 0,89,90
 957.6171875 -64.6357421875 957.6171875 -64.6357421875 718.327148438 -64.75 c 0,91,92
 432.184570312 -64.1728515625 432.184570312 -64.1728515625 273.827148438 -10.5 c 0,93,94
 184.8515625 19.8125 184.8515625 19.8125 125.077148438 64.75 c 1,95,96
 -22.8828125 181.884765625 -22.8828125 181.884765625 4.1865234375 393.991210938 c 0,97,98
 9.4443359375 433.067382812 9.4443359375 433.067382812 20.0771484375 470.75 c 0,99,100
 37.951171875 531.201171875 37.951171875 531.201171875 65.5771484375 595 c 0,101,102
 67.21484375 597.729492188 67.21484375 597.729492188 71.4052734375 607.479492188 c 0,103,104
 82.6904296875 631.676757812 82.6904296875 631.676757812 88.3271484375 635.25 c 0,105,106
 96.5126953125 637.836914062 96.5126953125 637.836914062 137.327148438 623 c 0,107,108
 221.91015625 594.94921875 221.91015625 594.94921875 263.327148438 584.5 c 1,109,110
 258.8203125 573.4375 258.8203125 573.4375 248.793945312 551.001953125 c 0,111,112
 215.643554688 475.286132812 215.643554688 475.286132812 212.577148438 435.75 c 0,113,114
 210.537109375 410.318359375 210.537109375 410.318359375 216.077148438 381.5 c 0,115,116
 248.264648438 244.704101562 248.264648438 244.704101562 489.1796875 218.576171875 c 0,117,118
 518.2734375 215.481445312 518.2734375 215.481445312 571.327148438 211.75 c 0,119,120
 953.141601562 184.768554688 953.141601562 184.768554688 1234.57714844 248.5 c 1,121,122
 1409.80566406 285.583007812 1409.80566406 285.583007812 1488.32714844 330.75 c 1,123,124
 1529.16601562 357.4609375 1529.16601562 357.4609375 1533.82714844 378 c 0,125,126
 1536.01757812 390.717773438 1536.01757812 390.717773438 1521.57714844 423.5 c 1,127,128
 1498.44140625 466.880859375 1498.44140625 466.880859375 1453.32714844 525 c 0,129,130
 1451.26953125 528.086914062 1451.26953125 528.086914062 1442.63378906 537.631835938 c 0,131,132
 1418.48535156 565.8046875 1418.48535156 565.8046875 1418.32714844 575.75 c 1,133,134
 1420.56835938 582.327148438 1420.56835938 582.327148438 1430.57714844 596.75 c 0,135,136
 1435.82714844 603.75 1435.82714844 603.75 1446.32714844 618.625 c 0,137,138
 1457.24707031 633.998046875 1457.24707031 633.998046875 1462.07714844 640.5 c 0,139,140
 1514.19140625 712.609375 1514.19140625 712.609375 1568.82714844 794.5 c 1,79,80
EndSplineSet
AlternateSubs2: "gsub_alternate_dfl_aalt_arab_FAR_Lookup_01_Subtable_01" uniFE9A uniFE9B afii57419 uniFE9C
Substitution2: "gsub_single_rtl_fina_arab_FAR_Lookup_01_Subtable_01" uniFE9A
Substitution2: "gsub_single_rtl_init_arab_FAR_Lookup_01_Subtable_01" uniFE9B
Substitution2: "gsub_single_rtl_medi_arab_FAR_Lookup_01_Subtable_01" uniFE9C
EndChar

StartChar: uniFE9A
Encoding: 65178 65178 362
Width: 1830
VWidth: 1750
GlyphClass: 2
Flags: HW
AnchorPoint: "GposMark2BaseAnchorClassErabAbove_01_02" 903.625 1334.75 basechar 0
AnchorPoint: "GposMark2BaseAnchorClassErabBelow_01_02" 903.625 -218.25 basechar 0
LayerCount: 2
Fore
SplineSet
941.827148438 1076.25 m 1,0,1
 937.645507812 1064.78515625 937.645507812 1064.78515625 913.827148438 1034.25 c 0,2,3
 905.244140625 1023.37597656 905.244140625 1023.37597656 854.327148438 953.75 c 0,4,5
 852.102539062 951.525390625 852.102539062 951.525390625 845.87109375 942.2890625 c 0,6,7
 829.991210938 918.75 829.991210938 918.75 822.827148438 918.75 c 0,8,9
 815.102539062 919.865234375 815.102539062 919.865234375 796.577148438 934.5 c 1,10,11
 737.747070312 973.85546875 737.747070312 973.85546875 731.827148438 978.25 c 2,12,-1
 677.577148438 1013.25 l 2,13,14
 659.569335938 1026.63769531 659.569335938 1026.63769531 658.327148438 1029 c 0,15,16
 658.327148438 1032.5 658.327148438 1032.5 661.827148438 1038.625 c 128,-1,17
 665.327148438 1044.75 665.327148438 1044.75 672.327148438 1053.5 c 2,18,-1
 679.327148438 1062.25 l 1,19,-1
 747.577148438 1153.25 l 2,20,21
 749.7421875 1155.41503906 749.7421875 1155.41503906 755.373046875 1163.87402344 c 0,22,23
 770.543945312 1183.99414062 770.543945312 1183.99414062 777.327148438 1184.75 c 1,24,25
 789.427734375 1181.66015625 789.427734375 1181.66015625 826.327148438 1153.25 c 1,26,27
 905.59765625 1096.89648438 905.59765625 1096.89648438 941.827148438 1076.25 c 1,0,1
567.327148438 770 m 1,28,29
 573.021484375 784.544921875 573.021484375 784.544921875 595.327148438 810.25 c 1,30,31
 622.288085938 848.297851562 622.288085938 848.297851562 660.077148438 897.75 c 1,32,33
 681.116210938 932.814453125 681.116210938 932.814453125 689.744140625 934.59765625 c 0,34,35
 692.423828125 934.526367188 692.423828125 934.526367188 693.327148438 934.5 c 0,36,37
 699.216796875 932.18359375 699.216796875 932.18359375 728.327148438 911.75 c 2,38,-1
 807.077148438 859.25 l 1,39,40
 839.2578125 834.759765625 839.2578125 834.759765625 847.327148438 834.75 c 0,41,42
 850.827148438 834.75 850.827148438 834.75 855.202148438 840 c 128,-1,43
 859.577148438 845.25 859.577148438 845.25 865.702148438 854 c 2,44,-1
 871.827148438 862.75 l 1,45,-1
 915.577148438 924 l 2,46,47
 917.254882812 926.236328125 917.254882812 926.236328125 920.723632812 932.33984375 c 0,48,49
 929.731445312 946.354492188 929.731445312 946.354492188 934.827148438 950.25 c 0,50,51
 942.008789062 955.037109375 942.008789062 955.037109375 978.498046875 928.203125 c 0,52,53
 981.213867188 926.342773438 981.213867188 926.342773438 982.077148438 925.75 c 0,54,55
 996.952148438 915.25 996.952148438 915.25 1027.57714844 894.25 c 0,56,57
 1058.7421875 872.845703125 1058.7421875 872.845703125 1073.07714844 862.75 c 0,58,59
 1117.75195312 832.376953125 1117.75195312 832.376953125 1122.07714844 827.75 c 1,60,-1
 999.577148438 663.25 l 1,61,-1
 997.827148438 663.25 l 1,62,63
 992.928710938 666.83984375 992.928710938 666.83984375 882.327148438 742 c 1,64,65
 848.942382812 767.038085938 848.942382812 767.038085938 842.077148438 764.75 c 0,66,67
 837.55078125 761.461914062 837.55078125 761.461914062 822.827148438 740.25 c 2,68,-1
 777.327148438 675.5 l 1,69,70
 756.116210938 648.90625 756.116210938 648.90625 752.827148438 647.5 c 0,71,72
 745.974609375 647.5 745.974609375 647.5 707.78515625 675.21484375 c 0,73,74
 703.85546875 677.872070312 703.85546875 677.872070312 702.077148438 679 c 0,75,76
 679.327148438 693.875 679.327148438 693.875 634.702148438 724.5 c 0,77,78
 589.46484375 755.489257812 589.46484375 755.489257812 567.327148438 770 c 1,28,29
1531.57714844 136.5 m 1,79,80
 1514.10546875 102.244140625 1514.10546875 102.244140625 1451.07714844 66.5 c 1,81,82
 1353.15917969 7.6494140625 1353.15917969 7.6494140625 1186.82714844 -24.5 c 0,83,84
 969.479492188 -68.103515625 969.479492188 -68.103515625 716.077148438 -68.25 c 0,85,86
 538.102539062 -67.974609375 538.102539062 -67.974609375 416.827148438 -49 c 1,87,88
 190.69140625 -9.5771484375 190.69140625 -9.5771484375 91.3271484375 92.75 c 1,89,90
 -53.326171875 246.735351562 -53.326171875 246.735351562 31.13671875 500.309570312 c 0,91,92
 32.333984375 503.903320312 32.333984375 503.903320312 33.5771484375 507.5 c 0,93,94
 48.6005859375 551.89453125 48.6005859375 551.89453125 72.0771484375 602 c 0,95,96
 86.7275390625 629.606445312 86.7275390625 629.606445312 89.5771484375 631.75 c 0,97,98
 97.7626953125 634.336914062 97.7626953125 634.336914062 138.577148438 619.5 c 0,99,100
 155.376953125 614.599609375 155.376953125 614.599609375 188.977539062 603.6796875 c 0,101,102
 239.9609375 587.23828125 239.9609375 587.23828125 264.577148438 581 c 1,103,104
 220.645507812 471.171875 220.645507812 471.171875 215.760742188 441.028320312 c 0,105,106
 205.979492188 380.672851562 205.979492188 380.672851562 233.077148438 332.5 c 0,107,108
 284.668945312 242.213867188 284.668945312 242.213867188 477.438476562 218.342773438 c 0,109,110
 483.651367188 217.583984375 483.651367188 217.583984375 488.577148438 217 c 0,111,112
 626.830078125 199.544921875 626.830078125 199.544921875 901.577148438 206.5 c 0,113,114
 1138.12109375 214.009765625 1138.12109375 214.009765625 1223.70898438 230.9921875 c 0,115,116
 1228.90917969 232.041015625 1228.90917969 232.041015625 1232.32714844 232.75 c 0,117,118
 1400.73242188 271.401367188 1400.73242188 271.401367188 1437.07714844 348.25 c 1,119,120
 1447.81445312 375.536132812 1447.81445312 375.536132812 1447.57714844 456.75 c 1,121,-1
 1640.07714844 519.75 l 1,122,123
 1640.07714844 404.7578125 1640.07714844 404.7578125 1646.06347656 377.435546875 c 0,124,125
 1656.8046875 333.405273438 1656.8046875 333.405273438 1680.32714844 309.75 c 0,126,127
 1689.07714844 301 1689.07714844 301 1700.45214844 294 c 128,-1,128
 1711.82714844 287 1711.82714844 287 1726.70214844 282.625 c 128,-1,129
 1741.57714844 278.25 1741.57714844 278.25 1750.32714844 275.625 c 128,-1,130
 1759.07714844 273 1759.07714844 273 1780.07714844 272.125 c 128,-1,131
 1801.07714844 271.25 1801.07714844 271.25 1805.45214844 271.25 c 128,-1,132
 1809.82714844 271.25 1809.82714844 271.25 1835.20214844 271.25 c 2,133,-1
 1860.57714844 271.25 l 1,134,-1
 1860.57714844 0 l 1,135,136
 1715.90039062 0 1715.90039062 0 1660.76953125 19.6455078125 c 0,137,138
 1611.14257812 38.349609375 1611.14257812 38.349609375 1575.32714844 73.5 c 1,139,140
 1541.47558594 112.329101562 1541.47558594 112.329101562 1533.32714844 136.5 c 1,141,-1
 1531.57714844 136.5 l 1,79,80
EndSplineSet
EndChar

StartChar: uniFE9B
Encoding: 65179 65179 363
Width: 678
VWidth: 1750
GlyphClass: 2
Flags: HW
AnchorPoint: "GposMark2BaseAnchorClassErabAbove_01_02" 247.25 1560.89 basechar 0
AnchorPoint: "GposMark2BaseAnchorClassErabBelow_01_02" 247.25 -150 basechar 0
LayerCount: 2
Fore
SplineSet
93.25 1253 m 1,0,1
 104.118164062 1272.22851562 104.118164062 1272.22851562 173.340820312 1361.66113281 c 0,2,3
 175.99609375 1365.11425781 175.99609375 1365.11425781 177.25 1366.75 c 0,4,5
 180.11328125 1370.18554688 180.11328125 1370.18554688 186.840820312 1380.828125 c 0,6,7
 202.778320312 1404.36328125 202.778320312 1404.36328125 210.5 1408.75 c 0,8,9
 216.918945312 1410.88964844 216.918945312 1410.88964844 248.61328125 1386.953125 c 0,10,11
 251.504882812 1384.9375 251.504882812 1384.9375 252.5 1384.25 c 0,12,13
 282.2265625 1365.56152344 282.2265625 1365.56152344 336.5 1328.25 c 0,14,15
 374.638671875 1303.57128906 374.638671875 1303.57128906 380.25 1296.75 c 1,16,17
 313.244140625 1220.81054688 313.244140625 1220.81054688 263 1139.25 c 1,18,-1
 93.25 1253 l 1,0,1
5.75 994 m 1,19,20
 12.75 1011.5 12.75 1011.5 38.0810546875 1040.20019531 c 2,21,-1
 39 1041.25 l 1,22,23
 93.8916015625 1115.953125 93.8916015625 1115.953125 98.5 1121.75 c 0,24,25
 121.568359375 1160.19726562 121.568359375 1160.19726562 131.75 1158.5 c 0,26,27
 137.639648438 1156.18359375 137.639648438 1156.18359375 166.75 1135.75 c 2,28,-1
 245.5 1083.25 l 2,29,30
 248.065429688 1081.7109375 248.065429688 1081.7109375 255.783203125 1075.54003906 c 0,31,32
 278.329101562 1057.51269531 278.329101562 1057.51269531 285.75 1058.75 c 0,33,34
 289.25 1058.75 289.25 1058.75 293.625 1064 c 128,-1,35
 298 1069.25 298 1069.25 304.125 1078 c 2,36,-1
 310.25 1086.75 l 1,37,-1
 355.75 1151.5 l 2,38,39
 374.885742188 1175.91992188 374.885742188 1175.91992188 375 1176 c 0,40,41
 382.298828125 1178.08496094 382.298828125 1178.08496094 418.728515625 1150.45800781 c 0,42,43
 421.40234375 1148.59375 421.40234375 1148.59375 422.25 1148 c 0,44,45
 439.241210938 1136.890625 439.241210938 1136.890625 473.315429688 1112.65332031 c 0,46,47
 531.515625 1071.52734375 531.515625 1071.52734375 560.5 1055.25 c 1,48,49
 556.271484375 1044.7109375 556.271484375 1044.7109375 530.75 1011.5 c 2,50,-1
 467.75 927.5 l 1,51,52
 444.681640625 889.052734375 444.681640625 889.052734375 434.5 890.75 c 0,53,54
 427.6875 893.274414062 427.6875 893.274414062 396 915.25 c 0,55,56
 383.75 924 383.75 924 359.25 940.625 c 0,57,58
 334.166992188 957.705078125 334.166992188 957.705078125 322.5 966 c 0,59,60
 320.11328125 967.431640625 320.11328125 967.431640625 313.069335938 972.993164062 c 0,61,62
 290.021484375 989.809570312 290.021484375 989.809570312 282.25 988.75 c 0,63,64
 276.536132812 986.4296875 276.536132812 986.4296875 257.75 959 c 0,65,66
 250.75 949.083007812 250.75 949.083007812 235.97265625 929.638671875 c 0,67,68
 206.25 890.049804688 206.25 890.049804688 194.75 869.75 c 1,69,-1
 138.75 904.75 l 1,70,-1
 5.75 994 l 1,19,20
264.75 759.5 m 1,71,72
 276.659179688 752.543945312 276.659179688 752.543945312 298 726.25 c 0,73,74
 344.516601562 669.625976562 344.516601562 669.625976562 366.25 624.75 c 0,75,76
 450.619140625 456.012695312 450.619140625 456.012695312 415.669921875 284.805664062 c 0,77,78
 393.224609375 180.189453125 393.224609375 180.189453125 327.75 110.25 c 0,79,80
 230.852539062 8.42578125 230.852539062 8.42578125 18.1259765625 1.0498046875 c 0,81,82
 -13.7041015625 0.005859375 -13.7041015625 0.005859375 -66 0 c 1,83,-1
 -66 271.25 l 1,84,85
 134.577148438 271.37109375 134.577148438 271.37109375 158 273 c 0,86,87
 224.837890625 278.708007812 224.837890625 278.708007812 242 311.5 c 1,88,89
 254.325195312 339.41796875 254.325195312 339.41796875 228 385 c 0,90,91
 198.221679688 438.408203125 198.221679688 438.408203125 112.5 539 c 1,92,-1
 112.5 540.75 l 1,93,-1
 184.25 642.25 l 1,94,-1
 264.75 759.5 l 1,71,72
EndSplineSet
EndChar

StartChar: uniFE9C
Encoding: 65180 65180 364
Width: 605
VWidth: 1750
GlyphClass: 2
Flags: HW
AnchorPoint: "GposMark2BaseAnchorClassErabAbove_01_02" 284.875 1404.75 basechar 0
AnchorPoint: "GposMark2BaseAnchorClassErabBelow_01_02" 284.875 -150.207 basechar 0
LayerCount: 2
Fore
SplineSet
210.5 1254.75 m 1,0,-1
 380.25 1142.75 l 1,1,-1
 347 1097.25 l 1,2,-1
 263 983.5 l 1,3,-1
 93.25 1095.5 l 1,4,5
 107.3984375 1124.68066406 107.3984375 1124.68066406 176.846679688 1209.55566406 c 0,6,7
 198.389648438 1236.25292969 198.389648438 1236.25292969 210.5 1254.75 c 1,0,-1
375 1022 m 1,8,-1
 434.5 983.5 l 1,9,-1
 560.5 897.75 l 1,10,-1
 523.75 845.25 l 1,11,-1
 439.75 731.5 l 1,12,-1
 392.5 761.25 l 1,13,-1
 280.5 836.5 l 1,14,15
 273.0703125 818.85546875 273.0703125 818.85546875 224.47265625 755.545898438 c 0,16,17
 219.075195312 748.38671875 219.075195312 748.38671875 215.75 743.75 c 0,18,19
 214.338867188 741.869140625 214.338867188 741.869140625 210.827148438 736.030273438 c 0,20,21
 199.3984375 717.029296875 199.3984375 717.029296875 193 715.75 c 1,22,23
 185.100585938 716.625 185.100585938 716.625 154.5 738.5 c 0,24,25
 94.3603515625 777.67578125 94.3603515625 777.67578125 47.75 810.25 c 0,26,27
 9.53125 835.583984375 9.53125 835.583984375 7.5 840 c 1,28,29
 7.5 846.381835938 7.5 846.381835938 34.1162109375 879.549804688 c 0,30,31
 36.404296875 882.602539062 36.404296875 882.602539062 37.25 883.75 c 0,32,33
 47.1669921875 897.166992188 47.1669921875 897.166992188 67.77734375 923.611328125 c 0,34,35
 109.248046875 977.170898438 109.248046875 977.170898438 126.5 1004.5 c 1,36,37
 148.69140625 995.81640625 148.69140625 995.81640625 228.759765625 937.956054688 c 0,38,39
 237.727539062 931.564453125 237.727539062 931.564453125 243.75 927.5 c 0,40,41
 246.37109375 925.927734375 246.37109375 925.927734375 255.005859375 919.200195312 c 0,42,43
 279.172851562 901.340820312 279.172851562 901.340820312 285.75 901.25 c 1,44,45
 291.463867188 903.5703125 291.463867188 903.5703125 310.25 931 c 0,46,47
 317.55859375 941.353515625 317.55859375 941.353515625 333.078125 962.134765625 c 0,48,49
 362.69140625 1002.10449219 362.69140625 1002.10449219 375 1022 c 1,8,-1
-66 271.25 m 1,50,51
 -53.013671875 271.25 -53.013671875 271.25 -24.484375 270.29296875 c 0,52,53
 114.13671875 265.640625 114.13671875 265.640625 165.235351562 300.603515625 c 0,54,55
 173.30078125 306.479492188 173.30078125 306.479492188 179 311.5 c 0,56,57
 212.662109375 358.778320312 212.662109375 358.778320312 212.25 437.5 c 0,58,59
 212.25 440.81640625 212.25 440.81640625 211.443359375 449.654296875 c 0,60,61
 209.711914062 477.420898438 209.711914062 477.420898438 214 486.5 c 1,62,63
 218.633789062 492.174804688 218.633789062 492.174804688 261.25 504 c 0,64,65
 276.165039062 508.971679688 276.165039062 508.971679688 306.463867188 520.705078125 c 0,66,67
 373.5546875 546.264648438 373.5546875 546.264648438 406.5 551.25 c 1,68,69
 406.5 410.603515625 406.5 410.603515625 425.514648438 360.309570312 c 0,70,71
 451.024414062 298.755859375 451.024414062 298.755859375 504.5 278.25 c 1,72,73
 541.125976562 269.180664062 541.125976562 269.180664062 635.75 271.25 c 1,74,-1
 635.75 0 l 1,75,76
 501.123046875 0 501.123046875 0 467.780273438 6.599609375 c 0,77,78
 402.450195312 20.716796875 402.450195312 20.716796875 362.75 59.5 c 0,79,80
 326.318359375 95.931640625 326.318359375 95.931640625 322.5 120.75 c 1,81,82
 271.041015625 66.2509765625 271.041015625 66.2509765625 252.5 54.25 c 0,83,84
 212.25 28 212.25 28 158.875 14.875 c 128,-1,85
 105.5 1.75 105.5 1.75 72.25 0.875 c 128,-1,86
 39 0 39 0 -30.00390625 -0.20703125 c 0,87,88
 -53.75 0 -53.75 0 -66 0 c 1,89,-1
 -66 271.25 l 1,50,51
EndSplineSet
EndChar

StartChar: afii57420
Encoding: 1580 1580 365
AltUni2: 00fe9d.ffffffff.0
Width: 1297
VWidth: 1750
GlyphClass: 2
Flags: HW
AnchorPoint: "GposMark2BaseAnchorClassErabAbove_01_02" 648.375 903.791 basechar 0
AnchorPoint: "GposMark2BaseAnchorClassErabBelow_01_02" 648.375 -1011.76 basechar 0
LayerCount: 2
Fore
SplineSet
19.25 474.25 m 1,0,1
 23.734375 494.247070312 23.734375 494.247070312 54.25 554.75 c 0,2,3
 136.327148438 714.755859375 136.327148438 714.755859375 234.5 743.75 c 0,4,5
 273.919921875 753.791015625 273.919921875 753.791015625 379.75 745.5 c 0,6,7
 459.50390625 740.333984375 459.50390625 740.333984375 624.75 722.75 c 0,8,9
 832.862304688 699.7890625 832.862304688 699.7890625 911.75 698.25 c 0,10,11
 1010.95605469 695.3984375 1010.95605469 695.3984375 1088.5 700 c 0,12,13
 1103.5 700.75 1103.5 700.75 1133.5 704.178710938 c 0,14,15
 1173.5 708.75 1173.5 708.75 1193.5 708.75 c 1,16,17
 1193.5 667.872070312 1193.5 667.872070312 1169.68945312 498.75 c 0,18,19
 1164.23339844 459.197265625 1164.23339844 459.197265625 1162 430.5 c 1,20,21
 880.596679688 429.538085938 880.596679688 429.538085938 589.75 253.75 c 0,22,23
 434.11328125 158.909179688 434.11328125 158.909179688 357 70 c 1,24,25
 288.198242188 -12.564453125 288.198242188 -12.564453125 266 -84 c 0,26,27
 217.201171875 -236.495117188 217.201171875 -236.495117188 292.33984375 -373.999023438 c 0,28,29
 321.1953125 -425.202148438 321.1953125 -425.202148438 362.25 -462 c 0,30,31
 443.21875 -532.446289062 443.21875 -532.446289062 584.5 -563.5 c 0,32,33
 806.947265625 -612.012695312 806.947265625 -612.012695312 1051.75 -575.75 c 0,34,35
 1076.00390625 -571.33984375 1076.00390625 -571.33984375 1123.84472656 -559.446289062 c 0,36,37
 1190.36425781 -543.129882812 1190.36425781 -543.129882812 1223.25 -539 c 1,38,-1
 1296.75 -771.75 l 1,39,40
 1279.26660156 -775.864257812 1279.26660156 -775.864257812 1245.40234375 -787.754882812 c 0,41,42
 1220.89550781 -796.263671875 1220.89550781 -796.263671875 1209.25 -799.75 c 0,43,44
 1133.125 -823.375 1133.125 -823.375 1057 -836.5 c 0,45,46
 923.706054688 -861.764648438 923.706054688 -861.764648438 784 -859.25 c 0,47,48
 393.6953125 -854.752929688 393.6953125 -854.752929688 189 -686 c 1,49,50
 19.2529296875 -543.413085938 19.2529296875 -543.413085938 1.6796875 -288.688476562 c 0,51,52
 0.0576171875 -263.455078125 0.0576171875 -263.455078125 0 -239.75 c 0,53,54
 0.6796875 -120.020507812 0.6796875 -120.020507812 38.5 -24.5 c 1,55,56
 123.075195312 169.78515625 123.075195312 169.78515625 348.25 330.75 c 0,57,58
 408.766601562 374.62109375 408.766601562 374.62109375 490 418.25 c 1,59,60
 538.45703125 447.4453125 538.45703125 447.4453125 565.25 455 c 1,61,-1
 565.25 456.75 l 1,62,63
 547.557617188 456.75 547.557617188 456.75 407.452148438 473.459960938 c 0,64,65
 393.654296875 475.053710938 393.654296875 475.053710938 383.25 476 c 0,66,67
 312.834960938 484.2109375 312.834960938 484.2109375 292.25 479.5 c 1,68,69
 237.357421875 462.034179688 237.357421875 462.034179688 202.653320312 396.518554688 c 0,70,71
 200.607421875 392.504882812 200.607421875 392.504882812 199.5 390.25 c 1,72,-1
 140 414.75 l 1,73,-1
 19.25 474.25 l 1,0,1
519.75 -220.5 m 1,74,75
 557.80078125 -173.2421875 557.80078125 -173.2421875 626.5 -80.5 c 0,76,77
 630.223632812 -75.7119140625 630.223632812 -75.7119140625 638.592773438 -62.802734375 c 0,78,79
 660.423828125 -30.56640625 660.423828125 -30.56640625 672 -22.75 c 0,80,81
 678.701171875 -18.283203125 678.701171875 -18.283203125 715.670898438 -46.486328125 c 0,82,83
 718.381835938 -48.388671875 718.381835938 -48.388671875 719.25 -49 c 0,84,85
 739.375 -63 739.375 -63 780.5 -91 c 0,86,87
 822.17578125 -119.400390625 822.17578125 -119.400390625 841.75 -133 c 0,88,89
 880.25 -156.099609375 880.25 -156.099609375 880.25 -162.75 c 0,90,91
 879.374023438 -167.427734375 879.374023438 -167.427734375 864.5 -187.25 c 0,92,93
 855.75 -197.75 855.75 -197.75 839.125 -219.625 c 0,94,95
 821.983398438 -242.024414062 821.983398438 -242.024414062 813.75 -252 c 0,96,97
 803.25 -266 803.25 -266 782.25 -293.125 c 0,98,99
 760.802734375 -320.880859375 760.802734375 -320.880859375 750.75 -334.25 c 0,100,101
 729.29296875 -361.487304688 729.29296875 -361.487304688 728 -362.25 c 0,102,103
 720.590820312 -361.028320312 720.590820312 -361.028320312 712.25 -353.5 c 1,104,105
 698.302734375 -345.280273438 698.302734375 -345.280273438 675.5 -329 c 0,106,107
 658 -316.75 658 -316.75 623 -293.125 c 0,108,109
 587.416992188 -269.063476562 587.416992188 -269.063476562 570.5 -257.25 c 0,110,111
 523.20703125 -224.321289062 523.20703125 -224.321289062 519.75 -220.5 c 1,74,75
EndSplineSet
AlternateSubs2: "gsub_alternate_dfl_aalt_arab_FAR_Lookup_01_Subtable_01" uniFE9E uniFE9F afii57420 uniFEA0
Substitution2: "gsub_single_rtl_fina_arab_FAR_Lookup_01_Subtable_01" uniFE9E
Substitution2: "gsub_single_rtl_init_arab_FAR_Lookup_01_Subtable_01" uniFE9F
Substitution2: "gsub_single_rtl_medi_arab_FAR_Lookup_01_Subtable_01" uniFEA0
PairPos2: "gpos_pair_dfl_kern_arab_FAR_Lookup_01_Subtable_01" tcheharabic dx=0 dy=0 dh=0 dv=0 dx=0 dy=0 dh=0 dv=0
EndChar

StartChar: uniFE9E
Encoding: 65182 65182 366
Width: 1220
VWidth: 1750
GlyphClass: 2
Flags: HW
AnchorPoint: "GposMark2BaseAnchorClassErabAbove_01_02" 689.5 903.791 basechar 0
AnchorPoint: "GposMark2BaseAnchorClassErabBelow_01_02" 689.5 -1011.78 basechar 0
LayerCount: 2
Fore
SplineSet
19.25 474.25 m 1,0,1
 23.734375 494.247070312 23.734375 494.247070312 54.25 554.75 c 0,2,3
 136.327148438 714.755859375 136.327148438 714.755859375 234.5 743.75 c 0,4,5
 273.919921875 753.791015625 273.919921875 753.791015625 379.75 745.5 c 0,6,7
 459.50390625 740.333984375 459.50390625 740.333984375 624.75 722.75 c 0,8,9
 832.862304688 699.7890625 832.862304688 699.7890625 911.75 698.25 c 0,10,11
 1010.95605469 695.3984375 1010.95605469 695.3984375 1088.5 700 c 0,12,13
 1103.5 700.75 1103.5 700.75 1133.5 704.178710938 c 0,14,15
 1173.5 708.75 1173.5 708.75 1193.5 708.75 c 1,16,17
 1193.5 667.872070312 1193.5 667.872070312 1169.68945312 498.75 c 0,18,19
 1164.23339844 459.197265625 1164.23339844 459.197265625 1162 430.5 c 1,20,21
 1040.78613281 430.084960938 1040.78613281 430.084960938 964.25 411.25 c 1,22,23
 979.7265625 341.607421875 979.7265625 341.607421875 993.817382812 323.0390625 c 0,24,25
 995.591796875 320.702148438 995.591796875 320.702148438 997.5 318.5 c 0,26,27
 1040.80078125 271.420898438 1040.80078125 271.420898438 1149.75 271.25 c 2,28,-1
 1379 271.25 l 1,29,-1
 1379 0 l 1,30,-1
 1167.25 0 l 2,31,32
 1031.08691406 0 1031.08691406 0 979.34765625 20.322265625 c 0,33,34
 934.181640625 39.19140625 934.181640625 39.19140625 903 73.5 c 0,35,36
 885.784179688 93.6064453125 885.784179688 93.6064453125 868 126 c 1,37,38
 847.356445312 170.799804688 847.356445312 170.799804688 836.5 218.75 c 0,39,40
 824.322265625 279.39453125 824.322265625 279.39453125 824.25 372.75 c 1,41,42
 762.387695312 358.293945312 762.387695312 358.293945312 665 308 c 0,43,44
 405.284179688 176.676757812 405.284179688 176.676757812 299.25 -12.25 c 0,45,46
 218.041992188 -156.055664062 218.041992188 -156.055664062 265.83984375 -310.76953125 c 0,47,48
 297.588867188 -409.3359375 297.588867188 -409.3359375 374.5 -472.5 c 1,49,50
 482.286132812 -556.587890625 482.286132812 -556.587890625 673.75 -579.25 c 0,51,52
 889.750976562 -605.404296875 889.750976562 -605.404296875 1100.75 -568.75 c 0,53,54
 1122.68554688 -564.1796875 1122.68554688 -564.1796875 1165.37304688 -552.240234375 c 0,55,56
 1204.60253906 -541.373046875 1204.60253906 -541.373046875 1223.25 -537.25 c 1,57,-1
 1296.75 -771.75 l 1,58,59
 1283.09960938 -774.900390625 1283.09960938 -774.900390625 1255.79980469 -784.98046875 c 0,60,61
 1237.01660156 -791.814453125 1237.01660156 -791.814453125 1228.5 -794.5 c 0,62,63
 1139.96191406 -821.93359375 1139.96191406 -821.93359375 1060.5 -836.5 c 0,64,65
 927.119140625 -861.779296875 927.119140625 -861.779296875 784 -859.25 c 0,66,67
 393.6953125 -854.752929688 393.6953125 -854.752929688 189 -686 c 1,68,69
 19.2529296875 -543.413085938 19.2529296875 -543.413085938 1.6796875 -288.688476562 c 0,70,71
 0.0576171875 -263.455078125 0.0576171875 -263.455078125 0 -239.75 c 0,72,73
 0.6796875 -120.020507812 0.6796875 -120.020507812 38.5 -24.5 c 1,74,75
 123.075195312 169.78515625 123.075195312 169.78515625 348.25 330.75 c 0,76,77
 408.766601562 374.62109375 408.766601562 374.62109375 490 418.25 c 1,78,79
 538.45703125 447.4453125 538.45703125 447.4453125 565.25 455 c 1,80,-1
 565.25 456.75 l 1,81,82
 547.557617188 456.75 547.557617188 456.75 407.452148438 473.459960938 c 0,83,84
 393.654296875 475.053710938 393.654296875 475.053710938 383.25 476 c 0,85,86
 312.834960938 484.2109375 312.834960938 484.2109375 292.25 479.5 c 1,87,88
 237.357421875 462.034179688 237.357421875 462.034179688 202.653320312 396.518554688 c 0,89,90
 200.607421875 392.504882812 200.607421875 392.504882812 199.5 390.25 c 1,91,-1
 140 414.75 l 1,92,-1
 19.25 474.25 l 1,0,1
673.75 -40.25 m 1,93,-1
 882 -182 l 1,94,95
 877.213867188 -195.401367188 877.213867188 -195.401367188 838.095703125 -243.733398438 c 0,96,97
 834.727539062 -248.002929688 834.727539062 -248.002929688 833 -250.25 c 2,98,-1
 728 -386.75 l 1,99,-1
 519.75 -245 l 1,100,-1
 561.75 -187.25 l 1,101,-1
 673.75 -40.25 l 1,93,-1
EndSplineSet
PairPos2: "gpos_pair_dfl_kern_arab_FAR_Lookup_01_Subtable_01" tcheharabic dx=0 dy=0 dh=0 dv=0 dx=0 dy=0 dh=0 dv=0
EndChar

StartChar: uniFE9F
Encoding: 65183 65183 367
Width: 1414
VWidth: 1750
GlyphClass: 2
Flags: HW
AnchorPoint: "GposMark2BaseAnchorClassErabAbove_01_02" 612.875 916.147 basechar 0
AnchorPoint: "GposMark2BaseAnchorClassErabBelow_01_02" 612.875 -634.75 basechar 0
LayerCount: 2
Fore
SplineSet
109.75 509.25 m 1,0,1
 113.411132812 534.520507812 113.411132812 534.520507812 148.25 595 c 0,2,3
 243.88671875 759.096679688 243.88671875 759.096679688 353 764.75 c 0,4,5
 410.421875 766.147460938 410.421875 766.147460938 514 742 c 0,6,7
 539.16796875 735.973632812 539.16796875 735.973632812 780 665 c 1,8,9
 995.43359375 603.368164062 995.43359375 603.368164062 1131.75 593.25 c 0,10,11
 1148.41699219 593.262695312 1148.41699219 593.262695312 1257.75 596.75 c 1,12,-1
 1228 353.5 l 1,13,14
 1074.20898438 353.5 1074.20898438 353.5 869.275390625 234.4140625 c 0,15,16
 843.40625 219.380859375 843.40625 219.380859375 792.0546875 188.216796875 c 0,17,18
 656.033203125 105.978515625 656.033203125 105.978515625 585.75 75.25 c 0,19,20
 445.8203125 17.5234375 445.8203125 17.5234375 321.5 5.25 c 0,21,22
 228.75 -5.25 228.75 -5.25 61.9326171875 -0.9931640625 c 0,23,24
 -0.5 0 -0.5 0 -32 0 c 1,25,-1
 -32 271.25 l 1,26,27
 235.479492188 271.25 235.479492188 271.25 297.7734375 276.836914062 c 0,28,29
 375.532226562 284.064453125 375.532226562 284.064453125 440.5 299.25 c 0,30,31
 493.793945312 311.213867188 493.793945312 311.213867188 682.122070312 380.111328125 c 0,32,33
 687.385742188 382.030273438 687.385742188 382.030273438 690.75 383.25 c 0,34,35
 701.864257812 386.955078125 701.864257812 386.955078125 724.592773438 396.1328125 c 0,36,37
 767.146484375 412.921875 767.146484375 412.921875 787 416.5 c 1,38,-1
 787 418.25 l 1,39,40
 759.958007812 418.74609375 759.958007812 418.74609375 675 444.5 c 0,41,42
 650.708984375 451.301757812 650.708984375 451.301757812 601.391601562 466.583984375 c 0,43,44
 470.649414062 506.7578125 470.649414062 506.7578125 405.5 514.5 c 1,45,46
 358.274414062 517.81640625 358.274414062 517.81640625 321.5 472.5 c 0,47,48
 319.040039062 469.547851562 319.040039062 469.547851562 312.991210938 460.42578125 c 0,49,50
 294.21875 434.212890625 294.21875 434.212890625 284.75 430.5 c 1,51,52
 274.740234375 428.614257812 274.740234375 428.614257812 237.5 448 c 1,53,54
 180.251953125 471.142578125 180.251953125 471.142578125 109.75 509.25 c 1,0,1
750.25 -141.75 m 1,55,-1
 958.5 -283.5 l 1,56,-1
 916.5 -339.5 l 1,57,-1
 843 -435.75 l 1,58,-1
 815 -472.5 l 1,59,-1
 802.75 -484.75 l 1,60,-1
 787 -476 l 1,61,-1
 748.5 -449.75 l 1,62,-1
 596.25 -346.5 l 1,63,64
 601.370117188 -334.552734375 601.370117188 -334.552734375 643.318359375 -281.282226562 c 0,65,66
 645.879882812 -277.962890625 645.879882812 -277.962890625 647 -276.5 c 0,67,68
 659.059570312 -260.823242188 659.059570312 -260.823242188 682.2890625 -229.131835938 c 0,69,70
 726.732421875 -168.815429688 726.732421875 -168.815429688 750.25 -141.75 c 1,55,-1
EndSplineSet
EndChar

StartChar: uniFEA0
Encoding: 65184 65184 368
Width: 1419
VWidth: 1750
GlyphClass: 2
Flags: HW
AnchorPoint: "GposMark2BaseAnchorClassErabAbove_01_02" 709.125 942.703 basechar 0
AnchorPoint: "GposMark2BaseAnchorClassErabBelow_01_02" 709.125 -634.75 basechar 0
LayerCount: 2
Fore
SplineSet
116.75 509.25 m 1,0,1
 119.735351562 528.377929688 119.735351562 528.377929688 151.75 591.5 c 0,2,3
 243.537109375 770.321289062 243.537109375 770.321289062 351.25 787.5 c 1,4,5
 398.587890625 792.703125 398.587890625 792.703125 486 778.75 c 1,6,7
 573.330078125 768.296875 573.330078125 768.296875 748.5 729.75 c 1,8,9
 1000.36425781 670.625976562 1000.36425781 670.625976562 1133.5 665 c 0,10,11
 1171.03320312 663.885742188 1171.03320312 663.885742188 1287.5 672 c 1,12,-1
 1273.5 554.75 l 1,13,-1
 1256 407.75 l 1,14,15
 1175.30664062 407.373046875 1175.30664062 407.373046875 1110.75 393.75 c 0,16,17
 1099.375 392 1099.375 392 1075.75 385.875 c 0,18,19
 1051.59667969 379.784179688 1051.59667969 379.784179688 1040.75 378 c 1,20,21
 1055.52832031 295.344726562 1055.52832031 295.344726562 1149.25 276.5 c 0,22,23
 1181.81054688 271.146484375 1181.81054688 271.146484375 1273.5 271.25 c 2,24,-1
 1450.25 271.25 l 1,25,-1
 1450.25 0 l 1,26,-1
 1249 0 l 2,27,28
 1107.56347656 0 1107.56347656 0 1051.49023438 23.9501953125 c 0,29,30
 1013.63085938 41.052734375 1013.63085938 41.052734375 986.5 68.25 c 0,31,32
 967.544921875 87.9482421875 967.544921875 87.9482421875 949.75 117.25 c 0,33,34
 927.555664062 157.819335938 927.555664062 157.819335938 916.5 206.5 c 0,35,36
 900.965820312 270.377929688 900.965820312 270.377929688 900.75 337.75 c 1,37,38
 834.526367188 303.09765625 834.526367188 303.09765625 681.594726562 184.951171875 c 0,39,40
 560.04296875 91.046875 560.04296875 91.046875 477.25 54.25 c 0,41,42
 346.271484375 -4.12109375 346.271484375 -4.12109375 106.112304688 -1.7109375 c 0,43,44
 88.2470703125 -1.53125 88.2470703125 -1.53125 52.529296875 -0.9384765625 c 0,45,46
 -3.93359375 0 -3.93359375 0 -32 0 c 1,47,-1
 -32 271.25 l 1,48,49
 198.290039062 271.25 198.290039062 271.25 251.958007812 276.866210938 c 0,50,51
 341.576171875 286.669921875 341.576171875 286.669921875 412.5 311.5 c 0,52,53
 463.0390625 329.469726562 463.0390625 329.469726562 619.444335938 413.513671875 c 0,54,55
 630.248046875 419.296875 630.248046875 419.296875 638.25 423.5 c 0,56,57
 715.708007812 466.658203125 715.708007812 466.658203125 727.5 470.75 c 1,58,-1
 727.5 472.5 l 1,59,60
 687.752929688 474.228515625 687.752929688 474.228515625 524.080078125 504.733398438 c 0,61,62
 503.411132812 508.534179688 503.411132812 508.534179688 487.75 511 c 0,63,64
 421.807617188 523.05078125 421.807617188 523.05078125 402 523.25 c 1,65,66
 359.021484375 519.64453125 359.021484375 519.64453125 316.25 462 c 0,67,68
 313.932617188 459.103515625 313.932617188 459.103515625 308.787109375 451.196289062 c 0,69,70
 297.10546875 434.522460938 297.10546875 434.522460938 291.75 430.5 c 1,71,72
 285.295898438 429.166992188 285.295898438 429.166992188 246.25 446.25 c 0,73,74
 175.26953125 477.653320312 175.26953125 477.653320312 116.75 509.25 c 1,0,1
750.25 -141.75 m 1,75,-1
 958.5 -283.5 l 1,76,-1
 916.5 -339.5 l 1,77,-1
 843 -435.75 l 1,78,-1
 815 -472.5 l 1,79,-1
 802.75 -484.75 l 1,80,-1
 787 -476 l 1,81,-1
 748.5 -449.75 l 1,82,-1
 596.25 -346.5 l 1,83,84
 601.370117188 -334.552734375 601.370117188 -334.552734375 643.318359375 -281.282226562 c 0,85,86
 645.879882812 -277.962890625 645.879882812 -277.962890625 647 -276.5 c 0,87,88
 659.059570312 -260.823242188 659.059570312 -260.823242188 682.2890625 -229.131835938 c 0,89,90
 726.732421875 -168.815429688 726.732421875 -168.815429688 750.25 -141.75 c 1,75,-1
EndSplineSet
EndChar

StartChar: afii57421
Encoding: 1581 1581 369
AltUni2: 00fea1.ffffffff.0
Width: 1297
VWidth: 1750
GlyphClass: 2
Flags: HW
AnchorPoint: "GposMark2BaseAnchorClassErabAbove_01_02" 648.375 903.791 basechar 0
AnchorPoint: "GposMark2BaseAnchorClassErabBelow_01_02" 648.375 -1011.76 basechar 0
LayerCount: 2
Fore
SplineSet
19.25 474.25 m 1,0,1
 23.734375 494.247070312 23.734375 494.247070312 54.25 554.75 c 0,2,3
 136.327148438 714.755859375 136.327148438 714.755859375 234.5 743.75 c 0,4,5
 273.919921875 753.791015625 273.919921875 753.791015625 379.75 745.5 c 0,6,7
 459.50390625 740.333984375 459.50390625 740.333984375 624.75 722.75 c 0,8,9
 832.862304688 699.7890625 832.862304688 699.7890625 911.75 698.25 c 0,10,11
 1010.95605469 695.3984375 1010.95605469 695.3984375 1088.5 700 c 0,12,13
 1103.5 700.75 1103.5 700.75 1133.5 704.178710938 c 0,14,15
 1173.5 708.75 1173.5 708.75 1193.5 708.75 c 1,16,17
 1193.5 667.872070312 1193.5 667.872070312 1169.68945312 498.75 c 0,18,19
 1164.23339844 459.197265625 1164.23339844 459.197265625 1162 430.5 c 1,20,21
 880.596679688 429.538085938 880.596679688 429.538085938 589.75 253.75 c 0,22,23
 434.11328125 158.909179688 434.11328125 158.909179688 357 70 c 1,24,25
 288.198242188 -12.564453125 288.198242188 -12.564453125 266 -84 c 0,26,27
 217.201171875 -236.495117188 217.201171875 -236.495117188 292.33984375 -373.999023438 c 0,28,29
 321.1953125 -425.202148438 321.1953125 -425.202148438 362.25 -462 c 0,30,31
 443.21875 -532.446289062 443.21875 -532.446289062 584.5 -563.5 c 0,32,33
 806.947265625 -612.012695312 806.947265625 -612.012695312 1051.75 -575.75 c 0,34,35
 1076.00390625 -571.33984375 1076.00390625 -571.33984375 1123.84472656 -559.446289062 c 0,36,37
 1190.36425781 -543.129882812 1190.36425781 -543.129882812 1223.25 -539 c 1,38,-1
 1296.75 -771.75 l 1,39,40
 1279.26660156 -775.864257812 1279.26660156 -775.864257812 1245.40234375 -787.754882812 c 0,41,42
 1220.89550781 -796.263671875 1220.89550781 -796.263671875 1209.25 -799.75 c 0,43,44
 1133.125 -823.375 1133.125 -823.375 1057 -836.5 c 0,45,46
 923.706054688 -861.764648438 923.706054688 -861.764648438 784 -859.25 c 0,47,48
 393.6953125 -854.752929688 393.6953125 -854.752929688 189 -686 c 1,49,50
 19.2529296875 -543.413085938 19.2529296875 -543.413085938 1.6796875 -288.688476562 c 0,51,52
 0.0576171875 -263.455078125 0.0576171875 -263.455078125 0 -239.75 c 0,53,54
 0.6796875 -120.020507812 0.6796875 -120.020507812 38.5 -24.5 c 1,55,56
 123.075195312 169.78515625 123.075195312 169.78515625 348.25 330.75 c 0,57,58
 408.766601562 374.62109375 408.766601562 374.62109375 490 418.25 c 1,59,60
 538.45703125 447.4453125 538.45703125 447.4453125 565.25 455 c 1,61,-1
 565.25 456.75 l 1,62,63
 547.557617188 456.75 547.557617188 456.75 407.452148438 473.459960938 c 0,64,65
 393.654296875 475.053710938 393.654296875 475.053710938 383.25 476 c 0,66,67
 312.834960938 484.2109375 312.834960938 484.2109375 292.25 479.5 c 1,68,69
 237.357421875 462.034179688 237.357421875 462.034179688 202.653320312 396.518554688 c 0,70,71
 200.607421875 392.504882812 200.607421875 392.504882812 199.5 390.25 c 1,72,-1
 140 414.75 l 1,73,-1
 19.25 474.25 l 1,0,1
EndSplineSet
AlternateSubs2: "gsub_alternate_dfl_aalt_arab_FAR_Lookup_01_Subtable_01" uniFEA2 uniFEA3 afii57421 uniFEA4
Substitution2: "gsub_single_rtl_fina_arab_FAR_Lookup_01_Subtable_01" uniFEA2
Substitution2: "gsub_single_rtl_init_arab_FAR_Lookup_01_Subtable_01" uniFEA3
Substitution2: "gsub_single_rtl_medi_arab_FAR_Lookup_01_Subtable_01" uniFEA4
PairPos2: "gpos_pair_dfl_kern_arab_FAR_Lookup_01_Subtable_01" tcheharabic dx=0 dy=0 dh=0 dv=0 dx=0 dy=0 dh=0 dv=0
EndChar

StartChar: uniFEA2
Encoding: 65186 65186 370
Width: 1220
VWidth: 1750
GlyphClass: 2
Flags: HW
AnchorPoint: "GposMark2BaseAnchorClassErabAbove_01_02" 689.5 903.791 basechar 0
AnchorPoint: "GposMark2BaseAnchorClassErabBelow_01_02" 689.5 -1011.78 basechar 0
LayerCount: 2
Fore
SplineSet
19.25 474.25 m 1,0,1
 23.734375 494.247070312 23.734375 494.247070312 54.25 554.75 c 0,2,3
 136.327148438 714.755859375 136.327148438 714.755859375 234.5 743.75 c 0,4,5
 273.919921875 753.791015625 273.919921875 753.791015625 379.75 745.5 c 0,6,7
 459.50390625 740.333984375 459.50390625 740.333984375 624.75 722.75 c 0,8,9
 832.862304688 699.7890625 832.862304688 699.7890625 911.75 698.25 c 0,10,11
 1010.95605469 695.3984375 1010.95605469 695.3984375 1088.5 700 c 0,12,13
 1103.5 700.75 1103.5 700.75 1133.5 704.178710938 c 0,14,15
 1173.5 708.75 1173.5 708.75 1193.5 708.75 c 1,16,17
 1193.5 667.872070312 1193.5 667.872070312 1169.68945312 498.75 c 0,18,19
 1164.23339844 459.197265625 1164.23339844 459.197265625 1162 430.5 c 1,20,21
 1040.78613281 430.084960938 1040.78613281 430.084960938 964.25 411.25 c 1,22,23
 979.7265625 341.607421875 979.7265625 341.607421875 993.817382812 323.0390625 c 0,24,25
 995.591796875 320.702148438 995.591796875 320.702148438 997.5 318.5 c 0,26,27
 1040.80078125 271.420898438 1040.80078125 271.420898438 1149.75 271.25 c 2,28,-1
 1379 271.25 l 1,29,-1
 1379 0 l 1,30,-1
 1167.25 0 l 2,31,32
 1031.08691406 0 1031.08691406 0 979.34765625 20.322265625 c 0,33,34
 934.181640625 39.19140625 934.181640625 39.19140625 903 73.5 c 0,35,36
 885.784179688 93.6064453125 885.784179688 93.6064453125 868 126 c 1,37,38
 847.356445312 170.799804688 847.356445312 170.799804688 836.5 218.75 c 0,39,40
 824.322265625 279.39453125 824.322265625 279.39453125 824.25 372.75 c 1,41,42
 762.387695312 358.293945312 762.387695312 358.293945312 665 308 c 0,43,44
 405.284179688 176.676757812 405.284179688 176.676757812 299.25 -12.25 c 0,45,46
 218.041992188 -156.055664062 218.041992188 -156.055664062 265.83984375 -310.76953125 c 0,47,48
 297.588867188 -409.3359375 297.588867188 -409.3359375 374.5 -472.5 c 1,49,50
 482.286132812 -556.587890625 482.286132812 -556.587890625 673.75 -579.25 c 0,51,52
 889.750976562 -605.404296875 889.750976562 -605.404296875 1100.75 -568.75 c 0,53,54
 1122.68554688 -564.1796875 1122.68554688 -564.1796875 1165.37304688 -552.240234375 c 0,55,56
 1204.60253906 -541.373046875 1204.60253906 -541.373046875 1223.25 -537.25 c 1,57,-1
 1296.75 -771.75 l 1,58,59
 1283.09960938 -774.900390625 1283.09960938 -774.900390625 1255.79980469 -784.98046875 c 0,60,61
 1237.01660156 -791.814453125 1237.01660156 -791.814453125 1228.5 -794.5 c 0,62,63
 1139.96191406 -821.93359375 1139.96191406 -821.93359375 1060.5 -836.5 c 0,64,65
 927.119140625 -861.779296875 927.119140625 -861.779296875 784 -859.25 c 0,66,67
 393.6953125 -854.752929688 393.6953125 -854.752929688 189 -686 c 1,68,69
 19.2529296875 -543.413085938 19.2529296875 -543.413085938 1.6796875 -288.688476562 c 0,70,71
 0.0576171875 -263.455078125 0.0576171875 -263.455078125 0 -239.75 c 0,72,73
 0.6796875 -120.020507812 0.6796875 -120.020507812 38.5 -24.5 c 1,74,75
 123.075195312 169.78515625 123.075195312 169.78515625 348.25 330.75 c 0,76,77
 408.766601562 374.62109375 408.766601562 374.62109375 490 418.25 c 1,78,79
 538.45703125 447.4453125 538.45703125 447.4453125 565.25 455 c 1,80,-1
 565.25 456.75 l 1,81,82
 547.557617188 456.75 547.557617188 456.75 407.452148438 473.459960938 c 0,83,84
 393.654296875 475.053710938 393.654296875 475.053710938 383.25 476 c 0,85,86
 312.834960938 484.2109375 312.834960938 484.2109375 292.25 479.5 c 1,87,88
 237.357421875 462.034179688 237.357421875 462.034179688 202.653320312 396.518554688 c 0,89,90
 200.607421875 392.504882812 200.607421875 392.504882812 199.5 390.25 c 1,91,-1
 140 414.75 l 1,92,-1
 19.25 474.25 l 1,0,1
EndSplineSet
PairPos2: "gpos_pair_dfl_kern_arab_FAR_Lookup_01_Subtable_01" tcheharabic dx=0 dy=0 dh=0 dv=0 dx=0 dy=0 dh=0 dv=0
EndChar

StartChar: uniFEA3
Encoding: 65187 65187 371
Width: 1414
VWidth: 1750
GlyphClass: 2
Flags: HW
AnchorPoint: "GposMark2BaseAnchorClassErabAbove_01_02" 612.875 916.147 basechar 0
AnchorPoint: "GposMark2BaseAnchorClassErabBelow_01_02" 612.875 -155.25 basechar 0
LayerCount: 2
Fore
SplineSet
109.75 509.25 m 1,0,1
 113.411132812 534.520507812 113.411132812 534.520507812 148.25 595 c 0,2,3
 243.88671875 759.096679688 243.88671875 759.096679688 353 764.75 c 0,4,5
 410.421875 766.147460938 410.421875 766.147460938 514 742 c 0,6,7
 539.16796875 735.973632812 539.16796875 735.973632812 780 665 c 1,8,9
 995.43359375 603.368164062 995.43359375 603.368164062 1131.75 593.25 c 0,10,11
 1148.41699219 593.262695312 1148.41699219 593.262695312 1257.75 596.75 c 1,12,-1
 1228 353.5 l 1,13,14
 1074.20898438 353.5 1074.20898438 353.5 869.275390625 234.4140625 c 0,15,16
 843.40625 219.380859375 843.40625 219.380859375 792.0546875 188.216796875 c 0,17,18
 656.033203125 105.978515625 656.033203125 105.978515625 585.75 75.25 c 0,19,20
 445.8203125 17.5234375 445.8203125 17.5234375 321.5 5.25 c 0,21,22
 228.75 -5.25 228.75 -5.25 61.9326171875 -0.9931640625 c 0,23,24
 -0.5 0 -0.5 0 -32 0 c 1,25,-1
 -32 271.25 l 1,26,27
 235.479492188 271.25 235.479492188 271.25 297.7734375 276.836914062 c 0,28,29
 375.532226562 284.064453125 375.532226562 284.064453125 440.5 299.25 c 0,30,31
 493.793945312 311.213867188 493.793945312 311.213867188 682.122070312 380.111328125 c 0,32,33
 687.385742188 382.030273438 687.385742188 382.030273438 690.75 383.25 c 0,34,35
 701.864257812 386.955078125 701.864257812 386.955078125 724.592773438 396.1328125 c 0,36,37
 767.146484375 412.921875 767.146484375 412.921875 787 416.5 c 1,38,-1
 787 418.25 l 1,39,40
 759.958007812 418.74609375 759.958007812 418.74609375 675 444.5 c 0,41,42
 650.708984375 451.301757812 650.708984375 451.301757812 601.391601562 466.583984375 c 0,43,44
 470.649414062 506.7578125 470.649414062 506.7578125 405.5 514.5 c 1,45,46
 358.274414062 517.81640625 358.274414062 517.81640625 321.5 472.5 c 0,47,48
 319.040039062 469.547851562 319.040039062 469.547851562 312.991210938 460.42578125 c 0,49,50
 294.21875 434.212890625 294.21875 434.212890625 284.75 430.5 c 1,51,52
 274.740234375 428.614257812 274.740234375 428.614257812 237.5 448 c 1,53,54
 180.251953125 471.142578125 180.251953125 471.142578125 109.75 509.25 c 1,0,1
EndSplineSet
EndChar

StartChar: uniFEA4
Encoding: 65188 65188 372
Width: 1419
VWidth: 1750
GlyphClass: 2
Flags: HW
AnchorPoint: "GposMark2BaseAnchorClassErabAbove_01_02" 709.125 942.703 basechar 0
AnchorPoint: "GposMark2BaseAnchorClassErabBelow_01_02" 709.125 -154.121 basechar 0
LayerCount: 2
Fore
SplineSet
116.75 509.25 m 1,0,1
 119.735351562 528.377929688 119.735351562 528.377929688 151.75 591.5 c 0,2,3
 243.537109375 770.321289062 243.537109375 770.321289062 351.25 787.5 c 1,4,5
 398.587890625 792.703125 398.587890625 792.703125 486 778.75 c 1,6,7
 573.330078125 768.296875 573.330078125 768.296875 748.5 729.75 c 1,8,9
 1000.36425781 670.625976562 1000.36425781 670.625976562 1133.5 665 c 0,10,11
 1171.03320312 663.885742188 1171.03320312 663.885742188 1287.5 672 c 1,12,-1
 1273.5 554.75 l 1,13,-1
 1256 407.75 l 1,14,15
 1175.30664062 407.373046875 1175.30664062 407.373046875 1110.75 393.75 c 0,16,17
 1099.375 392 1099.375 392 1075.75 385.875 c 0,18,19
 1051.59667969 379.784179688 1051.59667969 379.784179688 1040.75 378 c 1,20,21
 1055.52832031 295.344726562 1055.52832031 295.344726562 1149.25 276.5 c 0,22,23
 1181.81054688 271.146484375 1181.81054688 271.146484375 1273.5 271.25 c 2,24,-1
 1450.25 271.25 l 1,25,-1
 1450.25 0 l 1,26,-1
 1249 0 l 2,27,28
 1107.56347656 0 1107.56347656 0 1051.49023438 23.9501953125 c 0,29,30
 1013.63085938 41.052734375 1013.63085938 41.052734375 986.5 68.25 c 0,31,32
 967.544921875 87.9482421875 967.544921875 87.9482421875 949.75 117.25 c 0,33,34
 927.555664062 157.819335938 927.555664062 157.819335938 916.5 206.5 c 0,35,36
 900.965820312 270.377929688 900.965820312 270.377929688 900.75 337.75 c 1,37,38
 834.526367188 303.09765625 834.526367188 303.09765625 681.594726562 184.951171875 c 0,39,40
 560.04296875 91.046875 560.04296875 91.046875 477.25 54.25 c 0,41,42
 346.271484375 -4.12109375 346.271484375 -4.12109375 106.112304688 -1.7109375 c 0,43,44
 88.2470703125 -1.53125 88.2470703125 -1.53125 52.529296875 -0.9384765625 c 0,45,46
 -3.93359375 0 -3.93359375 0 -32 0 c 1,47,-1
 -32 271.25 l 1,48,49
 198.290039062 271.25 198.290039062 271.25 251.958007812 276.866210938 c 0,50,51
 341.576171875 286.669921875 341.576171875 286.669921875 412.5 311.5 c 0,52,53
 463.0390625 329.469726562 463.0390625 329.469726562 619.444335938 413.513671875 c 0,54,55
 630.248046875 419.296875 630.248046875 419.296875 638.25 423.5 c 0,56,57
 715.708007812 466.658203125 715.708007812 466.658203125 727.5 470.75 c 1,58,-1
 727.5 472.5 l 1,59,60
 687.752929688 474.228515625 687.752929688 474.228515625 524.080078125 504.733398438 c 0,61,62
 503.411132812 508.534179688 503.411132812 508.534179688 487.75 511 c 0,63,64
 421.807617188 523.05078125 421.807617188 523.05078125 402 523.25 c 1,65,66
 359.021484375 519.64453125 359.021484375 519.64453125 316.25 462 c 0,67,68
 313.932617188 459.103515625 313.932617188 459.103515625 308.787109375 451.196289062 c 0,69,70
 297.10546875 434.522460938 297.10546875 434.522460938 291.75 430.5 c 1,71,72
 285.295898438 429.166992188 285.295898438 429.166992188 246.25 446.25 c 0,73,74
 175.26953125 477.653320312 175.26953125 477.653320312 116.75 509.25 c 1,0,1
EndSplineSet
EndChar

StartChar: afii57422
Encoding: 1582 1582 373
AltUni2: 00fea5.ffffffff.0
Width: 1297
VWidth: 1750
GlyphClass: 2
Flags: HW
AnchorPoint: "GposMark2BaseAnchorClassErabAbove_01_02" 648.375 1445 basechar 0
AnchorPoint: "GposMark2BaseAnchorClassErabBelow_01_02" 648.375 -1011.76 basechar 0
LayerCount: 2
Fore
SplineSet
449.75 1095.5 m 1,0,-1
 563.5 1244.25 l 1,1,-1
 593.25 1282.75 l 1,2,-1
 605.5 1295 l 1,3,-1
 623 1286.25 l 1,4,-1
 663.25 1258.25 l 1,5,-1
 812 1156.75 l 1,6,7
 808.592773438 1141.98632812 808.592773438 1141.98632812 771.575195312 1099.77050781 c 0,8,9
 768.126953125 1095.71679688 768.126953125 1095.71679688 766.5 1093.75 c 0,10,11
 685.487304688 984.618164062 685.487304688 984.618164062 658 952 c 1,12,-1
 656.25 952 l 1,13,-1
 449.75 1093.75 l 1,14,-1
 449.75 1095.5 l 1,0,-1
19.25 474.25 m 1,15,16
 23.734375 494.247070312 23.734375 494.247070312 54.25 554.75 c 0,17,18
 136.327148438 714.755859375 136.327148438 714.755859375 234.5 743.75 c 0,19,20
 273.919921875 753.791015625 273.919921875 753.791015625 379.75 745.5 c 0,21,22
 459.50390625 740.333984375 459.50390625 740.333984375 624.75 722.75 c 0,23,24
 832.862304688 699.7890625 832.862304688 699.7890625 911.75 698.25 c 0,25,26
 1010.95605469 695.3984375 1010.95605469 695.3984375 1088.5 700 c 0,27,28
 1103.5 700.75 1103.5 700.75 1133.5 704.178710938 c 0,29,30
 1173.5 708.75 1173.5 708.75 1193.5 708.75 c 1,31,32
 1193.5 667.872070312 1193.5 667.872070312 1169.68945312 498.75 c 0,33,34
 1164.23339844 459.197265625 1164.23339844 459.197265625 1162 430.5 c 1,35,36
 880.596679688 429.538085938 880.596679688 429.538085938 589.75 253.75 c 0,37,38
 434.11328125 158.909179688 434.11328125 158.909179688 357 70 c 1,39,40
 288.198242188 -12.564453125 288.198242188 -12.564453125 266 -84 c 0,41,42
 217.201171875 -236.495117188 217.201171875 -236.495117188 292.33984375 -373.999023438 c 0,43,44
 321.1953125 -425.202148438 321.1953125 -425.202148438 362.25 -462 c 0,45,46
 443.21875 -532.446289062 443.21875 -532.446289062 584.5 -563.5 c 0,47,48
 806.947265625 -612.012695312 806.947265625 -612.012695312 1051.75 -575.75 c 0,49,50
 1076.00390625 -571.33984375 1076.00390625 -571.33984375 1123.84472656 -559.446289062 c 0,51,52
 1190.36425781 -543.129882812 1190.36425781 -543.129882812 1223.25 -539 c 1,53,-1
 1296.75 -771.75 l 1,54,55
 1279.26660156 -775.864257812 1279.26660156 -775.864257812 1245.40234375 -787.754882812 c 0,56,57
 1220.89550781 -796.263671875 1220.89550781 -796.263671875 1209.25 -799.75 c 0,58,59
 1133.125 -823.375 1133.125 -823.375 1057 -836.5 c 0,60,61
 923.706054688 -861.764648438 923.706054688 -861.764648438 784 -859.25 c 0,62,63
 393.6953125 -854.752929688 393.6953125 -854.752929688 189 -686 c 1,64,65
 19.2529296875 -543.413085938 19.2529296875 -543.413085938 1.6796875 -288.688476562 c 0,66,67
 0.0576171875 -263.455078125 0.0576171875 -263.455078125 0 -239.75 c 0,68,69
 0.6796875 -120.020507812 0.6796875 -120.020507812 38.5 -24.5 c 1,70,71
 123.075195312 169.78515625 123.075195312 169.78515625 348.25 330.75 c 0,72,73
 408.766601562 374.62109375 408.766601562 374.62109375 490 418.25 c 1,74,75
 538.45703125 447.4453125 538.45703125 447.4453125 565.25 455 c 1,76,-1
 565.25 456.75 l 1,77,78
 547.557617188 456.75 547.557617188 456.75 407.452148438 473.459960938 c 0,79,80
 393.654296875 475.053710938 393.654296875 475.053710938 383.25 476 c 0,81,82
 312.834960938 484.2109375 312.834960938 484.2109375 292.25 479.5 c 1,83,84
 237.357421875 462.034179688 237.357421875 462.034179688 202.653320312 396.518554688 c 0,85,86
 200.607421875 392.504882812 200.607421875 392.504882812 199.5 390.25 c 1,87,-1
 140 414.75 l 1,88,-1
 19.25 474.25 l 1,15,16
EndSplineSet
AlternateSubs2: "gsub_alternate_dfl_aalt_arab_FAR_Lookup_01_Subtable_01" uniFEA6 uniFEA7 afii57422 uniFEA8
Substitution2: "gsub_single_rtl_fina_arab_FAR_Lookup_01_Subtable_01" uniFEA6
Substitution2: "gsub_single_rtl_init_arab_FAR_Lookup_01_Subtable_01" uniFEA7
Substitution2: "gsub_single_rtl_medi_arab_FAR_Lookup_01_Subtable_01" uniFEA8
PairPos2: "gpos_pair_dfl_kern_arab_FAR_Lookup_01_Subtable_01" tcheharabic dx=0 dy=0 dh=0 dv=0 dx=0 dy=0 dh=0 dv=0
EndChar

StartChar: uniFEA6
Encoding: 65190 65190 374
Width: 1220
VWidth: 1750
GlyphClass: 2
Flags: HW
AnchorPoint: "GposMark2BaseAnchorClassErabAbove_01_02" 689.5 1445 basechar 0
AnchorPoint: "GposMark2BaseAnchorClassErabBelow_01_02" 689.5 -1011.78 basechar 0
LayerCount: 2
Fore
SplineSet
449.75 1095.5 m 1,0,-1
 563.5 1244.25 l 1,1,-1
 593.25 1282.75 l 1,2,-1
 605.5 1295 l 1,3,-1
 623 1286.25 l 1,4,-1
 663.25 1258.25 l 1,5,-1
 812 1156.75 l 1,6,7
 808.592773438 1141.98632812 808.592773438 1141.98632812 771.575195312 1099.77050781 c 0,8,9
 768.126953125 1095.71679688 768.126953125 1095.71679688 766.5 1093.75 c 0,10,11
 685.487304688 984.618164062 685.487304688 984.618164062 658 952 c 1,12,-1
 656.25 952 l 1,13,-1
 449.75 1093.75 l 1,14,-1
 449.75 1095.5 l 1,0,-1
19.25 474.25 m 1,15,16
 23.734375 494.247070312 23.734375 494.247070312 54.25 554.75 c 0,17,18
 136.327148438 714.755859375 136.327148438 714.755859375 234.5 743.75 c 0,19,20
 273.919921875 753.791015625 273.919921875 753.791015625 379.75 745.5 c 0,21,22
 459.50390625 740.333984375 459.50390625 740.333984375 624.75 722.75 c 0,23,24
 832.862304688 699.7890625 832.862304688 699.7890625 911.75 698.25 c 0,25,26
 1010.95605469 695.3984375 1010.95605469 695.3984375 1088.5 700 c 0,27,28
 1103.5 700.75 1103.5 700.75 1133.5 704.178710938 c 0,29,30
 1173.5 708.75 1173.5 708.75 1193.5 708.75 c 1,31,32
 1193.5 667.872070312 1193.5 667.872070312 1169.68945312 498.75 c 0,33,34
 1164.23339844 459.197265625 1164.23339844 459.197265625 1162 430.5 c 1,35,36
 1040.78613281 430.084960938 1040.78613281 430.084960938 964.25 411.25 c 1,37,38
 979.7265625 341.607421875 979.7265625 341.607421875 993.817382812 323.0390625 c 0,39,40
 995.591796875 320.702148438 995.591796875 320.702148438 997.5 318.5 c 0,41,42
 1040.80078125 271.420898438 1040.80078125 271.420898438 1149.75 271.25 c 2,43,-1
 1379 271.25 l 1,44,-1
 1379 0 l 1,45,-1
 1167.25 0 l 2,46,47
 1031.08691406 0 1031.08691406 0 979.34765625 20.322265625 c 0,48,49
 934.181640625 39.19140625 934.181640625 39.19140625 903 73.5 c 0,50,51
 885.784179688 93.6064453125 885.784179688 93.6064453125 868 126 c 1,52,53
 847.356445312 170.799804688 847.356445312 170.799804688 836.5 218.75 c 0,54,55
 824.322265625 279.39453125 824.322265625 279.39453125 824.25 372.75 c 1,56,57
 762.387695312 358.293945312 762.387695312 358.293945312 665 308 c 0,58,59
 405.284179688 176.676757812 405.284179688 176.676757812 299.25 -12.25 c 0,60,61
 218.041992188 -156.055664062 218.041992188 -156.055664062 265.83984375 -310.76953125 c 0,62,63
 297.588867188 -409.3359375 297.588867188 -409.3359375 374.5 -472.5 c 1,64,65
 482.286132812 -556.587890625 482.286132812 -556.587890625 673.75 -579.25 c 0,66,67
 889.750976562 -605.404296875 889.750976562 -605.404296875 1100.75 -568.75 c 0,68,69
 1122.68554688 -564.1796875 1122.68554688 -564.1796875 1165.37304688 -552.240234375 c 0,70,71
 1204.60253906 -541.373046875 1204.60253906 -541.373046875 1223.25 -537.25 c 1,72,-1
 1296.75 -771.75 l 1,73,74
 1283.09960938 -774.900390625 1283.09960938 -774.900390625 1255.79980469 -784.98046875 c 0,75,76
 1237.01660156 -791.814453125 1237.01660156 -791.814453125 1228.5 -794.5 c 0,77,78
 1139.96191406 -821.93359375 1139.96191406 -821.93359375 1060.5 -836.5 c 0,79,80
 927.119140625 -861.779296875 927.119140625 -861.779296875 784 -859.25 c 0,81,82
 393.6953125 -854.752929688 393.6953125 -854.752929688 189 -686 c 1,83,84
 19.2529296875 -543.413085938 19.2529296875 -543.413085938 1.6796875 -288.688476562 c 0,85,86
 0.0576171875 -263.455078125 0.0576171875 -263.455078125 0 -239.75 c 0,87,88
 0.6796875 -120.020507812 0.6796875 -120.020507812 38.5 -24.5 c 1,89,90
 123.075195312 169.78515625 123.075195312 169.78515625 348.25 330.75 c 0,91,92
 408.766601562 374.62109375 408.766601562 374.62109375 490 418.25 c 1,93,94
 538.45703125 447.4453125 538.45703125 447.4453125 565.25 455 c 1,95,-1
 565.25 456.75 l 1,96,97
 547.557617188 456.75 547.557617188 456.75 407.452148438 473.459960938 c 0,98,99
 393.654296875 475.053710938 393.654296875 475.053710938 383.25 476 c 0,100,101
 312.834960938 484.2109375 312.834960938 484.2109375 292.25 479.5 c 1,102,103
 237.357421875 462.034179688 237.357421875 462.034179688 202.653320312 396.518554688 c 0,104,105
 200.607421875 392.504882812 200.607421875 392.504882812 199.5 390.25 c 1,106,-1
 140 414.75 l 1,107,-1
 19.25 474.25 l 1,15,16
EndSplineSet
PairPos2: "gpos_pair_dfl_kern_arab_FAR_Lookup_01_Subtable_01" tcheharabic dx=0 dy=0 dh=0 dv=0 dx=0 dy=0 dh=0 dv=0
EndChar

StartChar: uniFEA7
Encoding: 65191 65191 375
Width: 1414
VWidth: 1750
GlyphClass: 2
Flags: HW
AnchorPoint: "GposMark2BaseAnchorClassErabAbove_01_02" 612.875 1445 basechar 0
AnchorPoint: "GposMark2BaseAnchorClassErabBelow_01_02" 612.875 -155.25 basechar 0
LayerCount: 2
Fore
SplineSet
648.75 1095.5 m 1,0,-1
 762.5 1244.25 l 1,1,-1
 792.25 1282.75 l 1,2,-1
 804.5 1295 l 1,3,-1
 822 1286.25 l 1,4,-1
 862.25 1258.25 l 1,5,-1
 1011 1156.75 l 1,6,7
 1007.59277344 1141.98632812 1007.59277344 1141.98632812 970.575195312 1099.77050781 c 0,8,9
 967.126953125 1095.71679688 967.126953125 1095.71679688 965.5 1093.75 c 0,10,11
 884.487304688 984.618164062 884.487304688 984.618164062 857 952 c 1,12,-1
 855.25 952 l 1,13,-1
 648.75 1093.75 l 1,14,-1
 648.75 1095.5 l 1,0,-1
109.75 509.25 m 1,15,16
 113.411132812 534.520507812 113.411132812 534.520507812 148.25 595 c 0,17,18
 243.88671875 759.096679688 243.88671875 759.096679688 353 764.75 c 0,19,20
 410.421875 766.147460938 410.421875 766.147460938 514 742 c 0,21,22
 539.16796875 735.973632812 539.16796875 735.973632812 780 665 c 1,23,24
 995.43359375 603.368164062 995.43359375 603.368164062 1131.75 593.25 c 0,25,26
 1148.41699219 593.262695312 1148.41699219 593.262695312 1257.75 596.75 c 1,27,-1
 1228 353.5 l 1,28,29
 1074.20898438 353.5 1074.20898438 353.5 869.275390625 234.4140625 c 0,30,31
 843.40625 219.380859375 843.40625 219.380859375 792.0546875 188.216796875 c 0,32,33
 656.033203125 105.978515625 656.033203125 105.978515625 585.75 75.25 c 0,34,35
 445.8203125 17.5234375 445.8203125 17.5234375 321.5 5.25 c 0,36,37
 228.75 -5.25 228.75 -5.25 61.9326171875 -0.9931640625 c 0,38,39
 -0.5 0 -0.5 0 -32 0 c 1,40,-1
 -32 271.25 l 1,41,42
 235.479492188 271.25 235.479492188 271.25 297.7734375 276.836914062 c 0,43,44
 375.532226562 284.064453125 375.532226562 284.064453125 440.5 299.25 c 0,45,46
 493.793945312 311.213867188 493.793945312 311.213867188 682.122070312 380.111328125 c 0,47,48
 687.385742188 382.030273438 687.385742188 382.030273438 690.75 383.25 c 0,49,50
 701.864257812 386.955078125 701.864257812 386.955078125 724.592773438 396.1328125 c 0,51,52
 767.146484375 412.921875 767.146484375 412.921875 787 416.5 c 1,53,-1
 787 418.25 l 1,54,55
 759.958007812 418.74609375 759.958007812 418.74609375 675 444.5 c 0,56,57
 650.708984375 451.301757812 650.708984375 451.301757812 601.391601562 466.583984375 c 0,58,59
 470.649414062 506.7578125 470.649414062 506.7578125 405.5 514.5 c 1,60,61
 358.274414062 517.81640625 358.274414062 517.81640625 321.5 472.5 c 0,62,63
 319.040039062 469.547851562 319.040039062 469.547851562 312.991210938 460.42578125 c 0,64,65
 294.21875 434.212890625 294.21875 434.212890625 284.75 430.5 c 1,66,67
 274.740234375 428.614257812 274.740234375 428.614257812 237.5 448 c 1,68,69
 180.251953125 471.142578125 180.251953125 471.142578125 109.75 509.25 c 1,15,16
EndSplineSet
EndChar

